<mxfile host="app.diagrams.net" modified="2020-08-29T03:36:36.038Z" agent="5.0 (Windows NT 6.1; Win64; x64) AppleWebKit/537.36 (KHTML, like Gecko) Chrome/84.0.4147.135 Safari/537.36" etag="HwPIjlT4IiDAWR_ryNRS" version="13.6.5" type="github">
  <diagram id="fpxnHJQTXYAag--96vLK" name="Page-1">
    <mxGraphModel dx="800" dy="522" grid="0" gridSize="10" guides="1" tooltips="1" connect="1" arrows="1" fold="1" page="1" pageScale="1" pageWidth="850" pageHeight="1100" math="0" shadow="0">
      <root>
        <mxCell id="0" />
        <mxCell id="1" parent="0" />
        <mxCell id="pJZJWKOZTuTM_C-RBt05-1" value="Developer&#39;s Desktop" style="text;html=1;strokeColor=none;fillColor=none;align=center;verticalAlign=middle;whiteSpace=wrap;rounded=0;" vertex="1" parent="1">
          <mxGeometry x="60" y="50" width="50" height="20" as="geometry" />
        </mxCell>
        <mxCell id="pJZJWKOZTuTM_C-RBt05-2" value="Bitbucket Server" style="text;html=1;strokeColor=none;fillColor=none;align=center;verticalAlign=middle;whiteSpace=wrap;rounded=0;" vertex="1" parent="1">
          <mxGeometry x="455" y="50" width="50" height="20" as="geometry" />
        </mxCell>
        <mxCell id="pJZJWKOZTuTM_C-RBt05-25" value="Git Push" style="edgeStyle=orthogonalEdgeStyle;rounded=0;orthogonalLoop=1;jettySize=auto;html=1;entryX=0;entryY=0.5;entryDx=0;entryDy=0;" edge="1" parent="1" source="pJZJWKOZTuTM_C-RBt05-4" target="pJZJWKOZTuTM_C-RBt05-5">
          <mxGeometry relative="1" as="geometry" />
        </mxCell>
        <mxCell id="pJZJWKOZTuTM_C-RBt05-4" value="Private branch in local repo." style="rounded=1;whiteSpace=wrap;html=1;" vertex="1" parent="1">
          <mxGeometry x="30" y="100" width="120" height="60" as="geometry" />
        </mxCell>
        <mxCell id="pJZJWKOZTuTM_C-RBt05-13" style="edgeStyle=orthogonalEdgeStyle;rounded=0;orthogonalLoop=1;jettySize=auto;html=1;entryX=0.5;entryY=0;entryDx=0;entryDy=0;" edge="1" parent="1" source="pJZJWKOZTuTM_C-RBt05-5" target="pJZJWKOZTuTM_C-RBt05-11">
          <mxGeometry relative="1" as="geometry" />
        </mxCell>
        <mxCell id="pJZJWKOZTuTM_C-RBt05-5" value="Private branch in Bitbucket repo." style="rounded=1;whiteSpace=wrap;html=1;" vertex="1" parent="1">
          <mxGeometry x="410" y="100" width="120" height="60" as="geometry" />
        </mxCell>
        <mxCell id="pJZJWKOZTuTM_C-RBt05-6" value="" style="endArrow=none;dashed=1;html=1;dashPattern=1 3;strokeWidth=2;" edge="1" parent="1">
          <mxGeometry width="50" height="50" relative="1" as="geometry">
            <mxPoint x="240" y="620" as="sourcePoint" />
            <mxPoint x="240" y="40" as="targetPoint" />
          </mxGeometry>
        </mxCell>
        <mxCell id="pJZJWKOZTuTM_C-RBt05-19" style="edgeStyle=orthogonalEdgeStyle;rounded=0;orthogonalLoop=1;jettySize=auto;html=1;" edge="1" parent="1" source="pJZJWKOZTuTM_C-RBt05-11" target="pJZJWKOZTuTM_C-RBt05-17">
          <mxGeometry relative="1" as="geometry" />
        </mxCell>
        <mxCell id="pJZJWKOZTuTM_C-RBt05-11" value="Pull request: Private branch to release branch" style="shape=image;verticalLabelPosition=bottom;labelBackgroundColor=#ffffff;verticalAlign=top;aspect=fixed;imageAspect=0;image=data:image/png,iVBORw0KGgoAAAANSUhEUgAAAMgAAADICAYAAACtWK6eAAAQzklEQVR4Ae2dLU/tShSGcUgEBoMnOQ6HRZEQfgAJ+tjjkBgcAoUiQR9xLQ6FwfADSHAokvMHMCS9eTlM7r5D97A6XWvNx34nId3TTmfad62n89myNjBQASqwVIG1pUd4gApQgYGA0AmoQEIBApIQh4eoAAGhD1CBhAIEJCEOD1EBAkIfoAIJBQhIQhweogIEhD5ABRIKEJCEODxEBQgIfYAKJBQgIAlxeIgKEBD6ABVIKEBAEuLwEBUgIPQBKpBQgIAkxOEhKkBA6ANUIKEAAUmIw0NUgIDQB6hAQgECkhCHh6hA1YC8vb0Nd3d3w/n5+XB8fDzs7u4OW1tbw8bGxrC2tjasr69/xHd2doajo6Ph9PR0+Oeff4Y/f/50bdnX19dhf39/eHp66vo+a7i56gABFL9//x4ODg4+AAAIOX8/fvwYLi4uhpeXlxp0VrsGwIEHAjTBw4KQqEk7mlE1gMDwqAFC7ZADxbJzULs8Pj6OCtDSzkU4wr0SElsLFgcENcbZ2dms2iI4y3dbgNJqjTIGR7hfQmIHSVFA0L/Y3t7OakIF55i6Rb8FfZr393c7VZVzTsER7p+QKIv+mV0RQOCcaE4F45bYopMLx6s9SOAI+hESfWu6A4ImFTrgwaglt7U71BQ4go6135O+C9vm6AoIhl/39vaqgCM4FAYF7u/vbVXOyD0HjnBPhCRD8CWnuAGCmqM2OIJDAZKaRrnmwBHuiZAs8fiJu10AQZ+jlmZVcKB4C4d6fn6eKJ9+cg04wr1Bc4Z5CrgAgmHcYLSat5ipR01XKmjCgYnS3lcUeNjJHBAM5dYMRXxtv3798tD9SxmE44skVewwBQRPY+95jtjhc+IPDw+uxiEcrnJPKswUkFaaVjFEaJ54TSQSjkn+6p7YDBAYHrPWsfO1Er+5uTE3BuEwl3h2AWaAlJ4pnwsiVsxa1iKEY7bvumRgAgj6Hharcuc6/dTzb29vTYxAOExkNcnUBBC8zzHVGWtMj9W/2oFwaCtqm58JILVPCkphRB9Kcy6BcNg6s0Xu6oCgedVy5zyGB6/wagTCoaGifx7qgLQ2MRgDEcd//vw52yqacMTXZxVHHxLLb7C6AN8DwDs0sG3JlQazDZGRgTogENLKaCXyhYPMCS3CkdIZrQM0odHPXAVY1AHB0yYlcGvH4BC5AQ6EScfW7ll6vahlMJyv2U/L1drqPHVA8MSVCtxKutz32FufC5LaBw8RrJrosUZRBwTtVqmwraTLWZsFZ+lhLmiKjbDuDv2UnoI6ID06RY7RAdUU5+opLWoTy1UIngCqA9KTocO95Az14pxw/ipuDw8Pu2hyqQPS0xxIcOycJSe9DXcHLaZs8Yp16x14dUA2Nze7e3LmfNQBjjHFmXpNC0ha7ryrA9LjsGbu92+xlqtXx59yX2hutdonUQcEYkwRr4W0uU9AfASixyZnjs3QcW8xqAPS29g/hi7nBPRfCMnfL/TnjAbO0V7jXHVAehu9wcqAuYGQ/AUEL6Hl1sZzbZB7vjogWHuUUwXXes7V1VWutv87TxMS9PPwILL8wyvHaBZh3ZVmDdhaU0sdEHhFT8tNcpeZ/I+Oz4gmJBqrjMeucWwfnvoARmMABrC1NPRrAkgvK3rnruQdc7ZWIcG9YCQKNercGgX91FaCCSBoZs0VsYYm1/X1tYkdW4YEgmDYe873zrAcqZW+iAkgELH1Ze/WRmwdEjQ950CC90laCGaA4GvpNdQCudfg0ZlsHRLUJLktBcyXtRDMAMHNt1qLYLmMV0eydUguLy+zHoQAq4VmlikgqIZznzC5T36N8zy+qrj49GwZEnTcw7+lnqp9zhq3Rd08fpsCghvAqMdU4Uqmx/8uLBFahgSDGTk2w2hn7cEcEAjQyvosNK0wAlcqtAoJmko5LYWTk5NSUovLdQEE7fncajjnyZRzDgxcw1qhViFBzTtVd4t5JrHnCxO6AIJrwcrWmt8V8e53pOyjBYnVPM7YtecsUp27EHTsOrT3uQGCC8ewYI0fdfB0JKkB50LifU85/RDMNdUeXAEJkNTS3EKzquYJq1xIvOGAXXM/WE5ARhRAnySnzTq1jZtKj5os53M+I7djumsqJCXggAAERNkNMH5+cXGRNfqRcnzJMbwK6zURqCGbFJJScBAQDSsvyQP9Eq9/l4BOId6haDF8B0lJOKAnaxBjr8IQq1WzC2BgwrKFpQ0pmZdBUhoOApKymvIx1Cj4X+VzR7vQAUdTCk7V6hc1xqSNIakBDgIyZinjfXDq3M93YiVu67VFSt4ASS1wEJCUtYyPSTrdcZpW+xlTpCy5JGbsOtkHGVPFYV/s/JL4KgDiIP2kIgjIJLn0EkuAiNMQED39pTkREKlSyuli55fECYiyEQTZERCBSBZJJEDEaQiIhSXSeRKQtD5mR2Pnl8QJiJk5lmZMQJZKY3tAAkSchoDY2mQsdwIyporDvtj5JXEC4mCYqAgCEgniFZUAEachIF7W+a8cAvKfFq6/YueXxAmIq4k+CiMg/pp/lCgBIk5DQPyNRUD8NScghTTPKZaA5KimcE5cO0jirEEUhJ+YBQGZKJhWcgkQcRoCoqW+PB8CItdKNWXs/JI4AVE1gSgzAiKSST+RBIg4DQHRt8N3ORKQ7xQyOh47vyROQIyMkciWgCTEsTwkASJOQ0AsLTKeNwEZ18V8b+z8kjgBMTfLlwIIyBdJfHZIgIjTEBAf2yyWQkAW1XD8HTu/JE5AHA30WRQB8df8o0QJEHEaAuJvLALirzkBKaR5TrEEJEc1hXPi2kESZw2iIPzELAjIRMG0kkuAiNMQEC315fkQELlWqilj55fECYiqCUSZERCRTPqJJEDEaQiIvh2+y5GAfKeQ0fHY+SVxAmJkjES2BCQhjuUhCRBxGgJiaZHxvAnIuC7me2Pnl8QJiLlZvhRAQL5I4rNDAkSchoD42GaxFAKyqIbj79j5JXEC4migz6IIiL/mHyVKgIjTEBB/YxEQf80JSCHNc4olIDmqKZwT1w6SOGsQBeEnZkFAJgqmlVwCRJyGgGipL8+HgMi1Uk0ZO78kTkBUTSDKjICIZNJPJAEiTkNA9O3wXY4E5DuFjI7Hzi+JExAjYySyJSAJcSwPSYCI0xAQS4uM501AxnUx3xs7vyROQMzN8qUAAvJFEp8dEiDiNATExzaLpRCQRTUcf8fOL4kTEEcDfRZFQPw1/yhRAkSchoD4G4uA+GtOQAppnlMsAclRTeGcuHaQxFmDKAg/MQsCMlEwreQSIOI0BERLfXk+BESulWrK2PklcQKiagJRZgREJJN+IgkQcRoCom+H73IkIN8pZHQ8dn5JnIAYGSORLQFJiGN5SAJEnIaAWFpkPG8CMq6L+d7Y+SVxAmJuli8FEJAvkvjskAARpyEgPrZZLIWALKrh+Dt2fkmcgDga6LMoAuKs+fv7+3B/fz9IgIjTnJ2dDW9vb85XvLrF/fnzZzg9Pc2yFWwMW9ca1mq7sMfHx+Hnz5/D5uZmluABlvX19eHg4GBAbVKzAWrTX3o9eACh1oDG0DronrOFrWFz2L62UA0gt7e3w97e3iyhlxlna2truLy8ZK2i4H0A4+LiYoCmy/Sesx8+cHd3p3ClOlkUB+Tp6WnY3983ETs21Pb29sdTT0e61csFNYYVGLGt4BPwjdKhGCBo9pyfn8+unmNhJXE0C15fX0tr30z50AqaSbTVTIOmG3ykZBO5CCAQ3Ko5JTUQ2r3oIDKkFUBzZ25/UGqTZelQm2AgoERwBwTVJpo6y8Tw3I8n1M3NTQndmyjz+vq6SA0/5gPwmRJNLldAMEpR+mk0Jv7V1VUTDut5kRjUGNOq5D74jjckboDgxmqEIxgcT0uGvwrggRF0qW0LH3p+fnYzlQsgaD/u7OxUKzqcAM2tmoYX3TwgKgjD7bVBEV8PfMmrT+ICSIkRkFhUSXxjY2N4eXmJXGZ1orh3aCDRqnQa+JRHMAekxrZsyrgYXSs5rOhh9LEycM+lRxZTdhk7Bt+yDqaA4Ik0dxnCmDDW+1axP1Jzv2OZveFb1jW+KSBHR0dNVNexAdDM8GrjWj8BJfnjXltpWsW2Oj4+ltxidhozQDCkG99MS3GsCF6VkLsStxZ7Wi5yNAOk1dojGB1P1FVYMo/ao8VmcLATtpa1iAkgaBcu3kCrv1dhArG1QZQxXwLgVmvrTADBArOxG2lt3+7ubvetrB8/fnRhK/icRTABBI7VGgzLrtd6lMTCqNI8MSO97L5b22/1MFMHBFVda+KmrrfnZlYPzatF21k0s9QBwSuuixfd+m/LDqD0SW+VrvWBlNi3LD7WoQ7Ir1+/ugIEy6x7DV5vB8aObBXHcLV2UAfk8PCwK0BgzB6He3FPVo5aKl/UiNpBHZDaV+3mGM/7HQRtI4/lh3vK0aLmczAipx3UAan5nY9c4/b4ai6W9ufqUet58D3toA5I67OyY8bHOxK9hRbe+xizRWoffE87qAOSuoFWj1mMjmgbcmp+vY02Bt+aqsN36dUBaXVVaBB4bNvjm4Y91iDwPe2gDkhvQ4cAxnK1qLZBpfnlfvd47AFSyz6LIXl1QHpaZhIM3+Nyk56WmQQ74Y1I7aAOCGaewwX3sLXo+GkbMSc/vGLb24DKyclJjhTJc9QB6WUlb4DbahFc0ipOB3tZyRtsZbGiVx2Q3tq2WDrTa8C/HAjO1cPWYr5KHRAsYeip6u5xiDcAn/tfoWqECT5nsSRIHRCI38t6LIje88cbenjdNsBqsQ4LvmwCSC9Ppp6XuodapJcl71Y1vQkgqOp6mDDscYlJACNse5hRt/zAhgkgEL/1T8lYrAwNTlnTFsO9ra/AtvxEkxkgrbdv0UxclYD/kRLa8q1tUXtY9hPNAIFzgezWBMf1Yu5jlb7Pi3ttdU7EYu5j8cFoCgj6IrX8N6kpoD48PCxqtBK/W5y/QtPQYmh30eCmgKCg1l7M6XlicNHwY79bmzi0mBiMdTEHBAW20tRC08r6iRQboKY47r2VxabWTatgFxdA0MatffIQy/R7XLUbDC3dYpVv7a9NY+7Gq4/oAgiMg6dTrf+gBSMhPb7zIYUiTgctap3Hgg951vJugMAIGI6rDRI4wip2ymMo4jja97VBAt+xHNKNNUDcFRAUCPpraW6V+t/bY4aocR9qklreEEWzyrPmCPZwBwQFo/1YuuOOfwLp/TQKore0xfdu9/f3i85noUPu1eeIbVMEkHARqMa9lzlghe7FxUW4BG4FCsA54aTerzHANzyGclMSFAUEF4ZqE7WJh/iopjlSlXKH9DGMcHms/kXfB0CWaFLFChQHJFwQmjsAxaJjiGXrHKUKSs/fQksLUGB7+EBNTd9qAAlmw1MDCwXRkZ9Tq2DCC00pi/8ZEa511beojaHxnMlF2BiwYdl9DTVGbNPqAFm8QAiGNiiqW3yxAobAyFOoZSAuRlmw0A4iY4k9hK7pCbR4Pz3/hubQHjaALWAT2CY85GAz2A5DtbAlbArb1gjFop2qBmTxQvmbCpRQgICUUJ1lNqMAAWnGVLzQEgoQkBKqs8xmFCAgzZiKF1pCAQJSQnWW2YwCBKQZU/FCSyhAQEqozjKbUYCANGMqXmgJBQhICdVZZjMKEJBmTMULLaEAASmhOstsRgEC0oypeKElFCAgJVRnmc0oQECaMRUvtIQCBKSE6iyzGQUISDOm4oWWUICAlFCdZTajAAFpxlS80BIKEJASqrPMZhT4F25pMbbjbrYTAAAAAElFTkSuQmCC;fontStyle=0" vertex="1" parent="1">
          <mxGeometry x="450" y="199" width="40" height="40" as="geometry" />
        </mxCell>
        <mxCell id="pJZJWKOZTuTM_C-RBt05-21" style="edgeStyle=orthogonalEdgeStyle;rounded=0;orthogonalLoop=1;jettySize=auto;html=1;" edge="1" parent="1" source="pJZJWKOZTuTM_C-RBt05-17">
          <mxGeometry relative="1" as="geometry">
            <mxPoint x="470.0050000000001" y="670" as="targetPoint" />
          </mxGeometry>
        </mxCell>
        <mxCell id="pJZJWKOZTuTM_C-RBt05-17" value="Reviewer reviews code and updates review comments" style="shape=image;verticalLabelPosition=bottom;labelBackgroundColor=#ffffff;verticalAlign=top;aspect=fixed;imageAspect=0;image=data:image/png,iVBORw0KGgoAAAANSUhEUgAAAggAAAFkCAYAAABFIsPfAAAgAElEQVR4XuxdBVhVSxddCiqYhBiAimIHdnd3d3did7fY3d3drditKHYhCiYWKIoiKPF/a/PufVcE7lUx/sfM9/3f77ucM2fOmjmz1+zZs3asD/6fQv38PkIVhUDECMQCEBoFOD/799+B+8+28Vff/zdjEJPfXdMvCoPfMULVM/4uBBIlSoBYz196hyZLao7YsWP/Xa1TrVEIKAQUAgoBhYBC4LcjEBISglfeb8MIQopklr+9AeqBCgGFgEJAIaAQUAj8nQi8eOWjCMLf2TWqVQoBhYBCQCGgEPhzCCiC8OewV09WCCgEFAIKAYXAX4uAIgh/bdeohikEFAIKAYWAQuDPIaAIwp/DXj1ZIaAQUAj8EQQYgBYSGtXJpD/SrK8eyqD52LF4ekSVP4WAIgh/Cnn1XIWAQkAh8AcQCA4OQeDnL3/gyd/3yNixYyFevLhQFOH7cIvOqxVBiE40VV0KAYWAQuAvR+DzlyAEBQX/5a0Ma56pSVzEUl6EP9ZXiiD8MejVgxUCCgGFwO9HQBGE34/5/+sTFUH4f+051W6FgEJAIfADCCiC8AOgxdBbFEGIoR2vXlshoBCImQgoghAz+/1H3loRhB9BTd2jEFAIfIXApy9A4F8c9xbXGIgfV3UaEfgvEwQGYF67fR+BgZ+RO0dGmMT7uU4PDQ3Fi1dv8PylN1h3UkszpEmVIsacroh2gsCOefzsJTKkS2Xw1/jE6yW8fd5Jh/5IoV60sZERLMwT/8jt39zDd7hywx2F8mX74fouXbuLHFnsES9uHL11vHn7Hl+CgpDcykKu5RGky9fvIU4cY+TMll7v/RFdwIH9M8E9L1+/BWODmKNDt7z28cWXL19gncJKfna5fBs5s2eI9D15kiq6Y4xuuXkifVrbb555484DZLJPjbj/YB4VBsT4+NkrKFEoF4yNjbSvyLEbN44xDJEe/+gfAG8fX5kwWO4/fAZvb9+fGjf6Oltfv+49dBaVyhSEkdG/7/TO7wMuXXVD2eJ5o6w+IPAztuw6hpqViyNRwvj6mqL9O8nBi3cGX/7HLkyaEEhk8sce/9c82BCCIEcgtccgY4EnClieer1CMitzxI2jf16Ljhf+niBF3/cfMGPBRng8eg4jYyNYWSRB/65NxKj/SAkJCcXMJZtx6tw1mUvD0nWFytw3qHszWKdI+t3V8vslrBo8g0NCJAfS33pSI9oJAtnW8vV7MahHc4PBu3nHAz6+71GycC6D79G9cMLsNahXrZQYjegoh09eAo1Qj/b1f7i6A8cuoGShXDA1jae3Dra/atnCyJHVXq69cuMe1m49hNaNqyBbprR674/ogv6j56F/16ZIapHkh+7ff+S8fBQ0Nrpl2bo9qFCqIGytwwjCoRMXkTdnJliYfUvO3vl9BOtpVKvsD7Uhopv4gfUfPR/9HJsgWdJ/P3z/TwEYNmExpozsqiVG81dsR5VyhZHGNsyA6xYe88pdtjXO71+ExDrGcNn6vfIutSoX19vm0xeuy3ExjeFds8UZFy7fwmynXnrv/ZELXK+7Ye+hc+jn2BimJhGPqyJVO+HI1plf/f3egycYMGY+tq9wivKx7/0+YtHqXWhUuxxsU4b1ryHF1x9462/IlX/2GnoQkkfPGuLPvshPPt0QgrB03R4EBHxGogSmeP7KB/lyZZFxvmbzQVQuWwiWPzivfG/TDSUIB49dgPPxiyiQJyvKl8yHeHHj4uhpVxw95YqiBXKgXvXS3/Xo196+cJq1Gmlsk6NqucJIZZ0MxsbGoME8d+kmzrjcQOdWtZEpfWqD6/X74I8la3aLTejQvCY4Z/UcNgvVKxRBzUr65xuDHxSNF/4UQbh51wPmZolx+ZqbMKuKpQvira+fEITu7evjrvsjMR4aQ1KiUE4Eh4TC+bgL4hgbIU3qlDCKHRvxTU3w7v0HJExgKvd7PPZCgvimqFS6gEz2XNUdPOaCbJnTolDebHKPpvC4Tp02g7FlyVjtypFMkhNpvLjGqFy2MD59CsTjZy/A1W9G+1QwS5IIB45ekBUoDUh4N9S46SvRsWVNJLUIM0Bu9x8jICAQ7p7PZKDYp7WB87ELyGifWt6PbSAhePn6DaqWK4KUyS3hes0N2bOkEwxS2yTD/qMX5F4OVt2smcHBwShTtwcObpwm7Xj1+i1mLt4MGsL6NUqDgyqZlQVojNo0ropbdz3gcuUO8uXOghyZ08L/UyCu3nSXweb77oMYttv3HqJB++Ho3akROrWsKXXsP3oecY35voUEp72Hz8E6uSXo6ahUppC07cuXIMGZPDkoOETaE54gTJyzFr06NNBiffHKHeTKngF33B/B3CwRzl68gcQJE6B8qfzYtOModuw/iZYNK8vY8H7zDvuOnIO9nY3g8P79R3g+fo43vu+RNnVKaSeN84lzV5HbISOyZ0oLMuwjJy/JqqBq+bAPNSKC8Oz5a+x2Po1OLWtLnz19/hqtuzvJGGrTtBrI//ccOgtjo9ioVqGoeGdIEDYtHoMzLtdRrKCDkDENQahZqRiev/SRscp+Lpg361fjjs+YvnAjalQsJu/DoiEIM8f2xPb9J8UTUbFUAexxPgsad9bJCWwxjXCtsmAqVeL13s8fZYrlwaZdR8Fvqlr5ooKPrgeI38f4Watx8NhFdG5VE+2b1cDlG/ewfe9JIYFtmlRF4kQJULhKJ6yZNwzb950U71OZ4nnxwPOZliDwG1i1+QCCg4LlHs0YZ/s/fPyE9dsPyWSVIIEpVm7cD6/n3jKmOM4j80jpEgQfv0B0nX0JS/sURPx4xnjx9hP6LLyCGZ3zIHH8uJiy+Q6OXHmOPBksMLhxdnz6HIzhK6/jU2AQrC1N0aFqBmS0SYSlBx7A3johfD98wYZjj6D55PvWzyJ1LO5VEK2nnIdR7FjioWpV3h6hsUKxdP8DmMQ1QvHsVmhVIR3iGP87VyiCEDZrGkIQlqzdjXIl8sEuVUr5Pmcs3IThfVpjw/bDQhASJ04AfvscT8UK5ISlRWLxLnz8FAjPh15In85GPKI0pGlTp5BvSObSB49lPs2fK4tBK3BDCALn32aOozGyX1uYJ0mICbPWyFju3bmReBEGj1+EueN7yzdvaNmw/Qhcr9/FxGFdtKt93XuJA99t2uhuBtXL7Yn5K3bgtpsHJg7vjEQJE0h19H73HzUPTetVFAKm8SzoayffOSgoSOZh2hPaCy5WKCyl8aBy7vzy+QvixIkDI6Mfy9T8UwRh9pItuOX2EHWqlsSjJ8/h99EfTepUEILQokElkIVyULE07DAc8yf1xZylW2GT0kom+iVr96B8yfywSZEUd+8/Rhqb5Nh75BxaNawM5xMX4ZDVHjkyp0Ov4bMxuEdzMboVShUQoqApJ89dxdmLNzGwezPtb31HzUWRfNnFuHCSTmWdHMMmLkbbJtXEEIyeulyMIiddGs4VM4do3cwEniv6ob1aautbsWE/Tpy7gub1K2LrnhOwTp4URfJnx9QFGzB9dDdcunpXOie1bQps3X1cBsC0BRvRvV09LFy9U7Y/8jhkxNK1e9CqUWWUK5FfW/eFy7exx/kMxgxsL7+xTcvW7RWVs9pVSmDi7LUwT5JIWDFnwuNnrqBM8TxiaB2ypEfJIrnQpf9U9OrUALfueuLxs1dwbFMHVZv0hdPgjmIMh05YLN4ZrhB3HzqLxVP7o1y9nsJirSyTgJPBugUjxYjQRZ8hnS3WbnVGo1rlviIInz9/gdPM1dKnmoHMVTtX83w3r5c+qFK2EOiBKVIgh2BPg+PYuq6QP6eZq4Qs0Ahy6yJ75nQYNHYBWjWqKv0yY+FGpEmVEhntbeE0Y7V8fF4vvWXiYbs27jyK2U49IyQIXC2wlCkW5kb3efserXs4oX61UqhTraQYzCSJEwoJIdmaPqa7EISOLWoid/YM2LTzKHp1aijkhCSFHpLZi7egVaMquHLTHaltkqNe9VLafuOWUNseE7Bwaj/tal1DEArmyYpte09g2qhumLloM/wDAoWIEqPxQzti/vLtSJ/OFt3b1UfZut3RoXkNeL99hxu3PVCtQhEcOeUq412z5cSHst0cb3udz6J3p4YoXignxkxfKf1KEmOWOCGmjuqGnKVbCmkh4eI4njTCUb4h9u36hSPRtPNoVCyVX74NEoWtS8dpJ2oS3NotB2PBlH5CfuKbxpOxSgI1rE9rJEkUNqmFL7oE4cXbABTt6Yw2ldJhSOPsGLX6BlYd9sCxyeWwZP8DPPX2R4cq6XH06gu88g1Et1qZ0HjcaTi1yYVnPv5Ye/QhNg4uhhnb78IhrRlevwuEq/sbtCyfTh5L4tpppgtc5lRCfscDGNAoKzLaJEa6lAlx7NpLnLv9GnWKpcKqw56wTBQPE9vlhrFRmANXEYSwnjOEICxYtQNJzZPItq3HIy9kSGuLkkVyaz0IXLRxvJBgcp4fM7AdLl93w627D4WU0nPIOT5zhrDvtmvbunjx0kcIQvbM9jhw7Lys6llvVMUQgsB5qWW3cXAa0hHzlm9DsYI5ZbGy5+AZ8WRz/ps6sitMTAyPRxg/c7UQIS5+Iip8/+ETlmD80E6yIIyqfAoIxMKVO2WB1Ltzw2+8rTfueGDSnLVoXLuczBOGlLHTV+K2myca1CwrBP7Bw2dwmrEK8eObYtyg9rJYWLxmN46ddhUyxrntR8pPE4TUtsllxeHvH4BBTgsxqHvzKAlCh96TsGzmIHmBWYs3w9TU5CuC8OL1GzFwp85fw5bdx9CjQwPUbj0YfTo1klVoUovEX+2vjpi0FE3rVUBGnZiHviPnIkECEzSoXhrp06USw8kV3ZgB7fDo6Qt5rq4rWhe4j/6fsHTdXjHumkKC8PHTJzi2riOGhPvTJQrnBN34lUoXRMG82eDu8UQ8Hdv2nsTUkY6Yu3x7GEFYtVPIEgcRvQxPn71Cu2bVtXWTSFQqWxBZM9hpf6O7jAShcplC6Nh3Mto3r458OTPLCrJhzbJIl8YaAYFf0LnfZAzr00pI19RRXfHwyQs07jgS5/cvRK4yrbBr1UQktUwCx4HTULdamHGjcZozoTc69Z2MVXOHygfeqMNwDO/bGhNmrcXa+cPlOr4nDUJFnS0GkhJ6eJrWraBtqy5B4BYJVx3uHk9x+ORFeeasJVswdmB7eS736EsXyyOrDpfLd+DYpjY27Dgif2cZOXmZTCRcEfMDzZrRDhVKF8A9jyd49OQFVm8+iE2LR0dIEIaMX4T2zarLikdT2vRwQs8ODeGQzV68K3fcH4Ludm49nNg5VwjC0a0zpT93Hzwj3h5LyyTyAXs8eiaeoayZ0uLDB3/ZctKQONZPNyOJ0LDerbTPI0GYu2yrkMU9ayYhXrw4KFGjq3hTSH5Pu1wXD5hdqhQYM20lNi8dg4oNesuWAIkJ21WvWul/vBLWGDNthWw3sYwZ1F48GiQcW5aOFTel+4MnuHTNDeddb8nks3rOUBSq3BGn98wX4z7EaZGsLEhySBD43ZWp0x0t6leSOldu2i+kvXC+7PLfGoKwaNoAzFu+HVduuImno0al4lEGZoUnCF1mueDJa3+s6l8ETSacgVmCOFjQowAGLb2K3nWzoFh2K7g/80PLSeewakARNHE6jeNTyyN+PCM0Hn8Go1s4YM0RTy1BOHH9FaoXskEKC1PxGHSccUEIQt4u+1E+b0qksDBBvWKpceXBWzx+9RGDGmXDuTveGL7yGjYNLQ7zhGGGQRGEsKFqEEFYuR0JE8QXQ8tvhi57ElmNByFhwvhC3GlAuB3as0N9PHzyXPbXOU/T+1SsQA7Yp7UFtyUL5MmG/UfOyjYwFweck1lHkzrlo7Rb30sQ6P2VOcTSDBNnrcHoAW0xdMKS7yYIU+atR/7cWSLd9ibRoadi4rDO38RphX8hbrUOG78Y6eys0aV17W/iN3zevkO/UfNRJF+2r2xDVMB06jcFr33eynzLrY7rtx9g3IxVsiibObaHEDt+/3fvP4JNCivMcur5I/xA+jfW85feoYYEZYV/Aj0I7OyGtcqChnXQ2IUY3LOFEASuFGkcR/VvK7fVbDEQy2cNFoO3cEo/mYRpEOhN0PUgcCXFVR1XeXS5zhrXU1aRN24/wG7ns+Iir1I2jGXRrT5qynJMGNrpK/cnf6fbXTNxctLd5XwaI/u2Edcz2dqMMT3ENfnk2SvYWFtp3cf0KIQEh6Bq+SLa1yVBCPj8GZ1a1AwjCMktwe0SEgQGuW3efVQm9ZTJLLFi436MH9LxK4JAQmBpnhiHT1wUI64hCF+CgjF22gqM7Nfmq/aHJwjcJmAAJwkC34UrfG6j9Bk+G0N7txLWzJXi4ycv0LD9cJw/sEgIws5VE2FlaYZug6ahTZNq8j4MyOPKvW7rIVg9b5i0q1GHEUI0xk5biQ2LRklb1mw5CCsLs68IQqOOIwRrXSOsSxDy5sokeHg+8sL+YxckLoRkbOygDliwYocQBHpFWBLEN5G2bN59HKP6tQkzglNXyAfE/U32EQNd1207JHuAfOcFK3dg1Zxh3xAEekba9ByP9QtGfuXuI0EgwcyRJR3a9pqAulVLygRGHI9tny0EgVs7XOnQw8CVEidEjk3Px14yDgr9Yzz5wWXJkEY7JkhM69UoLatzTSFB4Nhn8BK3HUgQS9R0RNum1ZDXIRPY3ySK9Ajlr9BOiCNJy9Zl42Rl7HrtrngRVmzcJ2SWWxA0/CwFcmeBy5Xb4url9dwaIoHo3bERrty8h5t3PYUgFKjYHoe3zhSS5ThgGizME6F5/UpCEJbOGIhKDftgykhHraHgCkkTp6IhCIunDRBCwGdwdbN60wGJX+C3GlEJTxBGrrwOuxQJ4OLmg5zpzHHjoS/Gt8mFocuvoVFpO9Quaosbnr7oOucilvYprCUIJnFio/rw45jXvQCWHXigJQinbr5CraKpkMLcBCEh0BIEehD6NciCjLaJkSV1Eji7PtcShJ3nnmLBbndsGlYciUzDXMuKIBhOEHS3GHgXv0fOW/sOnZOVNbdoUySzgFVScyxctUPitUgQOHeUL1kgjCAUdJDvQEMQDhw5h2yZ02nHEeeeyMaUZpwZQhA0WwxjBrSH7zs/bNx1FMFBIahctqBsjdFQ0o5oXO+GWEp68dZvOyRzs611sq9u4QKA3s44xnHQo0N9g9z3XBTNXbpVtuQ7tKih9Tpy7uJiiAttfqf0tBpSaLe42KWXnYttelGu3bov0tTZM6eVbYc3vn7iZaD31UonXsuQ+jXX/DRB2O18BpNHOsrk9u7dRzSuU14mSe7hdx88HQO7NceNux5YsX4v1i8aJatAxgSQSXLg1K5aMkqC0Lh2eSxeswtDerbALuczsLNNoTUyXFHtPHAKnVrW+uqdO/WfIvv1b9/5gca2Wd2KWoLACzv3m4KWjaqA+9Y0rs6bpwtBYOqSZp1Hw2lIh68C26IiCMUL5pRthME9WsjpAxpZrsJ1PQiREQTuk/FD7NmhwVftj4wgnDx3DcSb9c1bvhX5c2VFicK5MHvJ5m8IQpXGfcUw0bvDLZpm9SpIjAFX9EunD0T9tsO+Iggzx/UQl3WOzPbiHRk8bqEYa64GWLhXRnIXPtAtKoLQqGZZ9Bg6Uz4yxpw4DpqOCUM64dY9T/FEcJ9dH0GYOn+9YEtSRkJ0dNusbwgC3Zk07vQ86Rbu7fHj5sqnSedR0g4y7WkLNuDcvoVCEDhO6lQpKVsnTkPaY8+hc0IQuKUwbNISTB7eRchmUHCwduVNAjpg9HzMHv91MKJmi6Frm7qo324YRvRtjfOut2XibFCjNJas3YsRfVuhSP4caN9nogR4cnurVNHc6D18Ft5/+IRq5YtIDIrT4A7alb3mnXhihESHW0OZMqTGUKdF8s70wnCSIEHIW66t/I3enOXr9mLexD7yrZEgkPw1dxyDTPapxHPEbSRuO5x1uSHElRMXtxj4XnRXJk9mIW7lecu2yb2RuVIjIghjWudEvTGnsGVocXSe7YIZnfNiv4sX1h17KLEBe84/QwmHZKhSwEa2GJqUscPl+28QEgos7FEAkzbd1hIErzefxKvAQm+CrgehYak0sE0aX7wS1zx8sfvcU+TLaIE9F7xQv0RqONb492SUIgiGE4RFq3ciU/o0QgIePn4uiy0GPXMLlQRh657jEk8TK3YsWanz29JHEAI/f5aFHj1q3IIrWsABefScXDOEIPCt6Lm77/lMFpfp7GxkC/Tx05fi2idJHtDt3y1oQwwkY8OmLdgknsQGNcsga8a0YiN44o42jCfPSKS/J66BJGHU5OXIlSMD2japCp4a6jV0lsSq0evxN5afJghp01iDYDLCs3hBB3GfMMiQqy2uPuiazZw+NQI/ByFPjgziXmZgGl0hpy5cQ7KkFhKc8f6DPxKYmoCDiBMar6PLPmfW9Dh76Sa8XnhL1HqRfDm0e0lkeXSh0s2iWzhQGRdAxlisgIOw2mcvXsvKmYV1nb98Gzy5QwOvicglGG16jMeetZO+CiTkapJBJmwX22QaL54wMhoOTpo09DyWmNzKXAIgGdlKNzsDIh94PhUWzbbwhAc9LZqgNka8P3vuLTEcuoXEh4GCKZMnlUAg7ldz1cl9bx5XY8Alj9oUyptVjD5dgFwJ8tgd94sZp8GP+vodD9SoWFQ8MC6ut2XyLZA7sxhNxjIUzpdN2sUYDjJtMmNu7bCkt7OBWZKE2uN+jPWg9yW8S5AGN0vGNPB46CUfopWlueDBd7C3sxYX+Fvf9yhbPJ/sk5Hl8ggd99A5bhgzwRU+C1fB9BQwePTOvUdIlCi+HP8553pL9ti55UG3H3HPnCGNBFGy/7m90K1tvW8MGPuTAZ0kUXSH0q1p908wJIMCuQqiu//a7bDjkYwTIdEgJvRqXb/zAG7ujyV2gWRGw+7J3ncfOoMurcICIjWFRtbnzTuph1soIaEhyJktg/QJySjHBbcYOB7piZqxaBNO7Z4nE8+Hj/44dvoKfHzfIUt6OwmKDF8YN8AjV5xYGHtw6vxVfPAPQJaMdjJhsT+PnbkiHhEe+WRfFM6fTaLRiRkxZx+SaHDFweOpmdOnwT2Px7KNwvFWq+UgrJk3XN713KVb+BQYKMGiXKnoBtfqtk2XIAR8DhbvQN4MFnjm8wnWFqY4d9cbedJbII5RLJy/4w2PFx9gYxkfRbJZgUfJzt5+jcAvIUhgYoTsdmZIZmYidZgljIvAL8H4FBiMHGnDAoZf+QbgopsPKuRLiQMXn2ubkd0uieDK+/hdJzc3Re705rIloSmKIBhOEOhCf/nqjdzA74xzEIkz51aOEz8/f1y95S4eyDjGxuJx4tzGQm8053h6LzmO+E3xOv77tttDcBuZ3lbGkuk7im0oQaAX4eLVO9i254TM52zzE69XQrj5LTEQ/nsLF3y0IycvhH2/dD+SWHN+4PbbTKee4mX9nkKP4Ju378Q7So8i4zY4/zEo/28sP0UQGHSVNZPdNyudqF6ULme/jzSS1sLE5k/sK+6VHymzFm+RAI0fvT/8M7mtQfJAxvg7Cg0Eg1J04yd+x3N/5Bn88EoUyfXDxyZ/5JmG3ENjyb37Xh1/LAjHkGeEv+aanBoJROH8YXv331s27jgibsVOrWp94/363rqi8/rew2fLlge3pkjgDS3vPwE+Hw29+s9dRw0EaiHE9GJIDMLfgpGhBEHTXi6Ydh08LYsULry+R8/D0HcmqeWppMSJ4svC4r9cfoogcB+cq73IzmRHBBxFiMhOGWTH8+lcdf9o4YqaJwT0sVBD6+cKjcfhDD1qYmi9kV0X3e3/2fZEdT89KD96VOZXtot10/3PcfC7ClcW+IlxQhLK7S9GcH/Pvuivfj96F7hVoasLYcgzg0MA7w/Ap8/0e/2dxSQOYJUQ0NHE+jsb+hta9V8mCL8Bvhj1iJ8iCDEKKfWyCgGFgELgP4CAIgj/gU78Ta+gCMJvAlo9RiGgEFAI/A0IKILwN/TC/0cbFEH4/+gn1UqFgEJAIRAtCCiCEC0wxohKFEGIEd2sXlIhoBBQCIQhwJidz5+D/no4GFvG0wjRneztr3/xv6iBiiD8RZ2hmqIQUAgoBH4HAjxiFxZs+/cWCqnp5t35e1v6322ZIgj/3b5Vb6YQUAgoBBQCCoEfRkARhB+GTt2oEFAIKAQUAgqB/y4CiiD8d/tWvZlCQCGgEFAIKAR+GAFFEH4YOnWjQkAhoBBQCCgE/rsIKILw3+1b9WYKAYWAQkAhoBD4YQSEIDz1ehVKiVVVFAIKAYWAQkAhoBBQCBABpqOO5fniaWiI1WeFiEJAIaAQUAgoBBQCCgFBIPbruIjl8fJpaGiyQAWJQkAhoBBQCCgEFAIKAUEg1qt4iiCosaAQUAgoBBQCCgGFwNcIKIKgRoRCQCGgEFAIKAQUAt8goAjCHxgUoaGhoM64Kv8dBEJD8Uc04//Uc/87PafeRCGgEIgMgRhLEHxev8cn/0DYprH6raOD5KB/1yVo360KMma2+SXPDvj0GSamcaOsOyQ4BA/cnyNVGivttY8fvsJbHz+5L30mGyRIaILXL33hdvup4JQmbfJIjWBAwBecOnYDfu/8UblGfpjGjxft7/bk0SukSpNMW+/rV+/gdvuJ/JYm7b+/h39wQMBnGBsZwTiOkfzpxlVPXLvsgRTWFihXKfdPt5NGevaUHchbICOKlsz63fWFhIRi+oStaNOpEswtEhp8/8Vzbrjq+gBtu1RG7NhhhPOF1xtYWiVGnDjGBtejLlQIKAQUAhEhECMJwmUXd4watAZFS2RDv+ENDFr5fQ4MQpy4xvqvDWVkR+SDLTg4BIEBX2Aan1nKYukkTAn7t5FRbLmZRkfz3xpvA/+bxoTX8DfWRcIRO3ZsBAcHg8lNxNiM34peA+siVuxYWsMRvkVvfPzQtfVctGhfFpWq55c/7991EXduPsbp47cwenILIQmdms9AkRLZcOn8PSEY3vQAACAASURBVIye0gIpUlp883J85v5dLrh4/h7adqqElLYW8tzQEEgbSEaMjP9tMyvgO7DtfE+NR4X/r3n/8A/hdeNHbMDg0Y3kTyR3KxYdQvnKebBzy1nUblgU6dKnlLqIiwYjtm3WpO3IldcexcvkkN9JZu7eeoz1K49j4qy22kfxPoRC2qopQUHBiIVY3/4WK5a2rbyP4yOeibH0RVj/fd2OsHcNRWhI6D/98u8z7t56grlTd2H2Mke5l3iFCBZGMt5YP+vlv/m32EaxpZ85Hvi3ePHiaNu7aPY+1GpYFMmSJdH+9uVLsLRVQyLUVKgQUAgoBAxBIEYShDMnbsnKecPK4wYThL6OizBsXFMkMYtaLyKWT1yEWkZ+ZHTj6hO4feMR2napBNvUVti0+jiCQ0Lx4f0nfPjwCRWr5QNXvFcvPUBg4BeZ2Dt0qwrv1++wZulhmJjGQ7LkZmIQjx26hgO7LiJfoQy4c/MJ2netjEP7LouBL1IiCzJlTY1ipbJFOA5uXnuE82du4/b1x5g8t/1XhrlP54Vo3aki4ieIhzlTdmHCzLbyfBIkKx3Do6n4sst9rF1+BHHjGiN9Jms0bF4K16944uTR6zC3SCT3Nm1dFr5vP+D08ZtCCspWzIVEieNLe9++9UOy5OZ47/tRPCusRx9BuHv7Cfw/BiJBAhMktUqMpfMPoPfgulgyZ78YzbjxjNG8XXlcdb2PpXMPiLcgrX1ytOlcSaq+7+aFxXP3awnC/Xte2LbhtHgZChfLgsLFs+LKxfs4c/IWgr+EoHKtAuLxcd7rint3ngrJaNi8pIyjrRtO4+7Nx6hetxAccqeT/lux0BnBQSH48iUIXXrXwPNnPtix6SwSJTaF79uP6DWojpA8koaFs/aiRJkcyJojDUjc1i4/KhwzVz57FCuVXf5eq0ERJE9hjmXzD6JB85LiOXE56wYz8wRo3LJ0pASBBKdLy1nSJ2WjwVtiyKSirlEIKAT+GwjESILArnv75gMWz96nlyB4PniBhx4vsXTefjRqURp26ZIje067SHtfH0HgjdxiaNO5IjJmscGkUZvg2KcGli90Rs16hXHj6kPEiWMEf/9A1KhbGP0cF6Fj92qyus+WM42smCeO2oR2jpVgYhIXDauOw4gJzZC/cCZtmyaP2Yx+w+pHOUJpdOgZWLHoIPoPbyDGR1M0BIHvybounLmDyjUKoGmbMvLMiMqWdacQP6EJqtQI80awDO61HCXLOaBi1bza/+7WtyZotFYsckaDpiXgco5GLiGyZk+NQ/svo1mbskiYyDTCZ7AfiD+L8z5X8RgsmLkXjr2qY+WSQxgwoiHcbj2BfSZr8aK06VRRSNjMiTvgkCctSpfPqa03PEF49sRbyMHzZ28wbdxWrNrWH07DN8iWQY5caRH0JRgWSRNhSO8VQsRMTOIIkUn2D25zpuxEjtxpUbKsg3g37rs/l7b2aD8P/Yc1kNX+7q3n0X9EA8yctEPek8Tm8+cgzJy4Xdtfb7z94O8fgKCgEGxYeQwDRzVC3y6L0K1fTdniIab9h9cXzDzvv8CGVccx6B+vCl/O66kPkiZL8hXJOn74OjJlsUFKG8v/xqyl3kIhoBD4LQgogqBni+GR5ys8fvgSdN02bV0GqdMmF2MWWflegjBjwnZ07F4V61YeE+N69bKHbBUkTGCCoqWyYcyQtfL77m0XxGuQM086zJ+xB3UbF5PVMwnCjsMjtfvrbJc+gsAYhWZ1Jonxo5Fp0b6crHy59cEVbo/289GhWxVZHXM1zlUwjRsNZO0GRQ0mCGMGr0XjVqWRPqO13NOr0wIMd2omxnb6hG1o2b6cEKJEiUyF/BzY44pGzUtGShB0H3zk4FVp3+I5+1CgSCbQwNdrXEI8CQWLZAKNYpde1ZHaLplBBOHAnksSbxHH2Ag7Np/Fhj1D8PLFWxw5cBWPPF+ieOnssppn3MaZ4zfhcf85ylfJi6Ilwzw0ugSBJIOEJWfudGLAadDpLTh17Kb0NdtcqUZ+pEptJfEQ3NZp0Kyk1KOJK6Cn5orrA4ya2AJ9HRfDsXd1pLVPgQHdl2LQqIaREoSIOoftYb9GRrx+y0yjHqIQUAj83yEQIwkCJ/6XL3yxec1JtO1SESmtLRHP5N993Ih6cWAPTsyNfnqL4dVLX4wbuh4NmpWAQ+60WDxn/7cEwSi2GM46jYpiwogNcJrRFqeO3sDTx96oXq8Qls7dj/7DG+LjxwC0aTAVK7b0Fde/JlaBe/W1GxaBtU1SJE4S/5vXOXvyNo46X8XQsU3g7uaFY85XZZU/b/pu8RKQYMxa3AVez95g3Yqj6NSzmrjWaaDKVMhlEEHwe/8JE0duFNc4PREMmpw+fhsKFs0shIP77qXKOfwwQbh39yne+HxAhkw2ePn8DTJktsGlC+7YufksOvesJl6WgSMbCkFYs+wI3vl+RN1GxWSr4YPfJ3CLhcZ7yJjGSJosMeZO2yUxCs+e+GDVImchCCsXHUL2XHZCnDwfPEeDZqVkm6dE2Rw4feyWkCd6ghgsSdd/5mypxEvBYM9tG07JFkc/x8UYNal5OIKwH5Vq5IOtbVL07rwQXfvUgP0/JGr10sNi/FNaW8jWxfgZbTDVaYvEfrD+edN2Y+r8DrIlRAx3bzsvWxgpUv7rAdLtIG7nkEQOGNEAeQtm+L+boFSDFQIKgT+HQIwkCAxS9H79Xos6jZa+2AJeb2GZUBuE9qMehJNHbkhsAY25fcaUsl9NI0f3ubWtpWx93LzmCf8PgUiQyBTWNhZiYLnqpjv+3buPyJw1FdKmS4E7tx7jyaPXYnyLlMgqngeWp0+8cefGI4nup1EJX+g1oDudK3Bxh7t5IatDGomI55ZKlmypkM0hbBvF1cUdDx+8RLIUZihcPIv2GeHrpFHk8/kOLKyT78SAv6w5UssWBmMQLl24h9ixYiN/4YwSi8DfuKWSxCyh7NPTja45bRDVZ/E58AvWrTgmcRIZMtsidz57MBjv3MnbEiRqYZlICA1PYnz8EADXC/cQFBwiBOfBPS94Pngp+/8MFi1SPKsYeZfz92CbyhIf/QJQrHR2+e3qpfvS5/kKZZQxwve8deMRTE3iIn+RzEiQIJ7EfBBHBhFySyNdhpS4cPYuQoNDEc80DjJlsZX+JjlkXzPewdrGUk4czJm666sYEL/3/jh/+i4Sm8WXd8uRM63EJbicvSuxJ8ZxjKVPH3m8xKOHryTokcGHkcUXkBjVKD0CO46M/K4TEn9uSlJPVggoBP4WBGIkQfiV4BuyxaDv+TwuGD+BCfIWUCs+fVgx4M/ENE6ksRH67v+v/51bZCsWHsSICc3/66+q3k8hoBCIZgQUQYhuQPWcYjDkccFBwaK6E9mRP0PqUNcoBBQCCgGFgELgZxBQBOFn0Ivg3ujwIERzk1R1CgGFgEJAIaAQ+G4EFEH4bsiivkERhGgGVFWnEFAIKAQUAn8EAUUQohl2QwgCg9XMzROK8NCfLAyW1FXh+5NtiejZlH02t0z0tzVLtUchoBBQCMQIBGIkQfj06bMc7aOBphZ/dCZO0kcQKJHbpsEU9BlaHzlyRS649DOjj8f49J1555n/JXMPSLR+keJZYPTPCYjwzw2TUb6IW9cfSqT8rwicfPzwNczM4yNxkn9VKnlKgRoQ1AGgtPDvKFRm9HrqLRLTqigEFAIKgZiOQIwkCEvnHRAD6vP6naj6de9fW+84cHd7JsfmNEcJI7tBH0HgcUkaP6vkSSShDvUCeCyPAYkf/T7BzCKR5FVgHoMPfv5IlCS+NkLfz+8T/D8ESDIetoNH2OgFoNAQ6+VZ+Pfv/LFg1h5RX6TaX0RE4f17f/TqsECU/KhGSAVAHpMMX4jNzWsPMXvKTvQaWAc2tknl2J4QkISmcvyOyYV4lJDH83ic0NIqCYyNY8u/qRJoahoXbDefpclTEP45m9eelDbw+CYLjz7yXmJimTSx/EZSxzr5rjyeGDdeHDlaqDnGSDyoZcH73ni/lyOJTBjl/zEAHz4EIHHi+PDx9pOjqqyL+hC8h/gnTGQiJJE6E3u2X0CnHlW1TXz98p3UG5GehN5Boy5QCCgEFAL/xwjESILw8vlbWCU3k5wIVLWbubiL3i7s2XE+Rk5oIdr3URV9BGHV4kM4d+o2+g6tj7TpU2L+jN3gqYVXL9+JkapWu6AY/SMHr8DUNB5833yA04zWePLYGzPGb4NN6qQwNoqNrn1qijTx6iWHRXzoyePXIrhD4ZyLZ+8hT8EM4qEoW/HbbIUvvN6iT5eFokDYpVcNUFmRSnvhy6sXviKeRFGiAkUyi2wylQaXzNkHqxTmePf2A2o1KCo6B5SMpggRdQWatysngj6Ui6YH4sN7fxGD0ogB6SMIVG2kMuK7d/4iQUzyQXVH5kIIDgkRieh8BTNg304XyUOwYfUJpEljhQJFM2P0oDVInsIML5/7os/QeqLrQIyzO9iJLgNzEpw5cROFS2RFwSKZMX/6brRzrCzepPAEgf0yZsg68Wz0HlxH7xhRFygEFAIKgf8SAjGSIMiK1D8Qc6fvQr3GxWGXLkWkfXrj2kPcuvZQEvkwjTFFeSJLgMRK9BEEXqObi4GqhVTCW7XokCT7ofQuhYKCmCCoRj4M6rEMLdqXF2NICeESZR0w1WkrWrUvLwJJVMmbNKedJPrRFH1Sy7zu8P4rkg+hUNHMqFanYKQY0HPCpFbDnJpq63cath529inQpFVYkiDKUGfKmkqkm2mgmT+AuR5ovI8cuCKeDco0586XPkKcSYJM4sf9Rstg8phN6DOkHkT58dA1DB/XVFQRqTRIieMt606ifdcqWDLvAOzTp0AS84RYPv+g5Eo4fOAKKlXPJ7j07rwAxUtlFzJDEkavCP/eqkN5IYh9htQXsaEvn4NEiCqp1b+ZEN3vPhNvBIWiVFEIKAQUAjEJgRhJEKheSMNbp1Ex0diPqtA9zkyLIwasQp/B9cRQ0K0eWfleghBZLgYq9FH7f/TgNahWqyB2b78gyZyYtpgrYuYdoNIeCcKuY6O/SuWrjyBwi+FzwBfs2HJWVASZ3ZKGNqISGUEoVzmPeCBYpo3fKgaYUr6jB61Fv+H1sWKBM+o1LS75BygDTRd/7vwRE4TIsNQQhBOHr+Pe3WfihTi455IoJpIgbFp7Eh27VZGETUxGFM8kLvbvdEHTtmUlkyKTJXELggSBnhJNTghuUUwZswUWVomQxi4Z+C6RFapSxo1rJNkmVVEIKAQUAjEJgRhJEJj/4OZVT5SpGJZXoGb9Inr7nEaQRpR74FEVfQThxJHrWLnwEEqVdxACwMRA3yRrMoqNa5c9RGL5wO5LGDOllaQtPnP8lqQA5t96DKgtaYfpjRgytrEYTE18xOzJO2GbxhJZsqfR7uvrtpnue14TKzaQNYedxAfQO2IIQaAcstPwjZI0qmL1vJJw6PplD1mRc7VOD0jXvjWxbN6BaCMIDGIc2X8VGrYoifNn7iJ/oUwoVT4nnIatQ+nyuQSjarULIGdeezgNX48KVfJKgiX2K7cJBvVcJtko2d+adNXMw0Cv0JL1vSONL2AGxlED1wiR5PuqohBQCCgEYhICMZIgvH3jh8CAIG0/p7DWvzpkXADT++o78aCPIDDojfvosQAJIGTCH+7/MwCPMQefP3/ByWM3EMfYGBmz2iJhQhNxqXMv3/v1O4kXYOAeV8YMSOQ+v1Hs2JJwSNM2bp8wgJFyzZEF1zEQkCvwKjUKgO8fWfAlc0AwKZQmVwUD/N77fpRnJUxsivjx4wGhwOvXvvjgFyD7/wwO5L/p4WCio9hGsSRAkfgZUvhOjG/gKYshY5tIjgPmqOB7kRwRi6q1CkhgJvEgjgyG5JYLMSFOZmYJJOCT/aZpbxLzBNpjnTyZ4XH/hWRJjKww4HF435USAxJZgKUh76OuUQgoBBQC/48IxEiC8Cs7Sh9BMOTZNII0dkzyExMLMxq+9fmAspVyaZNGaXC4fsUDQUEhyPOd2xW6OD70eIFtG86grWMlJNE5Whkea25lnDh8LcotiJjYP+qdFQIKgZiBgCII0dzP0UEQuEfOos9bEc1N/7+oLjqwYR30QqhcF/8XXa4aqRBQCPwhBBRBiGbgo4MgRHOTVHUKAYWAQkAhoBD4bgQUQfhuyKK+QRGEaAZUVacQUAgoBBQCfwQBRRCiGXZDCMLN6w9FlTFBApNofrqqjqcW3N28kCmr7V+7RcNcHDxN8T1bSAwUpXIlT43oK1Tq5FFWXT0Hfff8zN8ZEEtRrQyZlUT1z+Co7lUI/G0IxEiCQGW+jatPihRx41alo3UvWh9B4KmF6qWGYfSUlshXMOMvGQ+csDWnDn7JAyKolKcHpozdIrkMJs1pD4tfkGTpwuk7KFgsizydgkZUXGzWpuxXraER7d52LuYs76ZVvSQeTErFwE+W2ZN3iLR03u/En7EL1Jho26WSVgI6MnwZ4Pjxwyc5gRK+6NOp4AmTBAlNESeOkfbWq64e2LL+FMZOaSm/rV12BFs3nJajm1TV1C2Uruapjmp1Cv1w9x8/fF3ULJu2LqO3jsP7L2Pl4kNYvW2AXEuRLOpV1G1c/Jv7vV+9w4bVx79ps76HXDznhnyFMn4XqdJXp/q7QkAhEDUCMZIgUEHQLm1ykTe+ec0ToyeHTbpRFZ7zpxgQdfmjKvoIwn03Lzl6Z58hpRgsyj6zUOqXK0u2i8frSCRevXiLlDaW2qOKvJZH++wzphTVwaePX4cdLUxpBtabzcEOXs98QDnnFu3KI7FZfCRL/q0CIOv3euojxIiiUfYZrEVoicmKGOFvbWsphu29r7+0lXkjSACoCxCRwXvj7Ydtm85IeytVz4/sDmng7f0eH/3C8kZQ4pgyyTz+6HH/uRwZpIjRly9B0v737z7KO/L5qe2SRQgv4zbHj9iAwaMbyd957HHDymOoWC2fHKekzDOPYD7yeCm5GrJkTy3X0SDNnbYbmbPaCiFIn8kaYwavReHiWQRbPo/HTF++eIvkKczl3nt3nsl1sWPFwn13L4QEh4b9d+xYGNxrOXoPqiMG/PUrX7mfOSse3HsuR09tUyeV97h4/h4O7XVF604VYW1rIUdOWV48f4vtG06jc6/qchSVmJpbJJK+Z34L/jZz0nZ5L44R1s9+J/Exs0iIlNYWUg+fSfGoHRtPY/CYJlrM6Glo12ga5q7oJiSN70XsmD9DIxRF8vLgnhd47JP1kTDzGvaBj/d7McIuZ+7igftzlK+SR57LccS2GRnHlnY+efQaSZMlkXt5D71hmr7j0Vj+tmvreVG1lPbyme7P5d9b15+UNnOMU6mS+NukSirYu91+Ku3muOTYoIw3y+TRm0U6m33Awhwbly/eF7GuuHGj/ib1fdvq7woBhUDECMRIgkAoaJwoukMVwYEjGkY6Pjhp8X/d28/D6EktxUBqJqmIbtJHEJYvdMbBXRcxclILZMxigwkjN4Kzs+eDl0hslkDO93MC37n5rBi9+3efYdmmPqCi4bih6yW/Ao0jSc2hfa6YPn6bqEFy1dmtXy3s2HQGri73kStvOuTMY48KVfN+00xO7l3bzBXJ6FvXHqH3kDqSwbC/42LJ9XDp/D0s39wX795+BEWlRk5sjrXLj4pR1RgZ3UqJIY8mUrshdVorEX66cukBVi8+LAaF70XFw+tXPXH5gju+BIWgdHkH2WbhajMg4IsQCb93/nCa0SZMWyFcoQGbPHoT+o9ooCUIPdvPQ/ZcdmKMZy3uIsRjw6pjOHX8FjbvGyrXHXW+iuULDoq73SaVpeTAIEGgwaUqJjUxxs9oK0a514A6CAkNRZl8/bDnxBgc3OuKC6fv4ktQsGT9ZN+QIDDnBeWlK1bPJ0qUTP7FPnnxzAcde1aT8bFq8WEx4Hny24vqZdr0YXLeY4euQ8WqeZG/cCZJDEWD3rBZSSExhYplxpNHr7Bx9QnYp08pfdKqYwWcOHIDZ47fRKIkpujWt5YWmfv3vLBp9fGvCALH9BUXdyEgLL06LhADTLEpGmsKag3ts1wShfH+kROaU8YCp4/dlGeNHLAaNesXxkuvt6KTkc0hDW5df4Sp8zvg/Om7MLNIgMLFsqJHh/no0LWKkAaOQ5KiibPbadtG+ezN605pCcKi2XvhftdLNDGo2zF2WmtQspsaFyS3jn1qiNImc3pQJ4RtS58hJYaOC5P4nua0DT0H1tZ+exxzbOvcFV2RMXPMPA6sjJpC4FcjEGMJAnMRXL7ojuTJzdCiQ/lIXZfnTt+R1dSxQ9fEGGR1SCMJlSIr+ggC79PNxTB13BZ07lldDGy12oXAc/7GcYxlIqRRGtZ3Jeo3LYG9Oy6gTIVcKFQsixizpq3KyIqcUsucJNOkTa5tkj4XNgnC4J7LhARcdnGHj48fylfKgwtn74rI0JZ1p9FncF1RbZw0ehM69agmBpGiQnxmRGXLulOIn9AEVXQUGYf3W4mqtQtKUiSWvo6LMGBEQ1n9MglUs9ZlhEhw5UoVRue9rpLfIbJU1bpbJzTIKxc5o+fAOti05iQCAz+jedtyIpzUr+tizF7qqG3mzIk74JAnLUqXzym/kSAULZVN8CRWJFbzpu/6hiC0bjBV6qEwFbdO0qRLLgSBgk9sb8PmJaW+5nUmoUrN/OLd4Uq6TeeK8HB/jo1rTmDQqDCPBws9AX26LMLSDb1lyyMigsB02lSDrNek+FeGz/P+Cxw+cPkrSeyICMKiOftQp2FRbfwB35V5NI4fvgbXC+6S28LlrBuee73BxbN3pX+o2Dlx1Cbpc+b5GDWphXg/3O4+RY/+tbF+5THJo8HEV+EJAgkEc1swaVhUBIFYTprdDkFBQUI6HXvXECwr1cgnSbLooRoypjGuX/HEykWHMH5m6688A+G3zegFe/jghSQAU8dVf7WZUPXHVARiJEFgFkcmF2IwV6ViQ7Dr6Ci9e/bd2s7FmClhHoSoyvcShMhyMdAIlSrnIKuk2g2LYu/2C6hQNR/yFcqAudN2SVZCrrRJELja1S3MYcCVcmRBcCQIIweswtINfWRCfvzoFXLmTodZk3agx4BamD99D+o0LgYaq51bziKltaWoO9KARFZnRARh7JB1sgetWT2TIAwc2UjczXyHZm3K4MbVhyJfnS1nGhzY44pGzUtGShB035EEgaSKK2pKJnMl3qJdxASB70VDVrZSWGZLGs3iZXKgZNkcmOa0VVavJCzd+tQUb0HlooMF09b1p2DOim4iRc3tC6pa0qjlzmcv7u2xU1pJYq0urWZj0OhGiBcvLuLGMxYVRxr0dSuPidHTFBICbiuR+LHs3eGCNz7vJY5i8tgtKFsxl2DOrZRa9Ytot0l4rSEEgS57eln6DW+gNZpTxm6WscCEV+zDzj2qoWmtCZi2oCOuXnoA29RWEo9BHEgymaqbEtUHdl3EfffnQgo3rzmF7Lnt8NjzlcQ2ELtOLWahR/9agqtBBKH+FEye2162z5bNP4BOPauD5JiEJSQ4RHDk1gLHI7Od0gsVVaHa5oUzd1G0RFZJ/a2KQkAhEP0IxEiCQB1+z/vPERwSKis+5jWIatuAsDOLYJ2GxWS/+2cIwvwZeyTDIfdWq9QsIBN3RLkYOHkbxTHC65e+4gbm/u3aZUclK2K8eMbo2KMajh68KivgBk1LoHXniloZYbrUGYtAV7Am34RumyMiCAULZ8aEURskHoHP7tijqhgrbm1Qbrj34LriFo+shCcITNK0cOZeec+6TYqLKiQNJFUiuWVTuFgW2a//GYIwZshapE5jJZLJTBDFmIH1K4+Lu5ypqes3LS4G8OzJW2DgXlr7lOjev5YQBHF1GxlJv9NIHdh9EccPXUdWh9RYsdAZe46PwTHna0IE2F5u45BgkCDQa8E6GVvRrW9N2RJgjgoqPNZqUETyX1AWemifFUhhYyFbCNyfnzFxO7r0qq6VnCa2zH7JVNqMCaHXgJjv3+UiuS24aid5cN7ninMn78j2Q5GS2aS/XV3cpX1Mxc3cFHS/k8xxK6Z2g6LabgpPENjenu3niycsMOAzSpRxEILAeob3W4WxU1vJNhIJwoE9l4Q0MG6CsR/PnvpgzuQdyJE7Hc6fuiPbPYxx4Di8e+sJKtfMjzadKoFBi2zffbdnyF84M5q1LYPtG8/A7fYT8WzQ0zJiQjMsmbtftigox12lVgEJ2uW2A3FlDAa3OiKTAGe/TBy5EWt3Doz0muifLlWNCoGYhUCMJAjs4g8fAhAaEir7s9FZDPEg6Hvewb2XJBCMAVicIDWrdq4Q6aLlSlVfCVMcjCV7vIYWqgvS/a+Jnv+eY3iGPoNBjzTK3AOPjsL9am6i63MzR6TAyO0IzckGtoX76PxvXbLI9hIHfXkkPn0KlL4K/14MQmRsxOfAICGZrTtV+MoLQ8yDg4n5t3iwzYb2AVfh9NAMc2oWZbZRvifr5ViKzPjq9gu9bAyg1bSD8TEE/Ef6j3WFX+3To0C8DWmLbrt2bjmHF14+6Ni9WnQMI1WHQkAhEAECMZYg/KrREB0EgXurceIZw8Y26a9qpqpXIfB/jQDjIXhqJKJTOv/XL6YarxD4ixBQBCGaOyM6CEI0N0lVpxBQCCgEFAIKge9GQBGE74Ys6hsUQYhmQFV1CgGFgEJAIfBHEFAEIZphVwQhmgFV1SkEFAIKAYXAH0FAEYRoht0QgkBNBUaom5kniOanf191VKtj9Dmj1iPTHvi+Gv9bV1NngMFzVH38fykUZ+JxQR7N/BsLxxz1IDS6HffuPIVVcjO9gZV/6l0Y/EnF0tQ6OiN/qi3hn/vxQ4AoVkamPvo72+nx4DnS2af8nY9Uz/oNCMRYgkBpWyrEacRzogtrfQSBUev9HBehfbcqchzuVxS3O0/lWKG+QhEknmtv2qbsD+VOoDYEj/xREpiFJyCmjd+K/sPC1A5/ZeExQh7xfOT5CiMnxLPXFwAAIABJREFUNEOqSCSaI2sDJZ+Z+IgR+pEVnrNftuCgCPxElduCJxWoGnj31mPpU2pURHd54fVGBIWYj4BlydwDqFGv0DdBelvWn0Sq1MlQsGiYOBVPYTCHRYmyDvLfNM4DeyzF8k19v7uJPLa4Z4cLeg6orfde6hmkS5/iG+JJlU4ejaxaK0xsjAqdufLai55CVIVENnO2X/O98AgmhaR4xLRF+/JfNePEkesiOV69blhei/WrjsHt1lOR3g6fBySq9j9/9gZxTeLAMhpzlPC4NMdviTI5Inw0j4zeuPYQw8Y1EWGv7yk8dssj4JTj1ldIUnhCh6JaERWqvd66/lAE33h89XsKJcJ5hDiDHrVMnpCh4iilwVWJPgRiJEHgMa9+jovRpHVp5MmfwSA0Ke7SsEUpvRkY9REETpCctHPmSSdR2IzG5nFEE9M4kkcgR660IsoTHBQCT4/nSJ/RRjL/sdCoPX30GnkKZpBjkHduPhaJX0oWs94S5XKItj3P/FPelzkUIlv9EoOB3Zei16C6SGFtHikGlCTmZJ8pi43kLuB91EkgsXAasQFDxzVBhky2uHHVQ47C0VCOntQiwvookHTtioccSeR78v9pXCnhy2OEeQtmiPRYHzFxvXAPadOnhI2tpdTPzI1D+qxAp+5VYWcfJmXMc/U8I09jwjwDNKqPH76S/BVXLj4Q3ClLvXndSRQvnQMpUprLtZEdJ6SAUM16hUWxL7Jy6tgNLJy5D+0cKyF5SnPJZcG+SWljIc8muXDInU4MI7F0yJ1W8j5I3giEHdHkdcSEqpIRFYp7Xb3kIWOWheJP5SrnkXchbsSPY4DHBnPkTovEicPqobdq3JC1GD+zHVLZJZW8El1azhLVQx71pXGmHgJxY/9yjDE3hLlFQslVcv3yAzEu8k63nmDb+lMYMraJKH6SYJlbJgK9AF7P3ggpYQI05rKYPmEbKlfPJ/3F99UUGi0qXhIbZjXl0VKHPOlEhIqFJCs4OFRyMdDLxlwPHNPULqFyZboMKUXZktoMN68+FLVPekuo7cHkUvz7NVcPUYckrrFiA+6SW8NGpLVZaKz47tRd0IxBvtupIzfQqee/xyZJeFvVm4wp8zrAKpkZrl/1wNDeK9BjYG3Y2FgiW047+VYvnnWDdSpLrQw5sbx+2QOZsqUSAse+ZWKxxOYJ4JArrfQzjR7HBT13N656SruZEZNEgpLTp47eQP5CGQXfq64P8OVz0DfJqiio1b5rFXl/LjwuXbgn4ml897DvIwQDey5F8zZlBWMWypq7nLkDO3vm+bASvQ6qmdIL8cjzpbSHR78p4sW2U8eEpJdCVrevP8br174oVDTLV8eD2Q4utKjyyvmBY5zjMN8/3zOP1LL/KIhWo15haQexJW5JzBPKM9j+86fvyPfI+fH1q3fyHtQ0oZotNWiYoZXfx7MnPjLfcOxSjp6F3hTKlfcfXl871jiWKeNN0mDocWGDjEEMuihGEoTbNx+LPj+V4GikOSFGVjhRUciFqy7K5vJj1CTeiegefQRh/66LkmRo0OjG2lwMnHxpdPmRcjKlgNPJw9eRIYsNTh65gZlLuuDGFU9sXX9KjMHtG49lkqYYzeiBa1CtdgE5a1+3cTGcPHYTRw9cRakKDkifwTpScSNO8GuWHcXw8U2FbERWqHbH/AxXXO6LuM25U3fAd+DHSSlhavRzUjuw+5KsAo8cvIrlG/tEWN3Jozek7cx/wMmEk8qUcVtEm59EgQamWKns39zLyXFQz2Vi+A7suoQJs9poXdScADt1CyMInJgH9VgmEwJX/z0H1ZEkRaMGrkZ2BzuRiaZRpSGhdDUnTRo5CiBFJpS1cdVxBAR+EXltGqaICiWfd2+7gLpNisnRVBpUJswi+eMqOkeudJJnYdSgNShWMptgOHJSc1GsTJYiCS6ccZNUyex/kpGICie7e7efiTQxCxUTKclN0SwKC02Y2VaEjfjedRsV0xoEyhbTC9KpZ1XkzpteJtiWdSdJEqm7t5+gZFkHkZCm5HaDZiVFapkiVkx2RTluCk7dvv4IfYfVF6EkEoRipbPjzPFb8huNG7HMlsMOL56/EdnwE4evYen8gyhYJJOQV01WSeIxZ+ou8cjQaNAIUlCL8toZ//F4Na7uJN4F5u2gFLdVCjOcPHIdh/ZfRtmKuVG4eFYxIpSj5nih0BiloR8+eIk1yw7D3/8zrG0sRXiJwkwkhcwPQlEpSlxTTpzPNTI2knFPZUnEgmBx3PnaVwSB39euLeekfho8qpnOn7FbPAf0WHHlPrT3cjHovL9R89Ii/kVxKhr8PdsuYM4yRzx+9FpypNB4Z8kRJtVO+eo8BdIja/Y06Nh8FvoPqyekiLLgufOTtH1BrQZFpa00ltTn4HdAoS8aOw1p4jzAscsEdDSSFFSrVC2fNgdL/25LBEeOdf7dsfUcVK1ZAGdO3pJ8HcxPMm3cVnk/bnly7HI+3LfjAswsEyJTllTyfdB7RKG2nPlYTyDadakk45Btoydx9db+4s2gCiYzgbJNlBOnh5Fl/arjSBA/nhAEkgN6/zjvUZKcc0HFanmxYuEhEeyiGB2T1nF+YMIvekFKlsuBMuVzCQHv33WxfMf0lFL4i4VEbdOaE2ip4wEiKSFpZubciPK7xCA7/8OvGiMJAhMEMfHOZZf7SGVnJSuVyAonJirFcVVCpstrm7aJPAWuPoLA5+jmYmASmk49qoqrlRMjlQbJ1rkS4wQ0etBaVK9TELu3X0D1OoWQJ396kSlu0LSkfEiUWmZOBY2XQYzHmM3oN+xfJh3Ru61acgiXLrhj+oKOoigYWaEbk6v+W9ceYtqCTli34pgoA5pbJkSLOpMwbHxTrFp8BHUbFZWVEY0gJakjKlzlUSWQkxgnHuYs4Ed9eN8V8X4wL4B5BFLWFLRy3u8q8RIuZ9xENVCj6qhLEM6cvI05U3bKyovPIK5sU+/OC1C/SQkxLprCfABULuRKOarC/BDbN50RtzrluSMqzCMwoPtSzF/ZTftn5k24ee2RkFBO6KeP35SEXM3blhVilj1nGpw+fkuSWNGA0zjzHrYzosK9cBpVzZbIzInb5R5O6o1rjMfaHQOF7FJ2mjElmhUjs1k2rO6EIxcmSrV0HXdtOxdb9g8VYseVItU2wxMEriw5AVP5kcSLxvSe2zNMGLFBxt2UuR3kecwV8vnzF1md0yMya0lYDgwSNfYviQ8LdbtmTNwmBJD9oyl075NYaghC704LMWFWWzH8Pq/fScpoFq5SKdNN4S+OA3p26Pmht4jjjUSEBMHaNqnk2GDZvfUckltbyNZBh6YzMGlOO5H53r3tvOAQGBiEMZNbILZR7AgJwpypO8UtTm8PC/GvU2EU1u8aLBhw26dt42nyPG5ZliidQxJ4MUEYSRUNJckFvVbE2cIyoXYM0iUfniDQ20JlTYppMUaDhGBA9yWySuYYoqT1/FXdxXvH74wS7JRIZ6GHic+7d/upeDY0WTR1CQLJHNU9SQpJkstVyiPql0wb7vXERyTHNUSZHo/UaZNJ21moPMu5iB4bbrekSx+2rbh/90VZnDABGYuMqZ0X4On+As+eemPF5n7yuy5B8H37UbyXTFZHDyjJEPuGnijOg8PHN9MKnzEOaNfWc+g9qK52zAzotgSJEsdH+ap5tHleOL44DklKNIXbDvSYROaVi/BDUz9+hUCMJAjjh28QEB49fIWEiUxk7yxVGqsoh8bvzcUQG58DvqByzQKyQmnZoQL27XSR7ZASZXNgxoRtknmPKZ8jysXADJGURo5K/Y8uPX5ofYfV006A4QFgQh8aBCb74Z53557VxIvBrI6ULW5Sc4Ks5retPy3Jj/IVyoRhfVaISzaiMnLgaknmRDU+rkj4XlwZ081LQ8GJhiuk8IWSxDTAc5c5YsHMvUIkCvwj+6xLEOiK5fZKv2ENRKI6pa2FGDYShK59amonNda/dP4BlK+cR2+A1/TxW1G5RoEo978jIwicLOlOZyHxozwxJayZ+IpG2XmPK9p3qyzSzjREh/ZfQf0mYQZRX6Fnp3rdwkiaNDHaNZmO9bsHyeQYniBwi6hepTHYf3qc/J2GsVPzmVi/e7C4lOlxoMHgHjz330cOXCN9xL44efS6yFBzJc4VMQnO3Kk7RZqZSookWGyHQx57Wc3TYGpiX4b0Xo7GLUtr3d3EiARh2LimX7l7wxMEJtpymt5avCyMlyAuLDSczOxIA8bcIZTtbta6rAQQMh6AKZ+5KieJI4lmIRGgh4hkqWOzGRg/sw3GDd2AitXyyJYDvYjMisrxF96DQDIwixk+dQxTeIJAT1jvzosweU57WZ1zLqHxWzxnn6ycuZ1CkkRvG71ubDvzqZDkcHVrbWMhMtst602B0/RWsh3D92T2VBautEnASHSZCO3Fs7dCpkj6Zk/ZgTFTWsl13KZp1WAKRk5shgduz8WTw60HFl2CQK8DPU8T5rTHW6YPN08gXjESBO510QOpKSQ0/Duzf7Kw//z8/MWTuXyBMzbuHSK/k6iyffFMwtRdubVEb5mxkRFmT9mJVVv7y++6BMHv/SeMH74evYbUQ8CnQCEIJLUkCFyM6W7z0DvGfh04sqGMG25h8LcPHz5h3tTdQpgiK6yPadhJglT5MQRiJEHggGRaX64w6NalpDEnxKgKV5I0zjTKURV9HoTu7ebB7dYTWCZLgsYtS4mrMKJcDFwZPbjnBZvUVhJkxBUKJxxORPxoSRCYQY/po+k6pqHWZFpkdsNdW8+iUvX8UQZScRJv0qpMpAFi3Jvu3n6+TL6Jk5ii//AGeOH1FiP6rxK3NCdnbjvEN42HoX1XIHGSBPIB62ZS1MVq3Yqj4ipOY5cC9hlSoHm7ctIH2zedFdLA1SrJR/jCtNOdW82W7R0zi4TioqUrlKsQuiS5V9q6YwUJxKN7lxOIZdJEkjmSqy7mXqA7k+SDkzULU0TPnrwDmbOlxgAmNzL+tv/puRg7bJ24421TRa5qGZ4gMLHS6MFrwImwVPmckh6a8RJcBT957C17v9yuWjBj7w8TBJJETthut56hap2CqNuwKPp1XSL5GuKZxEGp8rnEO8GtG678SMRadiiPLNlSo13jachTIIMQhMGjG0s8wOCeywUDGkt6JrjKpxufpCCtfXL0H9FQcOUWQ+8h9SSNNFepaeySyWqW31S5KnkkTwQLtwWWzDsgrvhxU1vJVgTrqvFPsB9jCyaO3ITbNx/B1DQeCpfIKjhFRhDGDF4j+8ldeteQvfgJIzfA6+kbWNtaYNCoxuKhYX+axjeRZ5C8REQQjhy4KtsGpSrklGyQJAjcDiI5Y5s4lpas7yUejJcvfCUzpqaEJwgc60zrzb1zenYkYVfcOBjcexnixzeRb7Vzr2oy5vgtM9U305qPn94G7ve8MLjHMklS5v3yneS18PR4ielO28Qb0qpjeXlPusiZSIzbIHUbFZftgVPHb4o3g8ncWPhvzg3cwuGzTOPHFYLAlNyMhbG0TIxGLUoKsabRpreB3zTnFRr2rq3nyPfHoFdN4CXHC+vkCRMaZ3qRxg1bL0Qif+GMaOdYGW/ffsDSuQfQZ8i/Sdy42if5yZYjjXigSBD4nd69/RRGsWOhbOXcstCgVDb/Z2wUG9361ZQYHcdWsyWWheSfcR7cFiBJYrwYPQ2DRjVExiypJNEciS9jrIY7NYt0OmZmUxamJVflxxCIkQThx6Ay7C59BMGQWjS5GLgqk0CrfxIqcLIXN7MBeQwMycXAiYIGm25tGtCICp/HlY9ukA+9D6xfN/8BExUZGX19XUT1ffkSJO3XzTPA30jQ9OVTYNAVkyzpCzjifiTdsIaUqPIdcP+Tq0RmidT3TIOexb3SjwFRxrAYUo/uNZxADcljEP49OZboltVgzn7mb7pji38PCAgUAx5V4X1014fHXDf/BeNPuNJnfMCPFo473VgRrpxpDL+3bwzBjEaOBlgTBBdVm5nTgzkmNG1jO4mJ7reruV+3H9gOtl3vuA/XN0wqxvTlPM6qW2jkNXlUomovgwDpXTQEN9328r3oxtcski6ecxOCoRuEyueyfnqr9OUSCXt/jsHItzg176Hb96yXfc9YsMhyzfD6Ef1WygmtX3X65UfH8f/TfYogRHNvRQdBeOP9XoKoojpaF83NVtUpBBQCCoH/DAIkt75v/OSUhL5Mvf+Zl/4FL6IIQjSDGh0EIZqbpKpTCCgEFAIKAYXAdyOgCMJ3Qxb1DYogRDOgqjqFgEJAIaAQ+CMIKIIQzbArghDNgKrqFAIKAYWAQuCPIKAIQjTDbghB4Nn/0hVyfaVdEM3NMKg6/48BcDnnJpHPZhHoDxhUyV9+UZgSpAcKF8sq0f3/D4VHNE8dv4XaDYoYFEj2J96JxyIZbc5AMepb3LzmKcdB/8bC4Faq8RUtmfWvxJNaI0VKZjM4sPZXYcyjuBQoMkRe+Ve1QdX7dyEQIwkCNQWovMbglYxZbbXCKtHRNfoIAiNwl847IEcQqbr2KwojxiPTZ9d9Ho9dUUaV4i6UQY2oUP6VR6MoI0zxFgoQ0ThQWIXn0iOLIo6oLp5WoABLnUZh562pwrZz81nRLGBkNEVteBZbV+zkZ/HhEcQdm85KUpteg8JU3SIrt248wp5t50VymEflops0ffL/LEe0xk5rLdHmPDrr++YDGjQv+VWTHnu+kqNslBbWnFCgXkGGTDawSBoWuU6xr9oNimrlg78Hp35dF6HnwLpayerI7qVEMCPS+VzdQkGkSWM2Y/aSLiIyRJ0KHsej7kFkhRHr+3de1OY0+J72GnItx6Xz3ktCVpymt/nqFh5n3LH5rFbVj8cSXc7ehW0aK1SrVVBOIBhSeAySRyd5NDi6Cs/qz5i4HXOWdf0mmI5zhQiVXfYQjQTdI5eGPJ/f7sXzbtq8F1HdQ8VRCqwNd2oqAdLRWfjdUzFTI2D1PXV7v34v8tsRKazq1kMVSipX8nirKtGHQIwkCJJXoXmpMPnNWDBoVTFiwCr0GVxPryqXPoLAY4VU+CpaMjuSmMWXhFEsVGbjmWVqHFDKlB/V7RsPkTOvvcj3snCVxmx9lJzlCQeXs26ij0DxlMP7LqNO42Kiq04jR1VGSiRnzZ46wtHCyYfiQ30G1xX50sjKmRO3cHj/ZVHE050YmeiJao2ao1I8Mnnj6kOROebxK7aDbaNxoZ46pVQpn7t07n607VJZ2za2gx4VyhFnyR6WE4GTWt4CGeUc+aULYR4O97tecnSMx5co1MPC3AYnDl0XHQtNLoaI3oNqbNSMoKpdZIXy26sWHRJNfWLGI6ZM/kKFQGJNbX2K9vBI26F9rkiekiI3mfDy+RvRNmB/mZsnkiNrGvXA8M+iLkK1kkPhfH6CkCBK93p7v5f+tU2TVMgajTK17M3MEoikMd+Xkr8Uo6I2PY8KMocA1TQpcPTk8at/pKJjgzkhqI7HI4vsD6pIcuI/uMdVRKOK/KMk2bX1bAwY1UjGHI0ItREooET5ZApe8cgrDe7BPZdEiS5vgfSiv6/xwFCMicJJ7BeOWV7LMUTtBI0Wf6rUSXHyn/ZQ3//IwStYufCQaF9QuyCbg51gdnD3JTlKyDP/7N99Oy8inX0K+Pp+lPHDo4Ye7i/kPLzvWz+Ur5JXxgjP6btecBdtEo3SIQ34jIk75Hy/bqEYE3EjHsz7QWnoHLns5D0LFs0ihvn4oWvSdsoKa8b0sUNXERoCkZumkuXu7eexcqEzuvatJWOVBJL5GYoUzyZk93NgkGBKAkKtC+o+cI6hKBZJyvkzd1GqXM6vcp9wsUAyzzEj2F32xEOPFyhdMZc2nwY1FFxd7qNBszCNCSoschHAdhYvk0Paxr5PlCS+EM9HHq9Ek4KiZjwS2bR1GcGXqqHUEzi41xUOuey+SuBEPRGqxWqEqajP4nrRHaUpb5zCTNpGEshxwoRLlH7muKRKIfuheOnssEmVVPrw6MFroHeSugsci4f2uopQVM36RSSxG8cODfqR/VdhncpCq2RLLw+/H5Jmeljf+LzHoX2XRfG2co38yFswPSwsE4v40ekTN2X8a3LNRJSLgRooFE/jvKVOMvwYaYiRBGHiqI2iIMZBRWOjke2NCMJ37z7C752/KJxRHY2TEcVOIiv6CAIFkBbO2INeg+uK1OjEkRuRr3Am0YHn2WYzyQsRNlEw7wJzAXDFSTJAglCkRDZZVfQdWk+Ea/p2WSTSzxQR4iR++9ZjMSaUYeXES4WyiApX1fx4Bo5qGKX4EzXeOWmuWOAsQjCaFa0uQXC7/VQklCllTJlZigCxbZTD5QdMAsMJinkYaNgoiJMipYVM2ixCEHKnQ5Z/svVRCZISxSQnr1+9F1li4k+df2rp00CSSFHFjRPh7i3n0K5r5UhVEelF4OqIfc2JJjISQUVDenVoSEjMKO6zfkWYZn7qNFbiBqa4DydDisDwLDn78KgzPSre8vcrl+5jxsLOET6D5ILKgwNGNhQcSRBOHL0hst/bNpwRYSOKv1w67w5mZVy6oY8QBE50xIgGOUNma2TPmVbqoUeH2gMHdl/EmKmt0LrhVOw6Mkp09SmkRGEr9hPJzp2bT5Ajtx2KlsgGx9azUa12IVlFU4+fZcmc/ShXOTcoskVPi0zs+y7j48cAFCqaWZ6tWWlPGbsFXfvWkHFDQkODSCPBBFAaYSZixjroMVq0tidcztzFwtn7RFwpWXJzkTgfO3gtylfNKzLeFGti7gGSj1NHb6JQicywtrYUgkaBqTadKkriKZImrkQ3rj4uIkyH9riK1j5LRASB2gDD+60UsR8SPeY8oUAP8x2QIPC9qL5JkS8Kg5GA81pmcaRAF8WAmPiK+SRIDOfP3CPCWvyu6F3hWJ2/srsIb1Ezg/huWX8K1Ajgd0MhNs41KxcfEm+F8z5XUafUqJxS2Kvv0DBZdB9vP3kGRb64cNDkMQhPENYsPYLEZvGFKJBk1W1cQlbZHBPEhjLIuQukFxGyA7tdxftHISKSh/qVx4ooEz0XnCM0+UV4b426hYWocK7ZtvH0/9g7C6g6kqeLV9zd3d3d3d3dPRB3IRAjHuIhQtyJu7u7u7sR4q7f+dXLsMA+8iDL7j/5Mn3Ong3w3kxPdU/Xrarue6VspZxycN8Fsetgee9u33ikc465ONbNXomfEE6D2pn3vu+Q+pphgdAKMAuoI2AAzJAphIALe/COrXDfr6WMXVtPS7HSmRU41a4wWDUezp+9owAmfebECnDInlWqkUevCShDl4XsGsC/+ncqbsZi64YT+i4ZjfnLGgdBWmBmJX/O1f6e3/ojAcKZUzckbbpE4uHxQhpUGSabDwzxM4sApev6lYd1MuLscHQt2/nNzGULIDBNvGsxjBm64u9MisGDScQIYZRdDvaykmWzqmgJLwUvCXTDpBvhwodq2X29gw+VSf9oMRANrV56UFxntfWTeImzxJ1aT1aedShQYU0kGqR5Bwhzp2/Vv5M5ID2+ZKOjfganTp8NDQNS7B1auKrD8N58AwSoXxE5OrD7vDRrU0YXsxmTNsnoKa2VaQ0wgiBR64bjJX6CaEotW6dRUR+Lg/frE81AlV27QWF1SH410vaQqhCZ0CBcgmoZtkEaDgCaWWisiRgRMyIiJq0NIKpUPbfMmLRZRk1u5a/VAIDw8uVbTc2T9YEJE6dClObYdZYCBKPRNwRqDGnt8SNWaURJVFiz3CAZ52YnbZu7/g0gWJsLTWqOlLu3nsiw8c2UUZEMAOyYiCDB0Q8LH1Evjh8GPe8SvUTCK0jX96jqVV4CwJChMQDCQIcF6ixwXtA8o10ASyMiOzgWGtkB3gOALXaGwZD5RfaEaLNHX4tkOBkKgBvXpj9ExzXqFxD3Obvk0IFL8uCupxftrzWAgKPnmoaoD9fkeiXLZ/MiberbY668fP5Gwc3Fc3dl0/7BSudMtgA1UAIImAOhkoZZdPF3mmGYKH0DhJJlsym4ADAxT2g4R4AXIIixne7eRYHdtcv3ZM+Oc8qKSoONcprrBnX2wYIHlzFTWuvvfQME5rJBO4zTRyOFhm7DgOGNvDI92A42wdHf/04WwKnbHHX0FarnkcrV86ruC5TWvTvN1PeSCB4q8ERJYvoYd6jJKYsCCKD2dnCuoyyKgAy0LkYAdByqaxDQscUkzURBK46iKroeiID1cf4rs4PTX7vioGYGy1fNpQyObZtOEBfXVgrMyWDUaVxE113fWgwI57G3CJEvgIVfjfULNrAgQYP46300P/R3C/yRAGHpgt2aqmSSIQ6zbKOj1lJ/1P5rLQbPxy+lWt0CqpfQrmtl2bj2iPLKwys+fMASse9YXiM6a1oMUKR27AVVqUVC11pTLYb20zQTYaRofX8O3vVFc3dq1E16kajdyLZ4BwgsiDiWStXzamkhf2ELf7uzwwJNbyZJbpFiZgHEjoPHNFXHYDTfAIEFEQppBKjadaus8ryAjdnLuqu6JRmB0hWyy+Rxa6Vt50oC4COywcFZaywyKC4a3PV+2cQaQJg6bp106GHRuadEgMOF8hUBK2qegCfU+n4WIBCZ9R5YR2mC8xfOoFTT1gACi3aufKkkU1YLVfTw/ovVyeFYoe92W9BR6lUeJgtW9dTsBpEZGQSivG59agj7K4iyUGq0azRWajcsIkvm7Va5bqJsIkacIOlcSh1kMogkAWdkqAyHRPTGzxky/SXh7BsgMO4I7hBBVis1QAECjqxrWzd1EowrwIP9GA7O9VQXgEwF0TzOHEVA6MdpODnGbui4vwBC5hzJFLQjagSNtAHIfAMEAAoOESpf7wyOvgECVMY4P5w2cwknX76wkzi7NNIsI33ANk88XkiLumPUxoA5QE5XezeZMq+DLFu4V5U5DYBAVs0IJMguQAXdql05LUnkyJVKnRYUx2RrjJKU+9xdmgpnDpBtGTjCkhnxDRDI4JC+pwyFIBI5fBtwAAAgAElEQVQZNRqZErQuDEEvsiGD+ixQ6mgYMmEfpB8odY4eslzqNSki2XKl1D1RyVLFlcLfgTH7NdARaWZfSveNAFoBbQRIUJO3rDdaXGe314wFgQogk0wImREcO6Uonh9Qv2htbwWAzg7ztfQTOkwoHXsAKRlJgBMg1y+AAHU4oNzQ4QDEMUdjxYksLs7LZPTU1n4Gd5QqASzeFR5NEBAwC/yRAIEFaLDTItWgH+jSSJKn9LkJy5oJqbeRev6RABLfs5VBaFB1uMCUSIqZl4JItFGrEloWIEJE2vTbt69aD8R5sFehM7LFr9+pQh4pXZwutULkgskExIgRSSbPbe9F4Yv0MqI6pEWNhdbaMyGehDQsTt8a3SvCK0j2UtagBr9hzVGtuxO9fvjwUUKECKGLKDX73p1nqpPEcTduWVKQGSYTQBqaFJ8BGkh7siCVrZzLawFFCjdtxsSS0kv575vUqzxUU561GxbWiGLSmLVaB6XkM3pSa3VgLEBs9GPhAnRYoxxGA2HH1lOaWjZSuX69IpRT2DNhCNS0qjdGHj58rmCm/4iGqsdACniiy2qJFiOSDBnTRK6hWnfniY4LQApJXOdRFhEdW42+X7l0V3ZtOyvU7CkTkIlB7Id6NjS2K7Y46QKIgiH7YNA+AOiQsn5wz1OOH7mmDrB46SyqCkm9nTQ+Y9G+W2W93uihyxRIjJtmL+HCh9FInvT1kycv5Pihq+rwKf2wBwGVzf4jGij9LQ6xb/e58vrlWxk91U4dzLAB7jL+u2Ijzzdl/DpZt+Kwak2w52XynA7qONifAkBoXH2ETF3QSWvx7GlALrlEmWyqHMi+BNdRa7SejV4D+0gaVRuhY0xKvI9zHX0O5NGdhjZQkEq2hoizdcNxEkSCqFNmUyIp7nHDV2ranVo8gkcIdQF8sIP3hiIpqfjYcS2Akk2WfTrP0ncAXQGc5tIFe1QkiLo5G3EN0S0ySju2nNYSGI5zkOMCzRaQjk+WMq6m93HUOEGyjUbUTCaQ0zSUawCc7E8Y2t9d3Ob9lU1jHnWxm6r9onyCgigZCsozX75+VYE05hwiagBmQH7v/nUkaYrY0qPddN27wPhOmNlGSwcAP6TO2eRINoKNjog1HT54SQHToO+bZYn+vWsa8L0+XWbKuVO3dFNpizZldJMvWQaeq1mb0lKqXHbVagCooPiI8mWbzhV1nvK5kKGC68/sr+C9XTRnlyyYtU3Xhso18snY4StUkAt1SAASGh4IS6HMiVO/fuW+l5Jn704z5MzJW/rsZFB5JsAPyroEOH41pMURnDL0JWy9j+bf/26BPxIgYAaiC3Yo+oe7PCATxxZA8M+1DC0GIokgQdBisHyLF83C8R44u4zv3fXU+i8AwZbssa1+W5NbtfUdv/5OlAMgcJnUSrMCAAQi6LFudhIkaFD2lXo1xhFg4Bev/NMnr7Q+nDl7Uj8zJQHtJ7V17hdYG5/YZGYrg2X0ETt7PzlCX7yDO470+RaesvRXbAqS+WVLg1MfMPvyxRtJlsL6vpaA2pHP/6wteQ9sCawx9mQmbCm1Gu8WffEOMv26h3eNAf6NqJd/xo/NycY+Dovc9CcVZvLefI+nXzY1Nuz6T4fD55zxrtlAH9jwyUZV743nYi5RgvCae4zXpy8+fmetf/pdX7a09jn/aGL8Ne+/eb3j/llruD9ArWW7clouMdvPWeCPBQg/Zy7b3woMgEDNjhSkLeVI2735PT9x984TjdqN52fTHeljY0PV7/lUZq9NC5gWMC3we1nABAiBPF6BARACuUvm5UwLmBYwLWBawLRAgC1gAoQAm+zHXzABQiAb1LycaQHTAqYFTAv8TyxgAoRANrsJEALZoOblTAuYFjAtYFrgf2KBPxogwDJnnOsPLOv7ByCw45edvP8W1bJ/NzoF1jNzHY4AQgQEO6SxEYvNd+yl8GsDoXH/f9JfmOEYRxjdIMIJ7MYRreDBg+oxMTaGeXq80hMUvhtkO2kzJFJSKJplQ+k3rw2EbAbjyBxcEQFt2BYbsSPbVvPLlhxzZENuytTxtV8rFu/THfWw3/nV2HzHUfLA2ozp/T7MDXbjc+oAwiLfdMccLWTjLGRfAW3suIc63BqFMrTer1+/17nieywePnimDJQ/Qwkc0D769XnGD3vbemf8u8GPUwescdZOKQVWn83r/P+1wB8LEDgyBb1ug2bFbL6MARl+WwCBHbgQAKXNmMhfC35A7m18dvH8XVKznk9+/5+5jn+/w2kIjq/FihVFj7YZmgecneboIse/ftTmzdgmVWvlV5ragDSOw/VoO02q1s4nyVPF0yNmgd04mw55Eke5cNSwN8Id4LvBfMmRO8OhsUsdfghDn+DS+TvKCgd5TEDbupWHlaTJP8e1Fs3eKTXqF/ThEAArowYtk5Ydyqnj5GeY+gAHPzq9grN8+/ajZM+VIqBdtvl5dtKfPn5NjwxWqm5h8PPesHOT1qVsUptbu9HYYculXOXcXkyd3j8DCRGnWj5//CxN7Er7+PqiOTslbYaEesTyf9U4GgzzJUdq/WrQFMOb0c3RQib1o9ah5STp4VhTKcTNZlogoBb4IwECjGgwBEJEgmPxT+Msbo++FrrWHzVbAAEq0iePXyjVbfSYEWXP9jMapRExcJa+SIlMet4cEhbOfENNynFHOPHhiyc6ypIjuXIPQEXMmeFMWZPI/t0XpG6TInq2GO7zYmWy6BEqzgr7bkQV9MMgrEGFL1z4UMq9gFPgPHuBIhn0a9A6v3r1VnUGMmZNKhEihlHhFdjXMmZJoueS4Q+IGTOylKmUUxkBIXOCzATKWY6YQbxTuEQmPUO9e9tpfV40A0KFCi47t57Ws/v8PXXa+Eq6wnlw7oFSYImyWSRMmL8DByLyOW5b9Ww9z835ffq2d+c5XeQBgBDvAMR2bD6pHPSoD8KZADMbhC1JksVS3onqtQv4eXQL1sos2ZJJrvyp9STFsP6LlesBxkhYGbHhhjVH5PGDZ1KwWEa1OfNrzYpDcuzgZSUzgn4XUi7O1pNlCB8htJQsl03JZDhaCL8GPPSMNac30L7gSCHU2YATWDQhE6pYPY+yCRLh8vxwHHz8+EnvC6vmzs0nVcuA8/nMD56dBpPkdNdNypdAhAo3wJtX79UxR4kWQecUETu6DJDslK2YQy5fuqdkRJBbYUe0AYhC9+86J/fueCr9NfMBvYonj59LitTxlcQKAMS8xC5HD12WXHlTKzEPz8/8/fzlqxQrldnrRApzhOdPlSa+1zT1ePxcWfogerp44a68evVOPB4+V2BjaD5A3wtHgtJ450qpWYGNqw9L+PBh5ejhy1KrfiFJlDSWzqOH955K1lzJvY7yQb97/NAVaWrvEyBAQAS45TmnTdygoOX6lQdqT+YxZ/yZ1wDBoiWzSJCgYnkXHj6ThIliKi104qSx9Vgux4djx4uqtNxkn3w3sm3MXd4J3mdsAPX13OnbVKcCKmeor8l4AKIkyDfVYOEkD9kfmCvrNysmyZLHUVpwxo53ieOs8KkYwA8mSxfXlmoLGgAecIEeClk3s5kW+KE/exxKglx/dPfbt5gf/hhLTR67Vm5cfSgRI4dT/n9DXdCaAXDUOHQWDxY/0qEwGvrVbAGE+/c8ZWhfd7HvVMFLiwEyFrQREJ4hSg0aLIjcuemhTnP04GXSs39tjUZ5uYsUz6SLCIs9n4XVDEKSFGniab9wLBARNbUrJeEjhFVed9+NY4Ttm06UwWObyqVzd1SwCjrdvTvOadTl4rxUyY1YvNatOqzkJvOmb1XVwYf3nwnRMA6ud8eZMsK1hTq5IY6LNCKFepVFm37wnTTpE0mGLEkkTtwocoF7ffsmd249kbdvP6hiImndCSNXKWUxnAcsgBDeADK4D2pu3N93w9HhLCePWyfOIxspcCOljPgPCzREUizYcOLjlFKlji9DnBbKoDFNVb+iYfPiytpH+rV63fwSI2Zkq0OKM4FkiHEHIDh0mintulfW+YODHjK2qYIl2N7yFkqrNM0cU8WRrF99WMmg0B6AxIZxa92hnHLZwzoJ4yHn9HFmE0etkdz5Uyv/P3MOpwGYgvYYgHDj6gPxhF62URFJlTa+MtAhCATH/OL5u5VghrGBDZLIm3E31Ci5H3bF0eFkAWBu4zdI41YllDwHpkkyJfUaF5Uxw1dIq7ZlJG6C6MrGCDjkmeLEjaY6EzxX6YrZZUDPedJvREM9iurivERy5E0t6TIkkmQp4yiJDyRXlJd4b+Ys66Z0zvAAwE3AmEOARbMGEFQ3o0BapetdvfSAEh9BbobAGkqsZSrkELhCuAfiX+17VBHIwSg1lSiTVdUR0fuAXAwbA1JGDFgiLpNbKVuiNYAAYyRaDwaxWNHs3ZX6Gd0VMmHQJu/ffV5tDgkYuhEACdYS/sa8S5UugY4NtuX9Qy8CMShKicwJo/GeXDx/RwFjm84VdB4SMADUpoxdq88N4GXOQdAG1wHz58qFe9LVsYayFUIPDXFQhIhh1dGjr9G2SyXV4di/67xqZRB0wIpI0GEENhBazZm+TVUP/VJw/WMcgfmgNi3wR2YQoP3s0qeGfPr4SSoU6Svr9zj70DLwbjUWBRwR0RFRZPqMiX8oWWsLIHBt/2gxRIgQWhkMocotXT6brF5+UGrULaiRBosSoCZcOIsWw9KNjspGZzRbWgwAhN4dZsic5d2VJAVHwIJNetPT46Xs33Neozd49z98+Kyc57DKwQyHYiORMc4XnvrWHcurY6d0cur4NeW5HzGhhUSOGl5mTN4oWbOnULY02uEDl9SWRDuUA1hEaVDzAkiMiKZjy0kaTQM8eMa2XStZncg46UFOC2Xagk5ef+dZvn77posiDcbBgkUyKN2zfePxYtexvIwbsUpZ6g4fuCiRIoWXPAXTKGe8rQZAQICq79AGSvcM5zw0u0TdgByAkKHjQOTpPm+XClfRiNBxQABD7BwxYhi1LZFv7QaFVFIbMSkYKxGuIq3PXgHq0QCEudO2aKkGhkCcMo6X+j20toyDQTcM8x6c+AbBDUCsYdXh4ragk49yAlTZNeoW8AIIOH60Hbgu/eA/31oMqAACiuJ+1xRoZl9aUqaJL0P7LZKe/SzPyT4Ng2qZMkL10haqZRwiBFiwiFKGad2hvFWAwPyDa3/SnPbqGAEIZDA2bzgmTVuX1sg+UdKYSuIDeyGEWgCzreuOa7aG9wNQDYsoDIlkMwB40GF3d6qhZFm+AQJ27tl+mjRqWdJrDwkAYdG63gqyYE+EhZPME1k+Mm3oJwB4KNXAjEhGA9CKVgHlEewCwCb7B8iFuthosA/SJ0TjAHhZsieTCtXyKOCAYRD6biiNAXOsP4CExw+eq21hDCXDaN9kvMxa3FUvybxsXGOkl8R72PChpZldKT+JpF6/eq9ZLLOZFrBlgT8SIPBi1m9WXN6/+yCdWk2RZZsc/RQsMgz4n2oxBAuq6VOi3E6tJouDc12l+IV6F+QPvzpRC6lLa1oMAx3mKxUsCnXWGgABHng42o8cuKybC3Hic9y2SMdeVaV7m2nSsn1ZZYgjnYm6HVSxOASc0cWztzVKnTtjm4omUa4ge1GoWAbp02W2dOlTTaLHiCSIOBEFkRqlQcHauGUJfbY7tz2k2fcaMBTCOAzDSZPGZ4FD3Y6Mi+HsfT+LXwABsEQdl0aaPHjIYFpeaNMEMZiW4thtzk8DBLj3nYbUU8U6VAFdJrXUSM03QIAGGSGuQaObqKMDIMycvEmGjG2mVMRVauZTQSCUC7s6VhdAEWqVzzxfy/Pnr9VmgBuADACBqD9cuFBaaoJKGbpgyg/YHZphIyKH457rRYhgSR+TeaIMBTDy3nwDhBNHrmrWxTtAIPuCMyUdDVABMFA2QJcA6tzyVXLqOONAO/WyCBN5BwjetRgG9pmv2Q9KPThVoz++Mwj0l42hUIDTrAEEShQb1x6V1u3LCXThnXtVUxtRm8cO6KswZxHCIgtFho4yFs+HQ/YNEBBdchm0TMXAjM18RbN3U4Go+Ili6LgBYMlCAJyZn6T/KQdBRz5sXDOZMm695M6fRqm6mQtOQ+urc2f+W5Nchyr4wb0nSvMOrfjKLf0UVAN4yFIAfgBYPdtPl069qsjRQ1fkyP5LChB4ztYNxuncApBg52a1R+neGEpN2JcSnnfGTWPsuebQvovEcXA9W77B/LtpAfkjAQLiJ9RkQ4QMppGAb7pTa/OCFCQ65raoTW1lENCAgK6WhQgp1OfP3uhiSASCvPONaw811Xjz2iPBkRMRwVPOouk2fr3u/CbCQKMeB3VwzwVNH3bqXdWLeRCRHfQNUIOsUDX33x5HAULTCcrfTyRMWpV6/4xJG+XVi3e6eZK+wQePLgBOC251Nr/FiRNVP4fjRrCnRv1CCjCQF+ZaZBkAMTSPRy9k6vh1Kmxj37mC6iGQIiZ7wF4ASig0HA/Kbjlyp9LFHGe6cM5OCR06hAIHv3b+k9pfMn+PplNpjOucadt0YURBsk6jwtqn6a4b1DGx6BKNTnPdqOUNUrU8N47WP1TTpIlJ2VLaAeDgKNFGIGNDjT1okCCSM19qre3TsNPVyw9U9CZkyBBackBFkXo2pQciv9FDV+jpAvYmUNePFz+6KvCxj6FC1TwagTKepM8Zc1T12IBKdoVomr0IVWvm0/0ANPZbIHPLHhRABnz0zHF0R2iMFWDv86cvSg9ctFQmvTcZDzQoVizer2U3bEIETEaIiBUb8wxzpm2RWzceq9Or3aiwOnCcF1mNanXzS+o0CTRzgqMmoqacBmBB0AlVw6Qp4qruBM6UcXj04KnSiafLmFDqNi4qCCexsdMYD/RIkiaLrU6d2jr6FZS3KNfwTgIEmeOUZiaOXq3vFfOLZ4kSLbzuU2ETbY7cKfVzaGWwOfnb169aEmMMKVfgyA3RI+xEBqFmg4L6PqLDwD4KsmjYiQxIvkJpNUuAfSjtsG8HcIDmCPtAKIkAIKD6tbb5lvnIxl7mFLYoVzmXjo8hTkTfEWkDMFHiyJojuYJDggYaex/Yw0Cmh3lNJhAZaEoMjLdfMu+M/2CnhTLguxCU6QNNC/zIAn8kQLBEOqoFapPPPaDTxxZA8M/1DC0GXn7vx51UvlT+4iT3z7WsfQaAgDDK/BU9/3Y97zzzz5691npymrQJ5dKFO7qoEKEY9vN+/M0ad7u1e3u//o/6z+doto57+dcG/uHu9++1dBR8aSL497vWnt/a7/yrz2DruQCbgU1RbZQ+/PvMxuf8M/bs94kaPaK/jlZaO9JpbVxs2RJnHSlSWB96CgCEhWt6SYxYkX30hayaIR9MhgLJb/ZeAGq7OdWQBIksvP/+tZF/Puefz1jmpO13ho3PiGRZ29cT0PE0P///3wJ/LED4t4Y2MAACUSGO0ZZy5M8+Awsrm88iRw5v8xIcr2NTIRG/uevZprnMD/w/sQAZITJptgShyOyQZYifMIa/slD/T8xjPsYfYgETIATyQAcGQAjkLpmXMy1gWsC0gGkB0wIBtoAChNv3730LHflLgL9sfuHvFvjwKqiEivDVNI1pAdMCpgVMC5gW+K0t8P55MAny4M6Db7FCBP2tH+RX6fyTT18lumnLX2U4zH6YFjAtYFrAtMBPWuDRp6+/B0B48+6D3HrgIakTx/PXBqaftMc//potgMBGojaD3aRd3XKSJon/WBwD2qn3Hz9J6JAhAvo1/fypSzflxKUb0rhikZ/6vvcvffz0WQ6evixv33+QvJlSScTwgc/cdvX2A0kUN6aECB5M7j7ylMdPX0jWND6pch95PpeJ7pukd7OqEjqUxS4fPn2WkMGDeW2CPH7humRJndTq0TBbhjh58YYkTxhHwof98dnyz1++6Oa1kL6Y9ZgTw2etlOZViku0yBHk7NU7Mnv1DhnSoZ4EDxbMz9tj19AhQ/4r78OTZy9l+5GzEixoUKlW3OdJmPcfPomz2xLp3byahA1tnR773YePEipEcB81/LV7jsnt+x5iX6u0MDd2HDkrL9+8k+K5MkqUiD6P5G47dEZSJo4rCWL5TRG8cvthCRs6pJTMm9nWEPn4+6s37+TTly8SNaLtPTgBurD5YdMC/88s8FsABBbCZn1d5dy1O3Jw3hA/F6VfYWxsAQT6yOIbOWK4Hy7+/+RZ+k9eLH1b2+Zpt3YPFm4cmV8Lf0D6tevoOdl74qLUKZNf4saM+tOg5Uf3LGPvLDP6t5E4MaLI+r3HZc+x8zKkQ30fX2GnP44oUviwXoBg3IJ1Ur9cIYkayeIkeo+bL87t6upRxYC2vq6LpEnlopI4rmUHu19t84FTcuPeY2lVvYSPj5y/fld6jpknq8b20P5h/5ev33n1za/rVek4XMb2aCoJ4/jN2x/QZzE+/+HjJ7l295HYOU+RXTMG+rjMoTNXZOmWAzKic0M/L99mECC4rKT2BoLff/gonz5/kQjhwihfwuOnL2Xhhr1SPHdGyZAioY9r9Ro7X3q3qCYRfgC6AMKcKggT+i+SMP88L+ADIMm8NJtpAdMCflvgtwAIa3Yd1cWyqdNEOe4+UsJZ4eb/VQbZFkCYsXK7XLh+V9rULqML+7y1u3WxJOICOFQumksj7lOXb8rzV291gWxdo6R4Pn8lfJeDTMkTxJbKRXPKhr3HZcPeExqdHz57VTo3qCBEaev3HJdSeTNLhuQJpUjO9FZNs2LbIbl8+4EEDxZUmlcpxnlCWb7toHg8fanRcNVilnPZ89btlgcezzTCa1SxiIK0Y+evaVQ5ZPpy6dOiui74vtvWQ6dl8ab9EjpUSEmfPIFULZpLNh04JfceP5WI4cKoDUZ2aST7T15UEEFkXbV4LokeOYLMWLVDiPrTJ0ugWaMB9nX8jOyLtegncwd3kLgxosi6Pcdk4fq9kjtjCnn97oPY1Swlns9fyvo9JzRixWGRaViy+YAs3rxfsqVNKsnix5KqxXNLn/ELJFfGlHLu6h1JHC+m1C2TXzqNmCUD29RWKupN+05K9RJ5ZOfRc7L72Dk95lindH6Ncp0mLpQmlYupbeJEjywZUyZSuz178UbHy65mSbn94IlMWLRBxzFv5tTSrk4ZNRnXcZmzWvJlTiV5MqXSa2zad0LefvgkfVpYyIfGLVgvsaJFkgs37kmKBHGkTpl8smL7YXF2WypViuaStEnja98OnLoke05c0GfF+SWLH1umLN0ir9++ly9fv8iTZ6+kS8MKMmruGkmVKK5cuf1QWtUoIbGjRZa5a3fL05evJUaUiNK0clG974vXb6VKx2GyfVp/H8M7dv46KV8wmyRLEFvGL1wvZfJn1XvNX79b6pYpIKt2HpYx89ZJgaxpJEXCONKoYmHZevC0ACxSJIotNUvm87oeczpHuuQ+AMLFG/dk/rrd0t8edsZvMnftLnnw5LlyP7SvV04zMNOXb5NXb99LwaxpJF+W1EJWYPKSzQquEsSOrs9/6eZ9uXLrvhTMlk7mrNmp84HvbjlwSh55vpD65Qt69WPYjBU6V9vXLRtoR2t/lTXJ7IdpgZ+1wG8BEHi4N+/eS9Za3f5zgHD7gYdGUkZjMU2T9C9hGd+GtwUQAANNnCaqM0+fIqF0Hz1HHJpXlzHz10q9sgXlxMXrEiJ4cF2c+blhn3Hi1KqGRmxpk8WXqsVyS4/Rc6VH0yqaws3fuI+M6tpYiuRIr6lmaIZ7j10ggzvU1YXOWkRMShunnCN9cpm6dLPkyZhK/03fTl2+JTuPnJVODSrouerjF26owxs4dYl0ql9B0+hl7Z0lReK4UrlIDimZx3p6l37giInaS+TJqKlmj6cvpF6vsTKkfT3JnDqJjmm1ziNk5Zge+m9H10XSrVElWbB+j947d8aU0nbINDm9dJSfGY2Dpy9J5tRJNTsBQFiwYa/MHthW3JZtlUwpE0ueTCnVJg0cxmmmgc8BRkbMXilNKhWV6JEtZ+57jp0njSsV0ZQ282zH9AFSvGU/2TPTWYfYdfFG6dygotg5T5VpfVurswaUtahWXAEC17l+/7GM6NRQLt28J7NW7ZBhnRrI0Okr1PlVKJRdgdul2/elQ91ymrqn4cwdJy6UYR0bfAcM3xQUtXaeKhtd++jvGvQeK/XLF5KiOdNL3Z5jxa1va4kYLqyQPZnQu4WCnE+fP0v2Ot1lz8yBWj6hpDLAvpacvHRD6vQYLesn9pGEsaPL3ceeUqHdENkzy1koqwDYmFO37ntI4rgxpGZ3F5k3uIOOm18AodPIWTKsQ311tg0cxkq7OuUkR7pkQtQ/tGN9tW+zfhN1DgHyGHvGYOO+E3L4zBXpZ1frhwChxYBJ0rRyMcmTMaWQydh38qIUzJZWurrMloqFc0jRnBnky9evsvvYeXno+VyBmsezlwpkeUeqdBou0/raaUkL2+XKmELLR5QyaABxsg/xvZUvsAW/A2ybzbSAaQGLBUyAYGMmnL92R05cuun1KdLIRHt+NVsAge817jPesnimSCiOExZJr2ZVNPqpUTKPRlnUnVncSuTOKB2Gz5AaJfLIgvV71YHlTJ9cBk9bLk0qFVFnna+RgxxdONxHXZt0NQu1X41sBWWIpPFjCfXzhhUKqzOmkbnYfviMgoE3b9/L0Jkr1XEQOY/r0VSiRAwvZHSGzlgh2936Sagf7HVQgBAhrJTMY2FMZGHuMmqOOnCdfJ7Ppe2Q6bJkZBf9ueWAyQqcVu88olE7wKXVwMn6fP4peQAQ9h6/qLV7nDGENmXyWWie6/Ya4wUQ+Jmaf7PKxbTmT+s9fr4MsK+tti/YxFE/W7HDENlNej1IEHFdtFE61C8nDuMXyIRezRXAfPn6TTMwHYfNkOev30qiuDHEsUV1OX7xhri6b5TC2dPL67fvJFeGFArAyPhcunVfOtb7i/b49OVb6gCJbo12+6GHtBwwxQdAwKkSsTfr5yojOjWQqJEiSCm7gTLJoaWO47OXr+TBgqEAACAASURBVLXfXRpadCuiRAwrlYrkVMBHdmTN+F76ewBvnZ5jZN/sQXLhxl3Zd/KSVCqcQ+cfZZoZK7bJyjE9JWbUiFYBwtrdx+TW/ceaAaMBvNrWKSM50yWXHmPmyfBOFqDTtO93EJz8r9IBAIE9KT8CCGRauo+ZI/MHd1RWRJ5rwJQlki5ZAqFE06xKMc2O0Shh3X/yTAECdly4YY+kSBRXlmzeL9P720vcGFE1gwLgXDC0o8SL6bfeBmDoC/sSIv1d3MzGEmH+2bTA/1sL/BYAgSji2cs3ugDumTVQyw1E2b9iswUQSIFSKulQv7xkTJFI+rq6WwUIpPG7NqokdXqOlpn926rTfPbqtbSpVVo6DJ+pWQMiXzIIJ9xH+NjP0H7odOnVvIrEjBrZK1L1bqub9x9Loz7jZc24XtLFZZY0q1LcKkCgDED6e1yPZtKsv6u49m6hKfHirforgDh39bYM6VgfX261+QYIAALHiYvE1aGFBAsaTD58+iSV2g+RUd2ayIMnzzTCtKtRSpZtPfjTAGH03DXiPryL9J+8RJpULiKZUiUWmPQa9BmvkXe40KG1XDF+4QaNvHE2OCIyCJRu8mdJI+XaDJJj7iOlcsehMrJzI7nv8VSd0eD29dRBk9E5cOqylgNwiEaJAVBAOj1M6FC6p2DmwDayYN0eyZImiabRtx8+q5sPJzu2kjChLHXzRg7jpWvjipIhhUWameib8bEb5CbrxvdSam+i4H72tTSN7x0g1Oo2ShpWLCSl8mbRZyrSvK+M79FMwRTzp3aZ/HLi4g0ZOn25LBjaSZ/TAhDGyr7ZznLxxl3Ze/KS5MuUSm1ONqR615GyzKW7xIgSQUsO1TuPlC1TnCRYsGCaYSraop/MH9pR4n93ttiNUhZ26+IyW5a6WASEmINlC2SV4rkzKYgi4md8D52+Ik6ta+rvUNmctWq7ZEubTLNUZFWWbzskEcOH8Yr2cfxdR81REEm2qVvjSlYBwtRlW+TZi9dSp0wBqdNjlCxx6aprROeRs3TDLWWLNrV9yjt7n7ROru4SK2qkH37mV1xvzD6ZFvg3LfBbAASiDlKARqOuniaJ32n+f9Ngtq5tCyBQC+VEBmnXnOmSyat37yV3hpRy8tJNSZU4rqZJcTxPnr/SWyVPGFuK5cwgHz990rozvyf1miV1Etlz/IKcvXZHwocJLbVL5/PKIrDpbdexc14Lt+8+E/2u3nVUI3qcYopEcSR29Cha4yWa5ftta5fRKBkn/+7DB/17oWzphOiW2i9OYfaanVK7VD6rexC4JzXgUCGDe23ew0GQPic9jvMgjY0z3LT/pAIcIlkc4uWb9xUgEAHyt0YVCtvUwOB+1+8+UtuxAS1yhHBaJ+dkAxkRnBEOkmwMWRBS02QZAJsVC+XQ5w4bJpQcOn1ZwRInIcgesdM+dZL4uu+F33OPjftO6nNVK5ZbN5vuPXFBHTzZAur6hbKltYzN1dtaeqhUJIdmWt69/yirdh2Rl6/fSstqJeTqnYdaLnIf0dkL4PGd/ScvyeevXyUE+0OqFtd+UmfnmbBhoezpFGDcvPdY2OsRO3pkKV8wuz4re1Jw5BWL5JA40aPovhI2A/KZykVy6r3X7D4m9coWEM8Xr+Teo6c6/nwOB80mQvaXPH3xWjd9fv78VUIEDyo1S+aVWw+eyKKNexUoGe3pi1fivmm/xIwaSaPvIjnS6Z8AVfSF/Sl8lz0I1+481DkVPUpEKVcwm2aiuA9lMPZ9kGkis8U+AMaIRn9WbD+k+ygSxYmh2ZJEcaJrGYW5GTZMSKlePI9mGpZsOSDRIkVQWxfOnk7fFUpXfGfdnuNSsVD2v50gMZ6DvSzsN2F/iNlMC5gWsFjgtwAIv9Ng2QII/nmWVTsOa4mBfQX/VcPxNXacoI7Q1aGlJIn34x35/1W/zPuYFvBtgQvX70jtHmMUPE/o2VxLI/+kASLKtR0s6yY4/NIboP/JM5rfNS3wMxYwAcLPWO0H3wkMgEDURMr4R2fgA7nb5uVMC5gWMC1gWsC0gA8LmAAhkCdEYACEQO6SeTnTAqYFTAuYFjAtEGALmAAhwCb78RdMgBDIBjUvZ1rAtIBpAdMC/xMLmAAhkM3uH4DAkapwYULrTu5fvbGpDBZCCJtsSd/+6s/yu/SPky5v339UQqlftbHRFgZDNhhSEnv/8aNECPtr9heyqnfvPugm1IA0eBFo/qEtxwbYgo2wAWnsf2AtMJtpgV/RAr8FQOAFP3buqtLUQpJinF3/FQ1qCyBAGFO103ClQuYkwr/R2PFtSxfA933ZTc5RsS9fvipzo2FjGOoaO02UoR3qKSteQNrbdx8kRIjgyl5Ig38BEiaOSnISxTjqxz3oL8RO/8vGKY6Zq3coA2KzqhYSpcBsnz9/kZ3HzklRJbUKKsfOX9fd+YWyp/VxmyNnr8oE9w0yzclO7UfDIbM73wCVcD7ky2w52RDQ5rZ8qzJb2nqPIHECIPrmuuAUi/2gqXpsFC0ITnrAfDitn72fXWHMX755qydX/o0G34P7xn3KqAkvg/cGeyUslj+iH2f+w9lhEFjxfY6kvv/4WamxscWkxZv01AVHWTkZ4b3NX79HcmdIoVwVvhunVWas2K7vQX/7v0ii4F3oNnquHlkOSGNMCDJ+Zuz5Lkyt/zUo4URT9CgR9JSJ2X4fC/wWAIEz3VOXbdVjZkfPXZOJvZv/sha2BRB4sT98+ChRI0fQTYgcfaPBaYADJQrjzPg3+aZ/40y7Ie7Dz0RqHBMkUiH6IHLB0b5Q7v5wglOGWMaxVQ39nuGEfRuMo3D0hbPiOGfO33O9kbNXS+NKhSVJvFjqHLS/nz5LjO+Mg1yHyIpFJnL4cNpvjbS+if6Oa3Ff/g0lr4UkKIWEDxNKBrktk7cfPuoizGmJ7k0qKxkTZ+l7Nq2ix9/or1ffQgTXI5xE1DhSnBHPz7NjJxbt1+/e62e82wghHlgmsS+fNeyGc/IrC4Ltoe998eatHsuDrhftABZ1+ktEz5FIAN7LV28lRIhgushif8ORci9Ajl8RJ7bMUK2zXF4zXj/DkUEYADnGSf+h+uVa2I45YCymjIvLnDV6NBRtA7gc+k121/P9UGAzH8BWAC1Ov+CMOZrK3MGWkDiF/D7OjB98AiO7NNRnBLQY9zWAJX2Be2TLwdN6LBIWyHBkkL4DOEizoHXu1ayqzlnsxHMbDov+cw2jP9iP57Qf5CbT+tlpX8g+GPMLGxsO6/mrNwpIAKrYliyKai7IN/2dATDoH6CJY5R8HybJh0+ey7CZK5XIynvj2ChOumGFQton5h7zgH6GCRVK5z18IouGd5IEsaLr3/kcPB3hw4bRscKmfA5qaY775vVGlkZfmvZ11XUJGxhaGjwj8xkb33nkqbTVJ5e4aNeMcQYSR/IG8phn2FPnarCg+j6HDBFM578xf+EMgT8DrocfvePYjzmHoBVzgZ8BS/B1dG1UUTMqvCP6Hn0PKrge78vHz5/1e2iCMKewMfbGzvxszAXmh4LYb+KlicG1sIF3AAPfS7FcGZQR02iMNfb5EdnaL7vQ/yEd+y0AAi83CwUvCHSr430tAL/SWNkCCBPdN8r+ExfFya6m8uqPnrdGFxCP56/k8+fP6pxYdFmcDcfk0qWh3HnoqdoHMaNF1nR/p/rllTxp+srteu4eIhiHFtVUYwBCHqLSrKmTqlOx1uD3Z6HhJe3RuLKeQ6fB788ZeQACEfXo+Wtl34mLMrWvnRLJPHzyTMmOcC4sBGQWoDeGf8BQ70OfgXP18PvDXpcueQLl9289cIryK0CKc/vhE73erNU79Zx7/iypJVf6FFK+UHbl9L9884EubpyJxxnPXbNL+RegBi6SPZ3UK1dQhs1YKUApFtFhHevr32DzS5EwtrxB4KtyMbUV2gNEh5yt5/7WGlwD0Clznj95gjjSrEpRISrEPnBTsChCo+y2fItyIbx49VZa1Sipiyk2h3sBCm4WW9VvsNKsAQTYAbHl9TuPZFQ3SJmeCSqFaAVAKAV/w4L1u/XMPxoZ0DbXL1dQ+k1y93I0/L5WqbxKz+w+vLP2ASfQsX55mb16p7I3wlcAjTURLgABaufFW/Yr0yT8G2gRQPBEhDy4fV3Zf/KyzFu3S1BuhOgJvQ5Dc2P4zJXSoHwhPV4IWNh84KQEDxpMBrSprUBz5OxVyltx4+5jSRA7mgJBgCfaHBWLZFeCMEAHdNjMA/gKOtQrKykTxlVKbwAPLI8xokaSRhUKyaQlmyVapPBK+tTfrrbSKTMHcdw4GMiTaIwVjggBK+8N0qz65Qros9sNmipOLWto36HB7tigvDItwk4K/wP8Hmg0zFq9Q1lGC2VPL1WK5vS6HMRhMHx6BwiMP+8nOheAhf5TFuvn7z56KsM71lcOEZ6xRMv+cmLxSP3bmSu3ZcO+42pfiLdogBLnacskaoRw+uyMM/aIEiG86qZkSplIGTeZ97wjNUvllexpk0np72yhvqccZGDwpzB/EdaCHtx90z4hQ4VORo0SefX9BLiHChVCnr98rcRnB09dllU7jkjo0CHkweNnSusOQBg9b62EDRVS32fYVzfvPyXLth2UuNGjKHDuZ1dTmVinLNmiwJX3gXlCswYQ6vUaoxwWVb7rvvxK67jZF4sFfguAQEdBpKQQiUBbVC3+n40fjo+Fwmg4UlK7fjVbAIHveada7jlmrvRpWUOjbRzzkXNXNaoneqlVKp9yE3RpWFEWb94neTOlVvKfXmPnKVUziyNUy2597TRSN5otqmVIZcq3GyJbp/ZVDn4iOUNfwjtAMK5XqKmTzB/aQeLHjGZxhp7Plb2vSd+J4ubUWsl7YkWPItWL55b2w6bL5D6t9Kuj5qzRhdSgcT524boMmLJYsxHQRsO+R+swbIamXo2Ig2vgjCHHwsHBPAhIHOy2TGYMaKPfYT6cunRLwoUNJY4TFsoUx1ayaOM+jbzb1SkrfcYvlOol88j1uw/ViWdJk1Q1MNA38C0tbDwn9NE4LwNUEWE2dBgvU51aKQkQbJ59JizUSBFJbJfZa3QRh1Dp2t2HUqt0Pk1DLxzayer0IAJmAc2cKolmXsgg8AxQQ0P9nDllYpUu9k21zMXoG9TJhkQ4QAjmwygRwkmJVgNk7fheOqbH3Ueok3JyXaQgoPOIWTKqW2OVkIbJkiiucsdhSpwEEMKpQWAEUCN1jvMh0ibSA2gqm6I3uWeieeimh3ao71U6Onr+mkxYuEFmDWyrGQsyBTA/AhiLt+wve2cP0gxDoz7jlOWShsMEMKLLwbxAM4JrMv9x/ktHdtHond93Hjlbtk7pq3okRPENKxbWuUHWYdjMFTJ7YDu9pjWAQFah66jZSp1NdAw99VTH1kqL3W7INNXLILpGf2PV2J4KaIwGZTP7b6B3NppvgEB2rUW/STKqayPNgKHDgYPE5qhGIn4FIPYNEIzrYctB7erqjwAVQGTBrGn1uQDljRzGqd4GyRt0TGA/BQBW7TxcNk928rLl9kOnNUNAixwxvJTOm1mDqUaVimi0z/uNk2dOj5y9RpxaVdfPAnYhTetYr5xmHgkqyhfKJoOnL1ftDuY3jQwQ5FfPX75RMLVpsqMUaNJHOVMAVS36T5KpTq0VuPL+ADZrdnWRY4tGaEbm7qMnEjE82a6/9qmwrqLyCig3269pgd8CILAHYfaqHXLP46ly9fuVNv83TExkCAI3Gsx5MLr51QIKEPzSYiBag1kOZ1mzVD5ZuH6PonaAwKBpyzQiJ7UOQDjhPtLH5ihbAAHBnga9x6mWAo2oz9hcZQsgoKxH5iB98oS6WOdMn0KV8ohCS+TOJB1GzJCJvVrodX0DhIs372kK9+qdBxrpG2JEvgFCx+EzNOKhbsmitXhEFwUIa1nI6lt0DIi2BkxdohGwq/smTSsT8XJ9HPWY+euUTe/MlVv6fNSM+Q6ZFb/qr9YAAtGVsYCTniUSxqHDWthmsJtGdNfvPpYrtx9IvXIF9Jnh/fdPs5QYXqmy45y1u9TZE1n7ByD0neSuQJkyRP7GDrLUpZs6/lNLXHR8iDwBCMZcwAZfv33VlHK5toM0Q0SGivr3lTsPZM6aXWpL0ttE6PFiRrMKEGDPJJ0MmDCab4DAeJLlIx2dq14v2T1zoGYUvAMEddwuszULA6gj0wPlMgABpkrHlhYHBkAAPM8c0FZ2HD6rfa1YMLuOb6l8mWX6im0qLkWzBhBwZkS8sHTSSts7yySHFvr8ZBNcujT6RwDhxr1HsnDDPundvKpeHybMlTsOq8opz0XDzv4BCK6LN8nHj5/UDjhyGDOb93PV5wMUQOa0elxPLbV4Bwh89tqdRwrOaJSMYMfE+e87cUF2HDmnlOA4Yt8Agf6yF4bxJOtEpgxQQLagZO5MajsajKYA4aQJYsvYeWtlm1s/yVq7m6xWUBVdabZHdm6omiZl8mVTQMM8RGDMrxLCnYdPNCiwpgbrn/fH/My/b4HfAiCANOFKN7jUDbGWf988Ab+DLYDAAjhwyhKVvMVZTVq82aoWA58DIBCZTXWyU4lh1ANZFJFqxmlBW1yjq4vMGdROkb/h5IlKoOaFjtoaIyJp6wa9xyhvPdEbCwHSx2RLWHDhz8+eLplS9bL4w6vv2Kq65MucRuVzSb2T0l665aD0aVld5q3dJakSx7OIS3kDCET0dx8/kWI5M2pkjvAU2RcWjC0HT6nQEA2wgEQz6os4cjICRLCnr9ySWNEiq6Tx5v0n5cDpyyrDjBIkWRAiTWR9nacuVQdC9IboEIsdMsK9m1dTJ4XD4Xpcg41qxn4F36PrGyBQZ0eVsWWNkiqpTGO/BPLGJy/c0P0WbNxE7fNnAQKlA/tapbW84dSqpookIdgFEAEkQatNm7Z8q2ZNGIN0yeJLt9FzJG3SBJpmX7P7qMwa2E7KthmkWh0AGTIaAATmAkAJUSb2L0DJTYmBa09ctFGjPYSQKBsgFkbUS4RO9MjYs/mQeZI5VWK9f4X2Q2XRsE4aGdNwkLuOndc5iW35XIdhM2V8r2Y+AELoUCGk4/CZqpaIrDabCQGC0D8DFoi+AUfIZKP42LpmKUmdOJ6cvnJTxs5fLzMHtNHNkNg5f+bUmlmqUDiHljNQA0Up9OTlWzJz5TYFkUTMONL2w2bIjP72XqRjqKcyp1ImiqviTmysJINApih/1tSaeue9oZxBZoy6O5k9ZL0pC1B6wF5FsqdXJkd+RjobqW4aAQXOkn0lPAvZB5wsz9Rl5GyZ1t9eha0ADNfvPZJpy7ZqJohr3rj/WMtLbMRm3xXgqXm/STJvcHsfAAHAQTYM0JMzQwoVU7PWUIhl/vCeAmR5tyhpYPcGFQrpPVkLBrktlWrF86guBvtK2Dsxau5aFYbjfaUMwbO8f/9RqcXHLVgnu2c6i9PERfouoXfC35kXlD6evnijmS7Gi7KTX4RvPFu7umX0vTfbr2mB3wIgUFum9m00EPav2mwBBCLaj59gSgyiiySbgXgBSf8SDYK6qesS8SWOF0N30uPkWeyoy1KHTxI3pqaIqd96PH2pm5jSJkvgtQMbjQXAAxED6N5a4zPUpqn3pk4SV+/H4kukQt9YRGNGiShnrt7WyIRNXfSDzYF8jtQzAAJ1S8aGRcWireDhBUpYjC7duqf9YsFmQ9Ppy7c1uiADwaY/GulLRIRiRIkkCeNE1zo42QN49tMnS6h9unzrvtY5ARc4a/p7/sZd3b9B6jRlojjy2POF9pfod/WuI7qA4hTpLycT4PCP503i17ddmGekQ41SB4CJe3N96vw4Y5wv2Qz+zTMRkZF251kROGIPgX9Pe3AtHNCjp8819co9eHayEzwfZQjjpAvZGnQeuC/OjWwapQSugaNi7tB/7EitnX0sZLrQW7hy64HaDZAGiMS2OBWejRQ68xAVRb7PyQZsyRzg7zwrIAswQjS/6+h53eBmNGrvHs9e6CY+QADzEI0I5gqlK5wqDtKIoukf9zD6du32Q80uYEsyg3weIMI8S5oglpaHmF88E+l37AyIQruEccFBYQ/2WKAVwRzhpAflk6u3H+h8MNLk9JlrIEIGwEGACiCEnQGcN+95qFAU90KPhGwKjXlNaRGNEOxKw968t5TZxvds5mNDHuOHPSNH4N2Kp+8s0bzxHlFyoFxFBE1/gwUJohE/aXnu4fH8pQqJsXfh+p2HOi+wJXsIAE30lz0q9x576jvuXbba+5ymH5z8wt4GwOU61+891v0GKF+SuWGt4LNonwAiADnMBUoTrDOsBcw/xoZ9POyVSpc8oSpz8v7Fih5ZpizZrKCTkgv7obAddjSApO93jX6UtnOW2c7t9B5m+zUt8FsAhF/TdNZ7ZQsg+OdZ0LnHUf3KQMg/z/Fff4ZFjpJErGiR1GFxMiKgxz3/6z6b9zMt8LtagLIDWZagQYJqtoHSnn8bwQIbttlgalLK+9dq//3nTIAQyDYPDIBA9IiaoXGUKJC7+P/6ckS9RC/sMwgoac3/a8OYD2da4F+wABkw9rawH+p/zWPyLzzeH39JBQjXH9399i3mhz/eGIFhgCCeIeVbNEsa0mymBUwLmBYwLWBa4He1QJDHoUyAEJiDZwKEwLSmeS3TAqYFTAuYFvhfWcAECIFsef8AhOtXH0jceNEkdJiQgXx383L/xAKfPn0RzycvJXacKP/kMv/qdx8/ei7RY0TSjWpvXr+Xly/eSpx4Uf/Ve/7sxdlY+/jh8wD37/bNxxItekQJF962RgHjFTVaBDO9/bODZH7PtMAPLPBHAoRd207L0yevvMxSvkouCRHSwnn/T5stgMD+gpplBorDoHqSJfu/cxoDpxEx0r/Dee+XfV6/eiehQodU1sOAtssX78lct60SK24UadWubKCNhdGPd28/ysljVyV3/jTqSGZM2iTZc6eQjFmS+ujqpQt3ZemC3eIw0EJcw07rVy+xpUXv4M2b97Jg5nZp0bZsQB9RPz/bbYs0aFZcnfuP2svnbyVs+FC6u997u3/3iUwZt176Dm2g19i8/pgc2ntRHAbWUVpeaw0n7fnkhcSM9e+AHuy1ce1RtWX7bpV9dOHE0auycc1R6dXfOrMkH37q+UqiRA3v5eB5P+wajpPajQpLkRKZxOPxC3HqNltPdUya3d6H7T59/CzjR66Uzr0tnAmB3fzzHn398lX27ToneQqm/dt4BXZ/zOuZFvivLfBHAoQjBy7J82dv5NGDZ7Jq6QGZv6qnhLQBEA7vvySZsyez+TlbAOHOLQ/5+OGTxE8UQ+lNnz55Kd8kiDpWFkuiwc+fvuiRKH4mWjQiKaKlF8/eSPyE0SVkqBDy6OFzeff2g0ZQd295SNKUceTJ4xcy3XWTNLUrJeHDh5Yo0ayLo3A86fZND4kQMYzEiBlJPrz/pOecI0UOJ2/ffJD37z5I1OgR5f27j3L39hOJHjOSRI4STh1myJAh5OH9pxI1egSJEDGsRt043Vz5UkvK1PEkdlxLRIt9X79+J4mSxLK6eLLo85lprhskT/40kixFHEmUNLbcv+spwYMHleAhgmkEmiZ9QrUJtqNP9IPF++3b93p8jmOjUaOGlzBhrav1cY0RA5fIsPHN1cEM7D1f8hVKJ4mSxpI4caNI2HCh5fmz1zonsDX2wP43rz+SmZM3S8t2ZRVw8V0X56XSsVc1tUOCRJbz5w/uP5XYsaPIx4+fvWyodrvzRMeP/tKG9l0k3fvW1PuECRNS+8v43b/3VOLGi6o/P/F4IaOHLJeylXOpPYxsBmBl7PCVkj1XCslfOL08e/paXjx/o9+JFTuyHoOlH+HChZanni8lcdLYuknzzMkb0rn1ZJnh3lX7wXjh1G7dfKzPGjNWZPnw4ZM8uPdUHTVjGTZsKAkfIYx8/PBZXr16J+HCh9LnoGEn7h0/YQyds2RdTh27Jovm7pKREy0EWTTGdtzwFVK+am5JnjKukPmIEjWCgI2ePXuj88zj0XPp232O9OhbS/sRMXJYnWsf3n+UuPGj6bPx3O/ff5KJLqukc+9qPrQ0mL87Np+URi1L6D0BqbwT8eJbsnP0M2y4UPqeMQe4fujQIeXRw2cCaEyYKIYCK94z3n/ACHOVdve2h0yftFGa25dRW2Ab3o87Nz3037wPNMa8Q3NXcZncSu1mtEvn70iS5HFsrhf/9YJv3s+0QEAs8EcCBMNA86ZvlQyZk0imbLYj+fbNXWXAiIYSOYrl7L5fzRZAYNHZuemk9BlSX1Kkiisug5bpueJ7tz0lVJiQUql6Hl101iw/KFGjRpB7d57IpDnt5ca1hzLIYYGkTBtfF6o+znVl09qjMmn0WslTMI0ugB17VJXli/fJicNXJWO2pJI5a1IpVT671a6OdF6iv79z64l07lUVcjxZs+yAtOtWWebN2KbAoVL1vDLQYb5EixFRbl17JH2HNdB7njh6TSO+44evyOJ1DrJ14wlZtnCPxIkbVZKljCvN25SR0ydvyOhByyR56njqvBwH1+Ngho+GE50zbavs2X5GUqSJJ8lSxJWa9QvJzMmb5NL5u6oFgQPC8bSoN1oyZEoix49clRETWwgg7+ihy3L5/F29J866Q48qVp/VGkB4/vy1RI0GAPog/YY1lKMHLwsgEGDAdXDcY4atkNPHr0vmHMkVwJDxwaGRUQCslKmUQ6rXKSBtm06QERNbyrXL9+XsyZtSsXpuYb4kThZbbTRxZluJEy+aAoROvarJkL4LxXFwfS0RtKg7WvIUSKM25XNbNhwX97m7JFny2JI8VTxp0rqUPhPObkjfRTJ0bDMFKgf2nJftm09JqFDBpWufGvp3+8bjJVPWpHL5wl2pWD2PVK6RV++5btURKV81lxQpnkly5k0lo4cskw8fmXNPpF3XShI5angZ1s/dAjTvPFHwFCNWZFm/4pDESxhDrl+9L8PGNVdQ5tB5piRJFlv/PXpKa+3bmRM3D/ZZnwAAIABJREFUZPa0rT4Awts372XSmLXSxcES3ZMFaNm+nHIlzJy6WZq1Li0LZm+XTWuP6fMXLJpR8hdOJ7OnbpGdW09Jmy4VJXsuC0kUbczQ5dK+e2UfAGFYf3cpXSGHPjPP367ZRAVQ1648kOETmsveHeckfITQki1XSunQwlWGjG0mVy7e03vEiBlRQU5Tu9LiMnipeD5+IR8+fNb52rRVSRk7fIWcOnZdMmVPJtlzppDCJTLJ8P6LFWTw+8GjmyhIsAYQ3r79IBULO4rbws5qK7OZFvhdLfDHAgRe4rFDV0iPvjX9TM8yqEcPX5ETh69oqrRw8UySOn0CKVHGugASn7cFEPhM97bTNMJPmSaejHReKvadKqijZBFnsSVyxmOXKJtN+nSeKXUaF5F1Kw9LgSLpdfEePXS5NGhWTMKECSW1yg2SMVPtJHmquF5zkGi5m6NFAMZaI2JqUnOktO1SSW7deKTOq2jJTNKr4wx15P16zJX+wxuqg3bsMltqNSwkB/deVIdz4extjaCKlsoi9SoNkQEjG2mEOGXcOu1f2gyJ9JY4sCUL9kjFank0Sk+ZJr6fdWIW/wbNS0i06JZsB2CoWxs3cVvQUaPOY4euyIrF+8TZpbEc2HtBo93Pnz4rMCBzQYQ/f8Z2dQrW2hdU7DxfaZRKI4OQu0AaHcfhAxZLh+5VJFToEPo3nCdOnMbiD5DqPaCO/kzWAMA0dGxzeXDfU/p1nyuT53aQ1g3HyTg3O7ly6b4Ciiw5ksuG1Ueka5/qcu70LYkaLbzauLPdZHny+KV07FFFsuZMIds3nZQNa45I2Yo5ZP3qI1KnYWH9/WCnhVK9bgFJmdrC3qjz8OBlzRBUqJrb63c3rj6URXN2Sq8BtTUKblBlmCzd5KgZoJlTNktXh+qaUapVYbBsOzRMv0cGoHb5wdLZoZo8evBcBXlq1CsoC2bt0KgZh07mYf2qw+pMAUtTxq5TwIGzpWzA9Yf3XyJrdg7QLIQ1gHBo30XNGhj97dVxuth3rqg0wG6uG6T397JDmybjZeTElj6yP4OdFknx0lkUzBjNN0Agg9Wj/XSZOr+jZgjIBGIj5vGGNUeleZvS+n6sXLxfKtXII0sX7NEMRMdWkyVr9mSawdu05qjOc96ntl0raTaPd9N9nYNmLkYMWCzd+1rkmclgDR+4WFKlSSDxEkRXUBImrEWREgAKoPJeOrpy6Z4kThIr0Mtlfr3T5u9NC/wbFvhjAcL4kas0Yi1bycLR7lcjovz65Zt0bDVJ+g1roA7rR+frAwoQxgxdIa3al5MFs3eoozh5/Lqm4xEhyl8kvQzoNU/KV8kta1ccVGdLmWPS6DVSvW5BTZ8CENbuGuij+7YAAgt3p1aTxWWSRVQpQoQwutDPn7lNXr16ryloQMud2x4yecw6adfNopZHinrt8kNaRsiYNam0qDtGujlWV+fvGyCwcOKMVizeL7u3nZbJczuqM7LWrAEE7DLWzU4/jrPZvf2Mgh4c7vkztxRApUgdT2ZN3Swt25eVWZO3+AkQfN8TgFCkZCZN1QMI7DpV0NQzzRZAGDFwqWaSiFi72E1RB2XXaLz2lcgdZ8kY7dl5Vuw7VpAvXxDQCaJzhig2W64USixTv1kx2bzumNy49kiBF3LGAC+cnTWAgI2q1ckvCRJZVDdpvgFC01ousnJrPy0ZjB22Qro71fwbQKCEwbiRlaJRhiKFDkBgHlSoZgEgAATKP2QwyOiUqpBdrl16IAf2npe6jYtIk5ousmyzk0SMGNYqQGAfgYNzHY3SaYBPu47ldZ+K28T10uf7Po+fBQhkWaLHiCjFSmfR65PBev36vZQun0M5RCg58f8udlM1KxcpSjjNSNg3GS8t7MtI3PjRJVjwoApKyRS1bl9Ox5Rs0PLNff8GELgHZbnTJ67rO9GoZUnJV+gv6WLfcwwgnTR5HC/g+YMlxvyTaYFf1gJ/JEAgasZJjJ/exs+6te8RmzphvdRrXNTmzmpbAGHxvF0a1WTPnVKjJNLzfwMIwYJqGjNGrEhy9tRN6T+ikVw8e1vLDtRInz19JW06V5TDBy4pgGjZrpxUqZnXK1qZOm6dUrhmzZFccub9u/IkoGdoP3eJFSeKkAouWzGXJEsZRzdu2jUap5veAACUBkjjJkwcUyPURi1KyJb1x60ChK0bjsv2zSclV740uiCfPHZNo2ii9ls3H2lJhL0L/gEIC2fvkJVLDmiWpGylnFpr79djjmTKmkyIzKg5nzl+4x8BBLI0pIipg+NIqdWfPXVL9u44IwWLZVSnTR0bR0sNPnf+tJI0eWxx6jpbcuZLrZkUgFH9psU044ItEdqJHDm8RttkJvj8mZM3pUOPygpGSfd3c6opw/u7S/2mxdVBAebIOJAVaWZfSmv9Kxfv01IKY8cG2nt3PGX8iJUy0KWRhAhh2Ux79NAV2bfzrJw+cUPT3+Uq5ZCmtUf9DSAAFto2maCZCUARWYmh/RZpxEuJhzlIvZ/yBdeuVCOvpumtAQRKEquW7JcMWZLK5LFrZdX2/mqH3dvOaH9r1isoVWrlU1vOn7ldhoxp6pU1mjt9qz4j5SoyRM4jG+tzGLajvEC5j0h/w6ojkixVHClVLruO8doVh4SNxfkKppPM2ZNK+kyJtTRHRsAA67duPNZ9CukzJ9G52qRVSd3nsHzRXp2zA0Y00vdpy/pjajv2drD3hEzNuBEr/wYQ6NvEUav1+jlyp5JM2ZLqJlMoq8+fvS31mhSVdBkt2TLfjfcGgDR8Qguv/Se/rAcwO2Za4AcW+CMBwr85I2wBBP/ce9O6oxI+fBjJkSeVbgQzGMpYeEj7G9Huj65FBE8Ihe6BX42Ii81ythgHcdDsSUCPwVbjvn/194um6Un1BkZjX4BfGxF/5vr+vZ5vW6oy4tevXhsv+ZmNp76PrXJ9fmeLYY7TEWwu9N0MWxLBU47KVyj9zzymfsfQdjAuwD3J6KBHEJDGeDJfSKf79Vxu49drxgFg6b35ZW9Do8C//Xjz6r0sWbBbGrcq6eMr2OvNmw+aFflRIxPAe+Sfeel77Nl0Gzo0J0z8fheuX32oYAWAYOvd8u8zm58zLfC/sIAJEALZ6oEBEDhuR6o5cVLLjmqzmRYwLfD7WICMz6MHTzVrYzbTAr+zBUyAEMijFxgAIZC7ZF7OtIBpAdMCpgVMCwTYAiZACLDJfvwFEyAEskHNy5kWMC1gWsC0wP/EAiZACGSzmwAhkA1qXs60gGkB0wKmBf4nFjABQiCb3T8AgWN7aTIk1CNiZjMt4B8LwMEASyCcE79qg0fBONb46uU78Xj8XI/6/art5vWHeirI1iZS7/2HITFm7Ch6JNVWg+QsXIQwEjmyhUnTbKYFfjcL/JEA4eGDZ7J66X4JEjSoVK2VT4VhAqvZAgjsJue8eheHanqs699o3hdqv67PiYilC/fI0QOXpWCxDD4IeGz1iaOBwYIHU+a9f9pWLNqnxxiDBA0iiZLElELFM/prweY7kOM0bF7cqwss+IMcF8rrl+9k4Zre/uoaR9latvVb/wGe/dXLDuiOfI6WBnZjHPbtPKdjQOOIJ2RTEPF4bxyt49hol94WEicam1nZyMqGVuzBcca5K3oEuIscC+S+/nk+eBTgoDCoho2bcX8YOI1rcMz10P6L0qpduR/25+ql+5I0RRyb+hQBfigRuXDuttJWcwJnkEsTH6dM4NKA/KxTr6p+zjfYMg06beP+zn0WSJmKOSRbzhR6QgfehOdPXyvVcoLvnA98FmKlNk0nSN8h9fUYKfTa8Jd4er5U5suACIIxryHaYpx/pTZy4BIpViaLZMme3KtbHCvduOaIHtGFUdVWYxwggTOI3TjSCkGWQWpm6/vm3/9dC/yRAAGSpIJFMyh3O9THMxZ1sWllRGnKVc5l85idLYDAGXEoXdOmTyBhwoZW9joaTH5EHKnSQKX8STkI+BsRjuGI79x6LA/uP9Nz4PC+Q+374sVb1WaA4jdH3lRy6/ojJb2BlQ+tBFjffDd0F44fuaIsfLUaFNbv4wBhyIN3IWGSmF4LGAv/xXPwysfWlxbyHL7H8b28BdJK6nQJlL+fnzl3znl0nBY6Bi9fvJHYcaLKxfN31OFByMO1ONaGvgKEUC3rjpaqdQtI/ATRVe8AIiCekyOVnh4vlI+BCI8+07f4iaJLrNhRlNRm0ewdylmAA6D/FnGld9Kz/TRxnW0hAqLBn//gwVPJlCWpF3ENCxOUyZBDwZxoTYvj1PHrMmvKZuV1iBknivI/QIZEf0KGCi4eD19IttwplQwJ+6N7AfeBp8dLeffuox6le/nyrSRMFNNPMIWTgcmvh1NN7eu0iRuUYjl8+FCSKm0C1U7AUUFuhUaEcXTw+pUHSnvcol1ZyxyJGl7qVhoq0xd1FgAwzwrPArbEpowj//F9+oUDx97wIng+eaX37dmvlo4bxwQBANiY8YLvAUIhtAoWz92lHBuFi2WUVOkSeNkN3geYRlnc0UgASMANgS4CDQVTjudC5ZwhU2IdX343rP9iadu1ovYRTQnsBtlUzNiR9bk4jnnl4l3lbYAVknFKkDimvH75Vh7ef6a/Z/7SsNHtG48VYEEi9u3rNyU3attsooyZ0trr3WX+dW83TXUWmL8QgtFPnPrlS/ckTbqESsi1cNYOJYWCuwGHDiCD5jx5yng652gIRkEC1bZbJWVONBoslABLmCmZDwhrMXeghs6YJYn2BTZIxhaqd51/30Q1Msi8wLEAbwhkWPA0wMuBdgj6HPBI8MysEbyPkD5dPHdbr8mxSuwEIRd6E/BkAHIMG1lb6CA0u3j2jtJMQz6FFgoBAH2LnyCaaqtwavrmtYdKfpY+c2LlzHDsOlsKFc8gESKEVTvy/tMntDSmuW70Eu/id+dP31LG2jTpE+jYQ9V9+eJdtd/6VUdk4MhG2rUOLScpJwXrg9H27DgjeQqYYlg2ndS/8IE/EiBAa0yqlrQtNL69B1qodK01FlMWji5tporjoHoSLVoEFUryq9kCCBDBrHTfJ30G19Oz7RAWsVBfOHtHYsWJrFTKnz9/lc3rjkriJLHl2OErynp34ewtcRu/QVn6cMJOQ+rLvl1nZWhfdylRNquew4dAaPO646ouB5UwCx30x74b0cycaVvk+KErkrdwOl2wMmZOIo7dZmtWY8/2s+I4pJ4ueBAxxU0QTS6cuS0DXRoriyG0xhANQWJTt1ERzUQkSRpb8hVOJ4P6LJS+Q+urrsF01w0SNnxoXfjrNCwiF87dkbOnbugCwYICCRIAoXHrUpo9AECwyCAuBLCBWKdoqcxKiQzPfrpMiWXHllNKaxwufBjp1maqkhbt33VO9RQAJjiYrnZTZOKsdvrYLMqAQJwcTIDOoxrLcve9smfbGUmcPLY6FEScrAGEqePXye7tZzW6x0Gga0GEM1PVIFPqeDVsXkJ5+9HoQKa4TqPCcuXifQV3p4/f0FISQIhI1er8+vhZpk/aJK07WCJtGCmJGIlGYVnkLD26Ewf3XpCgwYIoPTYNZk2UHQsXyyAp0sSXAoXTS52KQ1Q/g++ziKMcabBqQn29a/sZ6e5YUxw6zVDAg8AXn4F2GIAAaRA6BbwP0FP37DBdQSBOxsG5rmoyzJ22Vb58+abPBQgFwDzxeKnU3cs2OakdD++7KKdOXFcgZUSRnVpNstARBwmiwLVm/cKyZvkBWeG+T4qXySq58qZWpwaDJul7xq11x/Lq9CBnYj4xN3LnT61gdfrETZI5R1I5uOeC0l3TB8cusyRDliQKJMdNs/fiC2nVYKwPgMA4uY5eo7oWtFGwaXYor1E+zI5kn7ADNkOlMX3GxJIzTyqNjHduPa0kSZBbGQ16ZvsuFXwABAIK3iVAHgRc7nN3yOtX79VuNeoU0HLREKdFUrBYetm97axMnd9BXr18L2OGLbeA8yBBlEJ83cpDsmT+HsmWM7m+b7CpomuBLgVaHnOnb1NKbQjXiN4BLukyJpYmrUsqmRTvBHogjCncKqxnRgME8DMaL8yX/bvOy5BxTfX9BuQB2mGOhMIc0IlwGWMD8OrRr5YCBMAWAASRrYEjGyvvCk5/0th10v47AyskWR6PXugaRWYB7Q1AFToVBBeADwMg9O85T+1rUMdDiQ+F+MzFXbxUVf8FP2he0g8L/JkAwW2LfPlOoQwffc9+fusxwOCGmBD7BkilZciaRGrULfjTAIEvetdiGDV4mbTuUF7Ts+Wq5FKngvMNGSKYMuTBNFe5Zl51TEQfOXKnFDIgtRsW1iwCVMtoFpCCNJotqmU+R3Q4Zexa6fmdE5/I0cLql0zOn7mtKVReVBZEMhXw3A8d10wXadggYaGD5Y8G3bFvgMDvETaCBz9rDst58B7tpqmkM9xNZEKGj2+uAAEnT3aChZ9FFVDCAkS2ZcPqo+IwsLZs23RSne6urWdUyAeAh80QG1q2aK+WFQBIvgECZYgzJ65rNAuD5czFXXVxQkEQgDaozwJlN7QGEIg+DcBj2JZoEGplInUWYyJc6HxxSKTLiXaIflG2BAg2bFlSGfm6O9awmspmcXz39r3akzZtwgZ1cllzJlc9ChZOnDCR5NaNx31ITVOqQkuABfqZ5yupX3WYrNzST8s1CAv1GlBHtSRI3xoAobl9aaVaXrKhj0Z6iGEBSLH5u3cfpIdTLV2cAWJIW/Mc6EswT0iVo4kBeIDq22hEykSUpN6NRqSJw0IMyRh7u07llZwIQNR7gEUC2jfVMs4AinGyaWQ3oKTG+UAW1WdQPXVA6EEQ4TM/YYBsZl9a9/MgO030vGvbGRk9uZUCEppvgIDTZT4YYlC+AYJfVMs616ds1mzYjwACTrNfj3nS3amGgl7anh1nNWOA7gVt8bzdlmxd4hiyfuVhfbfIjGxcfUSzLDzzsHEWAIMjhm3VyAL4BgiwlNKg8kZECvBMY37kLZhWI3UAGGJqsJ0ajewXbKsDey+QzNmS6jtO/2ArBaCjozHCeYnUb1JMdSfQDmGdALACouhX6QrZNaiBHZT3CFDoGyBULt5PpbtpvFP1mhRT7Rnsc+TgJVm99KAXQEA9FPI271LnjClZnIDsFfF6SPMf/8gCfyRAYGJDJwwbXJkCDjJ/VS+bNUEiWBbrf6rmyGh5Bwh+aTF8+/pVxZqg9jXEmngReeGR0a3frLi+SNa0GKBHJrXp/SXzPUt8AwSiKkoHLdqW1VQ0zo+X2dlhgTgOritz3Lbq3wAI8N7jhKrWyq+XhVaXlHTh4hmlb7c5utjR+C6LOI6fNthxoVL54kBxRqTeAQhdHGto6pTokjQkkVWXPtU1W7Fq6X5dUHCWE2a0kRnoApTPLilSxZPprhuVbtd9zk5VoyQd7BsgbFh9WJ0vwIOoDQVN6sbUysli0CccaUAAQqfWk2XOsu76TKScO7WcLKOntpZL5+7KsSNXtJzAgkzfyTBMGLVauvWp7q8FDhZCUvd8v3tbNxk8tqmyLFoDCM3rjpKe/WorWAIgUGJYuqGP2mL8iFUq4oQte/avpXTDx49elVbtyqrjWLjGQd68fqd9Yl/MIMcFUrJcNvF4+FwaNC8uB/Zc0EwUGQDmA+AAGwEGKM3VbVzUa0qhhti5VzUfz+cbIADK2nSuoNk3shWGABYKlABFw5GS+mfukrULHSaE7g/CWa5dflAzCjQAAmAMZ0aJokHzYpoJPHn0mrTqUE5FtPoNb+BVx/YOECwiTEv0c8xlmsugpVqqIVjo0dZNlm+xaDGQ3QNceX+P/AMQAChk/AD+RvMNEABPlEGgJgc48I5sXH1UU/jFy2aRWVO2KD05DUCAuBsS3paf54h9J0vGw33eTuk7pIHX58hyhvguXd+v51xp372Kjhc6G9Y2VlKWAfBD/a3y8jEjKjDk/ULnAp0KKLShdUcgDZpt3pnZS7spQIC+m/ceW/XqX9sqQGhQdZhmPFk7GVcyYby7UJzv331e56aRQbDmzQCrZEJ/tJ79Iy9oftlPC/yRAAGHRg0WgBAvfnSx71zB5uRbuWS/Oiac8o+arRIDGYFjhy5rzbVq7fyawrOmxXDiyFVVIGRjktPg+nL3jodmDhD6SZEqjjRrU0aWL9qnG59A50TcBtUvz3do3wUpUjKzVKmZz2p3fQMEavyuY9bIg3uemvJjwUfatpu9m3LYk4ok6mZRJboj8qZ8QN9wIAN6z9OUJPVsommiIlL71JGJ7Im6WGSWzN+tdic6QSwJgPD5y1e1a+bsyVWPYFi/xT4AAmn1ds1c1bl/+vxF67EsYIgaBQ8WTF68eKORNAvhBJfVcv70TcmQOak6gTBhQsjY4Su1rBEvQTSx71RRU+DTJ2+0lCTeftTFyz8AATCAUA86BSxYKF/SSLufOXVTU69EyaTk/wlAuH/PU556vpYkyWJJx55V1WY4HTaHklmw61hBy1KUdrZtOKH6BDXrFdIMQsmy2VRqmwwTpRmc3727T1TamswUex2Ixk+fvClfPn2Rdt0rK6DBaVMGAVDgGCihEBWyX4Z7kdImY0V9GkVLxL1wRoCRedO2qhoijbkDgARcUCKils4zMFbWAAIZDmrd6FcUK5VFFszarvs5uE77/2PvKsCyWrbooru7EQTEwsLu7q5rXbu7u7u7u7vr2oqJgYqiCAKS0t31vr15PxeQ0qs3dOY9v6v/f86cmTVzZq+99vyzp7Rn0rh6yWn4+YSwdE4JoPIjCCRhU1/LV7TifTgUIqPMmWTQ6R2je4l0RkXEcrbHcVM7Zm+MJGN986oLh5we3nHDmRtzuC8UZnj+9AOatqjMZH3DyrNMRGjvSoNmDmjXqQbmTD7ARJZSe3frXY/Tgk8Yvp33cxiZaBdIEEglWD73GIdQKJEUkSLaB7B1/UUmzskpqZi7NMvwU4iF0oATyaW14tiBO6xIEGmjPSzT5nbHxlXncP/OG5QuZ4nJc7pAQ0MFu7dc5dTXNEiT53TNJkQ5FwR67zesOoeI0BieH2S0SZnLSxBobwTNc9rDwrk2zk5lgkD3UA6XkrZGnCqe8sXQXP3k9RmlyphzRlNSCa5dfM6ki/Y80RitW36aU81TfbR+FEQQaN2ZOHwHp3jP7x0Vtv3HIvBLEgSClOJ3JAWSfPs9S1EEoTjPkuRiIHmXNh1JpDVqL3n1BSU9yll3cXIx5NcWSu5D+R8keRdogxE9P2cqW8l9tFmNFnAqtFDlzBtRUD+p/fSnOPkk8tZB9+XEg74n75esCSkPBRXCgpQFMnCSQv0qLJ9AccYp5zVUv4KCbLHyVRSnbkr8VNxxzim95s0TQYY2KfHLHBaUqIm8+fzGVdI+ujeBwx8KlNUjV7MleSJuX3sFLR1VVKhsXZxu5XtN3jwRpC5RyOJrPUaeq5SBpJA8EUReaJMv7Q3IWWiDLvUzb/na94hi6rQPiPaiFKcQ6cz5LpBBpL7nzGlC9WS1g7YmZI1D3vsKehZhSfOoqJwQdJ2Cgnyh84HWBnJY8raNQlWUpbOwQvOZ2i5JNsZrRnIab/YtrFAYhn5tQr/6EiGG4syo73vNL0sQvi+Mf9b2PQgCSY6cbVBP40c1U9QrEBAICAT+9QiQukBEglRMUf5+BARB+M6Yfw+C8J2bJKoTCAgEBAICAYHAVyMgCMJXQ1b4DYIgfGdARXUCAYGAQEAg8I8gUDRBoNBXWu744z/S0v/IQ6Wi5JCpmfofaa1opkBAICAQEAj8sgjQ1i2ZrP0t+ZXCCUKaFGQiFKAiryQ2iBRzBkllSiFTqmDAi1mNuEwgIBAQCAgEBAI/FIGklBQkqyUAihlfTxBkYuVhrGiYa+fpD22tqFwgIBAQCAgEBAICgb8FAfpFSmBoKJJ14vNVEgpVEBSilWGkZvBDEqn8Lb0XDxEICAQEAgIBgYBAoEAEIqKjEaUUAch/qXwLgiAmjkBAICAQEAgIBH5RBARB+EUHXnRbICAQEAgIBAQChSEgCIKYHwIBgYBAQCAgEBAIfIHAv54g5D26U4yhQEAgIBAQCAgEBAI/HoEfSxAyMxH/+CGClyyESo1a0B8/CVIKX55pTt3cc+QyalcrDxsrU8TFJ2DjrtMY0qcdfz52SJcvzrF3eeOBj97+6NymQbFQunnvGXwDQjglrIWpIRrUrlTofWcu30ObprW++sz34jSG2lKpvB3uPHRBq8Y1CjxX/4/bT1DZoRR0tTWQmpaGs5ed0KVt8fpbnHbQNTGx8Vi87gCWzhzKt7i6fURicgqqVrQvbhVFXuf2wQeWpoZQVs5KW1xU8fYNwv0nr9G7S7OiLs31fe8RC7B/48zsn92GR0Tj5RsPNKpbha+jOg30tWFTwvSr6v27Lr7l9AKqqkrfFfu/q+3iOQIBgcDPh8APJQgpvj7wHdQf8iamSAkMgGIpe5gsXw0p+S+Td0xbuA2d29RHZQc7REbFYviUVdi5ZiqevXqPejUqIPBzGN6+90bVyvYICg5HXHwiXN28YGykC1MjPZSxK1Hg6Hz0CcCuwxexYOogzl42Y8l2jBnUGfq62nj87A0bjZL/NxruH30Rn5AMdw8fdGnbkH+l8eyVO5QU5VHOPnfSmeev3TlLX5UKpeDtGwgVZSWQcatQxgav3TyhpqqMUjYWnDzliYsbt9Pa0gSXbzxCtUplcO2uMzq2qgcFebl8277r0EU0a1iN76OEJmu3n8DYwV0QEh6FqKhYTkJU2tYS7zw+wdrCmInGx0+BsDQzxOeQCLx554UaVcpAXU0FAZ9D4ebugxpVykJVRQkJiUl49OwtzE0MsHbbcWxaNp7bEBoehfS0dCQmJxfYH09vf86oFx0Th4rlbDnZS3BIBN55fkK1iqU5wYyzyzvuv562BnYduYTypa1Rp5oDEhOT4PreGzWrlIWS0p9k0T8wBO4f/VDLsRz8g0JB5KhSeVsmRzZWZpwxkuaCqrISytpbITgsEuqqylBWUgROMLUzAAAgAElEQVQRkBLmRug6cDbOH1iK+IQkvHrrwX1zfeeFlo1rcN9u3X8BTXVVxCUkcnvo71RevHbnMShTyip7HHz9PyM9IxNBwWGo4lCKsTI21OG20Fyk59Jcof6//+DDmQsdypRkIvf8lTtUlBVRxs4KH7x8UdLSlJPYfPDy4/F67faR+1OxvC1kpKXh5x+Mz2ERCA2Lhoa6CmpVLffzrTSiRwIBgcB/DoEfShD8hg2CvGUJ6I+biITnzxCycikMJk+HcrXqXwBFBEFbSx0mRrpISkrGuav3sW3lZEyatxFzJg7Aqi1H0KFlXV7wafGlRfvUpbtoUq8Kzl1xwvwpA6GhrsoL8Y17T2FmYohSJc35OSfO32ZDI1EN0tLSkJCYgo27T6JejYoICArldKFk4H0DglHe3pqfP3dSf5y+dBfGhroIi4hGbFxCtldLdVJGOTK2ejqaePzcDVqaqlBTUcadhy/RqVU9PHB+jd86NsGpi3fgWNEeHl5+rAh4fwrMlyCQolC7avls1SI/gjCgZyts238eDWtXYqNFBOCP284Y0b8j93HT7lPo3KYhdhw4j9ZNa7LBJ8Xk7kMXbsOTF24Y3Lsdtu47ywaYDDN5rhKCcOeBC+ISEuAfGFZgf9ZsO4aWjWogJi6eFQgyjA+fuqJiWTucu+qEQb3bYtjklZg4rDuqVLBncla5vB30dbWw9+hldGnXAB+9A9GpTT1Oyezh7Y8jp2+gZaPqCAoJh521Od/TrV1DPH7+lonalZuPmfhERMUyuSHjXtrOEpZmRpi1dDuG9OnAz9yxejJWbz2GTq3rw93Tl+dEu+a1eR5cvfUEfgHBcChrg0vXHzJmR8/cRDl7K8QnJiEuLgHd2jdmlWnfsSugLHb1a1VkzIiAEhEj9SHgcxgSEhNhoKfDc69H5yZwfu6G5o2q449bTxgPIrA0PxISk1Gtkj0Sk5Lh9uETFBWIHGdyBkS/oBBUKmeLx8/eopKDHS7+8YDrEAThP7eOigYLBH5KBH4oQSDE0qOi4D96OLS694B6i1aUkzRfIIkglC9thZJWZv8PMZzCpqUTmCD079GaVYMeHZuwF3zv8UsmCLRgkwy9cdcpNKtfFTbWWWlan718DzNTAxjoamUTBDLitNhToRSy5CE65ZCxV20+isDgMEwc/huMDHRw8MQ1dO/QCPNX7eHDoChdrJdPIPZvmsl1uLh6YPXWo2havyorH/uOXUWLhtVgbmqA8bM3YM2C0bh225n/PW/FbpQuVYKNBqkL5CXmpyCQZy5RMugZZCSpX6bG+tkKAhGEyzcfo3fnZmw8ff2DGYcR/TtAV1uTsejfoxXmr9oLHS11dGhZD3cfucDN3RuaGmoI+hzOZGD/8av4vVsLRETGYNbSnfkShPz6Y2djjmPnbmHMoC6cmnny/M1oWs8RdWtWgJaGGq7ffcrqwvodJ3Dx0HLG6tCpa2hStwpUVJQxZcFmmBnrM4mxsjTmFLyx8YmYtnALrC1M2LCnpKbhptMzDjHduv+cCQMRspEDOjEOwyavQrf2DbMJwswl2zH09yyCMGlED4RFRLEyExIWCecX75goUbnp9BzGBjqwt7XkPqgoKeLqrcesIFEhoz11dC827EQQSGUghWDU9LXQ19Xk9Makxtham8OhtDWsS5ig++A5OLZjPp48d0Naejr3dfOyCYiKjsP+41dYASKSRioSqUn7j11Bckoqh8w+ePqiY+t6PIdIbTn/x33oaGkIgvBTLrWiUwKB/x4CP5QgpEVGIGjGFKQGBSEzJRXaffpCs3NXSMnI5Ksg5A0xkJElgjBpeA/sP3EVw/t1ZM+PDDYRhPeevujVuSk27T7NRkpCEPJW7vUpkA3ilFE9IS0lxX+nuDR5jxNH/IbAz6Es+5P6QB5+tUqlsXT9QTY2ZKQp7k8LvI/fZ9R0LMvVk3dKHrGL6wc8ffmePdX8DCq1iQzFyAGdWZKnMMDrt57FCjFcufUY0THx6Nq2IRu9o2dvomenJuxN9+rcDE+ev8Un/2B88v+Mds3rwNRYDys3H8WQPm05TKOiooST52+jtB2RkwQ2VmSUyOht2XsWQ39vz1L8zoMXv4ogbNt3jnEjwkMGr1a18izRV69cBmu2HUeDWpUwe9nObIJw5PR1xpQwImNJexHWbD2G2RP7MakIDo1AbGwCZGRlsOfwJXRqU58N7uA+bXH7/gvYWpvhzBUn9OvWgsMre45eRt3qDqz4VHawxZAJKzh8RARh2axhOH35LqaN7oWHT98wAWrXok62gkAho0Z1KmPVlqNo1aQmDp28hlGDOrPUT2pKxXJ22QqChCAQ6SIyRW0ngvLW3SdfgkAhn2Nnb2LWhL6Iio7F3Qcu6Ni6PvYcucTj3qdrC5y6eJvDPEQIPLz8WQ0hFYr2fCxZd5BVLhofeo6mRlYIRBSBgEBAIPBPIPBDCYJPr+4gd9Js2y5EHTuMyMMHYbRoGVSqZ8WEc5aFa/bxpkCSZ8n7Ik9zwdTBmLtiFzYsHodj527i1RtPNK7viI/eAWyMPL39eJMiGfEGNSvCytKkQAzvPXrF3h3Fyzu0qIsm9R3Z+Bw+fQOqKoqYMe53/u+c5buRlJwCWysz9mBJ/l695SiUFBUwflg3lrSp0OY3IiYUbx89sAtL7A3rVOb9AmQcyWDdfuACmxIm8Pb7zIaa9jFMH/c7nF+4seRO37duUvAmRfJI120/AVIWyFsngqOtpYFbTs+43xTr9g8KQdlSVliy7gCHEkyM9NC1fUOs2HQEERExqF29HBMMMog+fkGoWaUcenRqwp4+EQ4yTKSMLJs9jPv1wNkV8QmJrNgU1J+t+84hK0yTnNUmTXWs2HwEAUEhbPx6dm6KvqMW4dCWOVwnxdxXbT3K6gwRCiIWdB2pP1JSUhymIKWGPidvukJZG95Q2Kdrc/4v7dsg47x171koKytg2ujeTOamLNgCAz1t9ur7dGuOSXM34+DmWdh79AqcXdw4pFLCzCg7tHTf+TWeubznMaX5Q88nkklqB+E7bmg32NtYcJvJ0FMIg/adPHz2BvuPXWVDPmdSfzb8ZSi8YW6EwROWY8fqKTwWpDwQ0dh+8Dz/d/LInqxGESGl0ELXdg15f8WKjYeRkZnBoRgrc2MsWLWX51wNx7KwsjBGSmoqE6YWjb4Mxf0Ti4R4pkBAIPBrIvBDCULCk8eQNTXlTYqZaWmIf3gfivalIaun/1VoU9x58+7TvGDThjIyXA1rV/6qOuhikq4zMzKgwHHgrELhBjJSksgHGR4q9Jmk0Gf0h2ThnCUjIyuJRd7P82sYGXsyGjnrLW4HKH5NHnphz6G2ZPUjq93UXgqLkNGSFNoYR+qLpKRTm/JRc4pq18rNRzBqYOdsg/hnfRlMwPIrkp+rEroZ+TyXvqexKOh+yVhl4f1nH/Mbl6xrMwrEK+939Nyc9ebX/nTCF1LFOlqccKc2FjTW+fW1sPYWNR7ie4GAQEAg8CMQ+KEE4Xs2OComjqX5EubGMDP5OoLxPdsh6gIrDLSL/1vIjsBPICAQEAgIBP4bCPxnCMJ/A07RSoGAQEAgIBAQCPwcCAiC8HOMo+iFQEAgIBAQCAgEvisCgiB8VzhFZQIBgYBAQCAgEPg5EPhmgiAXowRjFYNCN5X9HBCJXggEBAICAYGAQODXQyAkPAJxGtGAbNZG7pxFKkQBUl7B/pmZ+slfIpMsDeVYVagoKovNar/evBE9FggIBAQCAoGfGIHklBTEyEQjUz0t314WThDolnQpSCXl/7O2nxi3b+6aVJwsMlXzB/ubKxU3CgQEAgIBgYBA4DsjkCmXCchn/ZQ/v1I0QfjODfrZq5MKl0emTsrP3k3RP4GAQEAgIBD4yREomiBQWCI9/9wKPzk239Q9qUg5ZGqlftO94iaBgEBAICAQEAj8bQhQcED6y70HkucXThDSpSAdoQAVOSXObyBKMRAgtUZEZIoBlLhEICAQEAgIBP4pBIgWJKcmI1k1EVDMP8xQKEGQiZWHsaJhrqN7/6nOiOcKBAQCAgGBgEBAIPD9EKDj34PCwpCsEw/IfOWvGBSilWGkZlCss+m/X5NFTQIBgYBAQCAgEBAI/B0IfPM5CIIg/B3DI54hEBAICAQEAgKBfwYBQRD+GdzFUwUCAgGBgEBAIPCvRkAQhH/18IjGCQQEAgIBgYBA4J9BQBCEfwZ38VSBgEBAICAQEAj8qxH42wlCeloa0lNTkJ6WCvo7pKUBaZns45plZWUhKycPGRmZfzVwonECAYGAQEAgIBD4mRH42whCZmYmkuJjkZKUxL98oP/R/zMypZAhBUhLESGQQkZmBpMDOXl5KCgoiDwPP/PsE30TCAgEBAICgX8tAn8LQUhPT0dCfAxSU1IgIyXFBytJQQYZyERqehqkpKWRmZlFEqSkpSAtI8P/lpGhzzOhpqb2rwVQNEwgIBAQCAgEBAI/IwI/nCDQYQuREcFAJv6vBmQpB8lx0QhzdUJKRABk1Q2gblcV6vpmkJaWhkx6Al2MqNhUzJs8Aet37YVKESQhLikDDee4Y/Ngc1SxVkFCSgb6b/wEc105LO9j+reO3V23WPTb6MPPNNCQQ7daWhjRXB9ysl934mRiSgYuv4hGTTtVGGnJ/a19EA8TCAgEBAICgV8bgR9KENIzMuB0/yFK2VpBSUkZyMyAtKws0mMjker9EtKxAUiJCkOaii4SpBShXroe1PUNIJWeACkpaSQkZeDZyZ2ITpFGx+ETICtXsJGMSUxHyeFvcHqKNWqXUkV8cgaaL/CAtYEC9o6yRGh0Gh66x0FWRgp1SqtCXUmG/60oL43I2HSoKkkjNjEdZc2VYKgph9efEpGSlonK1sp46Z0An5AUlDBQQAVLJbwPSEJUfDqq26qAjLjTuzhUslKGrposz6arLtFosdATa/qZIjw2HfvvhqOOvSr2jbKEjLQUPgQm4aVPImyNFeFgoYSohHQ4e8TD2lABrp8SUdJIAWXNlHD7TSyaLfDAgt+MMaixLnTUZPHUMx5+4amw+f81SakZfK+5rjzeBSRBS1UWVUsq83NEEQgIBAQCAgGBwLci8EMJgoeHB5auWI/unZuiZsXKSM5UgLKGOpK8niM9Mhqpn92QHB2MNM0SyNQpAVktfZjYleYQgxSFIaSkEB3sD9d9i2HcZjisS5crsJ8SgnB0ghVq2qkgPikDbZd+hI2hAjYNNkeZsW8Rl5iB+KR01C+rhiszbVBhghsCIlKRlJKBfo10ccQpApPaGWBye0PUmuGO9lU1WYHoudaHPfiQ6FScmGRFPAcDt3xCyG4HXHsVg+6rvXBrri0qWinnIgjpJytxOOXU40h0W+WNt+tKIzohHQ1nf4Cpjjz8wlNwbqo1FOSkUW+WOxMEv7BUyMtKwXtLWfRe54MrLtH87+MTreARlIypB/yZ1JD5vzCtJCz05VF35gfoqsvgvX8yP995mR3KWWS1RRSBgEBAICAQEAh8CwI/jCBkpKdjQL8BSM6QQbu2lrCPi4BW7cHQMrFE8OMrQFw0Arw9kBQbiRJ2ZSGjbYq01GRoGVhAzb4c5BUUmSAkJSfh8PTBuPUpAQdPnixw06KEIFDeKDKgtIeBDHr3WtrYMNAMTm5xLPE/co/HgpNBiDtcEdWmvIOKggyOji8BbTVZDgvQnoctQyxQfpwbXNeU5s8SUzIxrJku1lwMQQl9eawbYAaH8e+wZ6QlqwVXXWLweEkpqChmZWKSKAgSgkBKRbP5Hjg/rSSmHwqAnIwUxrbRxxGnSLh4J3A9RBD2j7ZEUwcNlB/vhp3DLWBvogj70W9xaGwJNCynxmoCqSNLe5tgyFZfRMWnYW1/MyYIg5vqYlQLfVSe9A4T2hlgeDO9b5kP4h6BgEBAICAQEAgwAj+MIPj5eKNbt64wNLWBtVkGykIKjaashYmRAR5sW4D4qEggMQ6hiVJwLGsJDbuaiP7oBkV5JSg61oWiiiqkUlPh4+6OCRPHY8DQkejUqzfkFBTyHbrCQgyzuhqh6uR3MNKSh6ZKVmgh/nBF1Jj2HvYmSjgyvgTXSfJ9n/U+GNZMD5deROPyjJKoPcMdaemZsDZUREZmJocgpnc0RLfVXpCVlkJYbBoalFXDzM5G2e3KSxBOPopEz7XeeL7CHq0XezKBcbBUZjJCRGZkCz00mPMBdxbYoaatChwmvMPcbkaoYasKq+GuODnJGjVsVbgtpHAMbKyLleeDcfheOE5NtmaCsOJ3EyZD9WZ9QNuqGpjQxkBMcYGAQEAgIBAQCHwzAj+MIPh/8sbkiRNY1q9mb46M+GiMWrwWqiqqiHlzHxmxMUgP9QXkaG9CMjL0bBHp5gzN6o0hLy2LlItXkOj8GOffuOOpdUksWLkCBqbmUC1gs2JhBKFeGTVM2u+Ptf3M8OhDHLb8EZovQSBj7Tj5HSLi0zG4sS6mdjTEsO2+7OXP6WqE669iULGEMnrX08GO62EYt8cPGioyeLbcPtcmQglBWNbbBKExaTjxMBJ1S6thz0gLDN3my/sMFvYw+XNPhL0qKwh5CUKDMmow6P8Kg5voYWI7A4ze5YfIuDSMaqWPxSc/o3UVDVYOBEH45vkvbhQICAQEAgKBAhD4YQQhNDQcY4f2R0RMAtq0aAIluQy0aNcZUvIKyHz3CP5vXXH7vjNU5QEbcz3Y1GvDv2xQ1dNCuv8nBO47AVk9TXzU1IOnqhH6DB4OFXV1aGnr5NsV+hVD7RnvsWOYJRxLKiMhOQO913vDQk8B87sbo9OKj/D6nIzutbVx5H4E3qwpjXbLaI+CIjYOMsuuc8npz0wgzk+zRgVLZd6j0GutNz4EJcFSTx77x5TgjY+BkakwGfgaLStr4NL0krnadOdtLCsRVGjjYodqmpjU3gCKctJITs1A/02fQNdY6Svg5CQrfApLQZcVXrzPoLKVMocSxrcxQKvKGlhwIgj7bodjy1BzbmufDd74+DkZ1WxVsGOoBfez80ovzOhsiLZVNNFlpReaVFBngiOKQEAgIBAQCAgEvhWBH0YQ/AOCsHnDWkQFemHwwEGw0JJD7Gc/ZJSshsSAj/B6cB8ZkMez54+hIZuAChWrQFlNDZc/yKBpPXvYWKhDXkUNz52coGpZAcYlbKCsogJd/W+TzkkdyEQmbxr8lkK/VpBsDiSjPHq3Hw7eDceBMSXQpYbWV1VJmbWpDiU5aT5I8msK9SM5LYPJhigCAYGAQEAgIBD4UQj8MIIQHRWFyGBfqKdE8RkGaVFBePfwNvSa9MHr1y8gF+QNf1cPeIYGICgsHGUM1eGbogm3eEvUbNAKv3cqDfnkQNxzuod6zTvyPgBlVVUYGpv8KCyKXS/9QmL20UD24jtV1xQ/KSw2cuJCgYBAQCAgEPivIPDDCEJ8XCxCfDyR8u4DLKuVQmqoD1zv3UCcUVnEpmdCMSMBAR+88ej+A8RGR8LA0Ap+SrWhqGEMWXlFlC5lipbV1aGmpoC0jExEhEfAwNgY1rZ2/xVsRTsFAgIBgYBAQCDwn0XghxGEtJQUBH14i8yASMgYKSImJAAJQT7Qrd0BYaGfoZQUAL83DxEfDzg5vcazWHskpaZDVkYWSur6kFfRQgWHkmjuqIqkuAi8f+uKbn37wcjk7z0V8T87sqLhAgGBgEBAICAQ+AsI/DCCQG367OmKkI/+ePM5EQGfQ1HeSh/Vm9SD33tnGKpm8MmK5x8E49h5V4THJCEpIRLJidGQlpaBmp41NPTMUL2CJTyfH0GVCg6YOGu2SN70FwZb3CoQEAgIBAQCAoHiIvBDCUJ6ahLePb2PAeM2IDQ8CqVsS+D4gUWQTotDZlwg/CMyMHLeZQQHhyA9NRlpaUmIjwvlVNDyiipQ1TBGKcfmyIh4guWLxsHGxqbQfqWnZyA2LgFqqkr/iXTRKalpoK2T8nmOkE5MTIaSUv7nPeQEICU1FRkZmVBUkM/+ODEpmf9Nh0x9a6E6qE2ULOtHFjqKm/qqqqL0Ix/zl+umfCKx8YnQUFP5y3XlrSA1NQ2x8QnQ1lT/qrrpDA1KavK1w5yUnIK0tPRiY56ckgoZaWnIyuZOvx4TGw9lZUXI/svTshNOycmpUFT88x0pCGjqK72PCvIFX0v1hYVHQ1dHo8B3jPBNSEyC+g+YL181ScTFAoG/iMAPJQj0st2/dgljZx1EaoY01OST0b2OGqQykiAvK4vPqUY4cScQaWmpSE2JQ1xMCB9GlJGWwrkYZOUUoW9ZEWNG9kWfTo6FGn0+AXHfWbxz98G0Mb1hbFi8n/l5+wbBwtSAk0R9S9l79DKeuLhl39q3W0tUq1S6WFVdv/sMlOmyecNq2dcTyVm/8yTGDelaZB1/3HbG55Bw/N6tRfa1a7efwO/dmkNL49szYK7bcQKtGtdAyRI/Npzj4xuENduPY93CMUX29XtfQOTKLyAE1pZFb3oNDo3AkIkrcHbfku/dDMxbsRuxCYlYPmvYF3PwzTsvHD5zHYunD8n1XL+AYMxftZevnz62D8/f4pSQsEgMn7wKbZvXRp+uzYtzC85cvocS5kaoUPZPcn711hMcOHEVS2cNg5mxfrHqye8iIl40BhZmht9cR1E3RkbH4sT52xjcu21Rl+L8H/eRnJyCLm0bFngtOTqd+s3AhUPLkJqSBllZWWhqqOa6fvzs9Uz4Zo7vW+QzxQUCgX8zAj+YIAAZGWmYMWsrLl9zQkpiNErZZOUykFNQR1B4AqKiwpCUEIH4uDCkZ6TzyYJpqbGMmZycKpo1b4Edm+dDUbHwbIZhEdGYOGcjls0eDh0tdSYaYeFRzOIlHmp8QhJowdDSUIWykhIiIqMxYtpqLJ89HIZ62iBvTuX/3ix5SHQvKRJp6elMTtRVlREZFYvklBTo6miy9zRi6mo0recIW2tzbjMREwUFOfYuYmLiICsnm22s4xMS+X4tTTWoKCvh1MU77M01rV8VqWlp0NPRBHnVMxZvx7JZw7i+8MgYpKWlQV9Xi+skIkR10HW3nJ7DLzAEE4f/lj3Hpi3cilEDO/O19ByJukD9pv7TMxTk5fj+kNBI9gzps5xl+qJt6NquIQwNdKCqrJSNH+FDCyThKfGOiNDQZ/QcyUJJmFE7ExKTYaCvzXkjchb6Pi4+ERFRMZixZDvO7l0CqicsIgpysrLcbho/uk5RXp6v09HW4HYThuThEQY0BknJyQiPiIa2ljqUlRT5MYQptYlUGE31rMWbxjMmNgG62hqQl5fFuw+fMGPpduxeO40X85SUVMaaxlgyB0jdiIiOYQ+0da/JcHM6mKsfUTFxiItPgJ62JhT+r+JERMaAPFEar7wKDOERFR3LOCkpKoDn7NxNWDR9MEyNch+NTe3vOWwe1FSUcWrPouznsgEbNBuzx/dljLcfPI9tKyYVi+BeuPYAl64/wrLZw1gNobZHx8QzjoStBCfyfnW1NXlu7D58CXYlzVGralYeFFIgBo5fhm7tGqJFw+o8xjIyUkhMSuH3TjK2NKfk5LKSl9FzYuMS2eum8ZWUoOAwzFyyg4kGjQGpIaHh0Ywb/Vs6T8IxelZkVAyPNeFH+FM/aK7T3NFQU+U2ExEi8kRjHR4ZjW37zrHTQPNfTTUrRwnNHw11VX4mjRnpMRevPeD+Df29PY8hrR90TU6FizAnUqOvp4Vt+89BW0MNnds24PbQdz5+Qeg2eA7PaQM9bZAaR04ArR/KSgo8x+g6ahu1kZ6tSH2JzprPnP02KhYGelq5xpT6Tg4XvxMK8twuKjRvaR5J3knCmuoj1YeeRWPCOW1i4vidlSiLrIRERPPz9PWy3lGaC3JyMoiKjoOGugqvUaL82gj8cILAC0RcAlav3Y/jJ68iJTkS6mpaUFLSQXxSCpKSEhEfG4zE5DhiE8jISEVyYiRk5JTRs0dXLF44HRrF8IaPnb2JzXtOo2n9aujWvhEWr9sPHS0NBAWHY/H0wSwxTl2whV/Cjz6BWLtgNM5ddcKBE3+gVZOa7MW7un3EgJ6teUYsXLMP08f0Qd/Ri/jshN5dm7Ph2HngAjTVVWBhbohRAzozQRjSuy3Kl/nzsKRrd57iptMzfulc33thyYyhMDbUwZgZ62BpZoiwiBismT8KV249xtOX75CYmILA4DD81qExe3cSgkAL+rGzN6CqogxTY31uz4vX7liz7RhMjPR4sSAPOCdBGDdrPRMdWpwDgkKxf9MsuL77iLXbj8PCxJAX0PlTBrLa4u7xieto2bgmOrWul/0mTJ6/mRcJTQ01ePsGYvX8UTAx1MPk+Zt40QqNiMKCKYOgp62B6Yu3IS0tA/6BIZgw/DfUdCyLoZNWsMGkRalyeTsmLJJCC+KYGWthbKgHKWngvacvL6abdp+Gh5cfL+KkiNiUMMWyjYfYcJHBopDHwumDcfDkH3j11pMN/6zxfTF21no2GOTlb1oynhf2UdPX8GIYHBqJKSN78EJNpIfICpGiVfNG8uJ+8uIdjBrQCe1b1mVDTYu9h7cfE8YS5sbcD1rIU9LSQF5zToLg9SkQc1fshqmRLpJT0rhOUnTIs6Z5p6KsiHlTBmQbxMDPYZg0bxOM9HXw0TeQ58T5q044/8cDNK5bBXMn9c+1Ei1dfxB1azjg6NlbWL/oT4XlyQs3bNh5ksc1MyMTvUfMx8Jpg2FlYVzkSjZ8yip89AnAkD7tUKe6A4hMGujrsAFbOnMonr92x6I1+1mRoPDXijkjcPTMjVwE4bXbRwwcvxSOFewxe0JfrNl2HL4Bn1GvRkVUq1waq7ccg7GBDpOzWeP74Z2HDz+npJUZQsMjsXnZBCY9VI6cucHj3rZZbQzq1QaHT1/H2/feSEtP4/e4c5v62X0iozlx7kYey5i4BKyYMxy7D19E7WoVoKujjiETl+PotvlYvvEQj3tKSgrat6yHWlXLMkEY3Kcdjpy+jtGDunCd9N4unDaI3/ntB87B0EcR9OwAACAASURBVEAX8fGJcChTEoN7twOpAEQ4g8Mief5LwktEbBt3HovtKydj3qrdUFJQwPhh3VCpvB0b6817z2DrvrMYPbAL2reog+WbDjOBJczpHb957zmkpKVQ3t4Kw/t1xICxS2BirIeYmAQmrjTX6f2l+Uv4S8rJ87dx++ELaKqr4b3nJ2xaOoEJx+gZa5lMUTvnTuwPZxc3HhsioUTkNi0dz2R1/so9/N5LSOvJC7dx/toDKCnI85q4cOogns/RsfFMdvyDQrBn7fQvQktFTjJxwU+FwN9CEAgx8hBPnr6GEycuIjoqA6FhoUhMTkRiQiSSEqOQKSWL9LRkJhD2pWwxYEBfDBrYt9h7CejlJMO2duEYXvzJwPXv0QrPX70HhRF+69gEgUGhbCRowTDU1+Hv+45ahC3LJ7KhfvbqPcYP7c4DTAvEyrkj0WfkQhzcPJtf/hqthmLXmqn8wk1duJVfPvovsXD2uGRk0Ld7C7xw/cAeLMmapBKQVDygVxtWLMjQ7jh4gYnAuw8+OHvFCXvXz+A6xsxah/WLxjJBoJeZCMXsiX3ZGxg5fQ0WThmEhWv3Yfro3qxY0IJJRCEnQRg2eSUmj+gJS3ND9kBpESJPgEgNeRnzVu3FhsVjue5RAztBTVWFDTMZDEmh7xrWqYR2zeuwxHzngQsa1KqI+86umDyyB+P01OU9GtergjOX7mHKqJ7sCW3YdYrDBX1GLmDMyJOr2nwQPB4dhfz/PVRawEvblUDrJjWx79gVnLlyDyvnjMCEORvZeNA9q7YcZQWly8BZOLZjPsvY81ftYeJ38dpDlLa1RItG1XkcSd0htePE+VtITUuHtqYafPw+Y+a43xEQFIaXbz2YpJDyQKRi5tId6NGxKaxLmGD8rPU4un0eLt98DD//YHRqUx8urh9ww+kZSlqYZJGNgZ1x494zjJ6xBm5Oh7IxIkNL3hgRgUlzN2HV/FFMKhvWqoSGdSqDDGkVB7tsZYHG3NrSGA1rV4bT41csZy+bNRyjpq/GuoVjcy3EFHrZf+IqE8LxczbmIghEah89e8sGncqoaavRtV2j7PEjw05eLBVlRQWeHxKv8fb9F3j4zBUzxv6OXiPmo2vbRqheuQxWbz2KNs1qMRkY2qc9e8c0BvSZu4dvLoJA9dL4ThrRE+XsrTBg3FLMmdCPlbOm3cazobGxMsXSDQcxbVQvrN1xAl3bNoSRgQ4odEXPo7FnxyE+EVPmb8amZRPg6e2P8bM34tiOeUhKSkHvkQtwbPt8xpcKvdtl7EqgZeMa3E56RikbC4yYshpVK5VmY0zqCs2TM6RIZWTg5IU7aN6wKs+TAT3bYNv+s5gzMYuIdRkwE1tXTMKEuRsxb9IANtJDJiyHY0V7VhmIAA7p056JPuE5bXRvvo8ItV3N3+D97CQOn7rGZJDeZUkhctJ5wAzcPbsR/oGhvD7s3ziTjX7P4fOwZ910Jrsd+03HhsXjMGbmOowb2o1JYv8xS7BmwSger1I1e8DjydFsL37XoYusqhGR2nHgPBKTk4FMKSYbRHJpvpHRb9agGkLDImFmYgAKfxJpo7WOiNeYwVnkiAqtE+sXj2MnhtpC4RC6nt4rGp9Zy3ayMlq3RoWfyuCJznwdAn8bQaBmkawVHR2Hj17+uHDpLpycnODu/po/NzU1R5UKdujatQPKlisDbW3tr9pol5MgkKdG8hp5fyQ321qb8aSfsmALy+n+QaGoX6sSRvbvWCRBoBecPEpSIsjYdW/fmGVJ8mhItqSFlORWMnr0sqmrq7ARI1Zfr2YFPH7+Fqcu3GEPZuaS7TA20oVfQCgbWoolkwTZq3OzLFIyZwM/iwjC7An92MBT26kkJCRhxIBO7NWSx00y/OFT19kryUkQqL0Th3Vnr4D+3qBWJTai+49fZc+QPKYrR1fB+YUbqyfefkGYMLQ7GtSulD1zyOMjQlW+tDXI8x0yaQWqlLdjNYQ8VQp5aKiroULZkuz1WZhmxZBpYSVMpszfgpXzRiItNQ3WVbvijdNBlu6pkCJD7S1bygpv3b05xDC4V1tWC2jvBm26JFmYFAoiQGTAqVAcmRQcIlU9OzflkFC/0Ys5LEULIEnD5iYGLHnTIlmtkn12fz54+mLuyj0cMnF188SEYb+hXGnrbIKwZe9ZuLzx4NATzUXyUj94+aF7+0Zs0H39g9H8twm5FAQilGu2HufxfPLcDQc2zQIp4tsOnMfzV+680I7o1zHb8JMH16dbc1iaGfEzCIcdq6di3Kx1uQgCkZLGncdgwdRBjDXtNZg/eQAM9bVZvbl57xmTto1Lx3P/+o9ZzF6xZI8AyeKrtx7j7+h+UmMkUn9OglCyWjc0a1CVDRB7xXWrsIEhpYrnW2ISendpzoYlZ4iBvstJEIjYzRjXh9Rv1G03kvtN7wcZUlLYVm09yjI3FZrr9B7S+FDJSRCu3nqMm07Ps73mzgNm8t4Lyfxv2nUcqzokfSclJaNWtfLo1q4Rdhy4gCcv3mLH6ik4fekuk8MJw7JIPhUKPRRGEPqMWoSj2+by3N156CLPbU/vAAQEhbCRpXWF3iUinFS+liDsOHiex5IIEBndw1vm8LpG73qz+lWxfsdJVp+I7NB7P2tCX54z5hU7MiGVhO32HL4EPT0txu/cFSe8fveR1TBSPGnsaX2as3wXZo7/ncNCNL/L2Fpi1+GLTE5oHlQsZ5uNy8hpq5kgkDq6dttxWJobMRHu06UZEy76jNRJIomi/LoI/K0E4UfCnJMgZDHsFAzv24ENKBmdB86v2Ug1b1QdC1bt5bgbEQQywqQgvPP4xBLkirkjQB7cik2H2cOQEARauOu2HY7DW+eyISKVwLFCKYyavhZ9u7VAWXsr7p68nCzLxrQoEvsmSZjkwYzMDFSrXAYdW9XDwlV70bJJTSYIFGYgD5IWT2rXqvkjsxWEyfM284JB7XZ++Q4Vy9qwNDpmUBcmJLSgkOHIuweBDCDFe6ct2oq61StwH45sm8ubzYZOXIF9G2dyqILkVGeXd9wH56vbs2OeFKao4VgWnVrVx5nLd/HA+Q3q16yAZ6/cMWdiP5bzKRRAMcwrNx/zokSLPYUZiFSQR72iAIKwcvMRbkf7FnU5XEAKwvJZw3nx3L12KkvbXj4BbPS7DZrNbSW8F687wAb74vWHTKgoRrt9/zlWmGiRdP/oy3sTHjq7wtPHn1UN34AQhIZF4faD56hVtTxqVC6L4VNW8ia0iuVseOPh8R3zcePeUwSHRqFP12ZMHqlvj56+4V8XkFR87Y4zxs9Zn0tB+G3oXDbMDqVLspFeMnMox8fNTbPCOKRMbVgyLnsT385DF2BsoIemDRxx79FLDkdQmCGvgkB7JWYv28VziebM0xfvmLyNHdKVY+LaWhroNXwee9fkJY+ctgb71s8o1q9echKE30cu5LBZozqVOWRDJI/IyIgBHVHCzBAv33gywSAyUihBmLsRM8b24bBByx4TsWreKJQtVYLvp7mwYPVe9OjYhDe8kppDahApcFRI1aG5R8oRvQtE4ElNo/0Mgycsw6Etc7Lj/1MXbEVlBzt0al2fx5qIPo0TSezlSpVAqya1OH5O7xCpV/S+Pnv5np0OSYiBFB4KTZBh7Tt6MY5tn8fKxKQRPXijJM17MrYk7xMxHj+0G5NDwlmymTUnQTh+9iZkZGW4f5KSV0HYcegCFkwZyMSViNWWZRMhryCHXsPnMzEYN3M9v/OlShZBEI5cYtwoHCohCLxXJyMDw/p2xLOX73D97lNMGdULg8YvQ8kSJhg7uCuHcGj+Xj+xNpdKRQSBSDiRx99HLWRiv/foFd68WrWiPYckrS2M+b2hPv/IjaQ/0i6Iuv8aAj8lQaCFZ/qi7RxTpfj06nmjeIMPGQTa4EPSqKmJARMEkhhfvfHkHeoDxy2Fb0AwG8bPYRFYNnNoNkEgmF3fefGCEhsbj/at6rLnTQv0vccv+VcZVOZPHcReR16CQF4vxcYVFRR44SQlgmK3gcHhuH6Xfo0QgcXTBqN+7UrZexDIkMxctpM9cVoYaCH78NGPFzJZWWlUcSjFm5UKIwj1a1bkcActFGR0aWHdvmoyNu46hUOnrrEHSffn/CUFxetpUSQjSXIzESjyZBatPYBbTs940V63aCwsTAxYQSGjTbFNWnBINaHNogURBApFDJ+6CkGfw7hPD5+9wZk9i3Hw5DWQjEr5Mkg9KVXSHONmr4eZsQHuO79GiwbV2VOlX3hICAL9EmHCnE149caDJextqybzngWKpdKYkFe4dsEY3mRIhoRIk6aaCrq1b4ym9R3RfchcxmPZrKFslEntoXvIyNlamWL0zHVwfeuJ+rUq4swVp1wKAm0Qnb18J/R0aDOZFFbNHYW3H7ywZO0BUn7RrlltDldJfh5IY0CEj+LHZIzXLBjNbR4xddUXIQbJK03q1/jZG7B+8VgmdNMXb8e5/UvZ01656TBLzhRuatqgarFWgZwEgTZ+Dp+ymsNuDmVtsHreSN6fMG7WBkTGxHAcmzx4Um6KQxBIMaP7qb3U14a1K2He5IH45P+Z3xEiT3YlLVhCl/zChsKO81buZhJNm0XvPnrJxpyUkmljevHmXUmJjo3DuJkb4OHtz8aa9mUQ2ezbvSWHIZp0GYeLh5aD9v+QVE77KshzJ5WL6pw8qifmLt/NZLBRXUcOG2xYNBYfPwUyMaE6KpWz5VDJgB6tMWvpTjx86srrx5YVE3nvSF4FITgknOfQ9DG90bpplqddEEGg72gfC+0tIQVpWL8OrDy27jn5mwkCzS9yAogI0VwiwkEKFTk3pCjQv2lvFu0DobHIWYg0zFu5h9UMUg0oBEPhjrwEIT4hGY9fvOU9W6L8egj8NAQhv6HLOhNAIfu34rTgkleW99wBWqgkm3fI85Ds6M6vTrqWCEBxzinIez/9UoH2E+T9SSWFAEjqy++nlrSYkEQoieFTndQG6kfOHeFFTV0ypnn7TTFbaRnpAuuh55KHnnM3OXlCigpyudpKeNDPvfLuOi+oTfzb9JTUXOc30LX0GdVB/aINlkTGJN5gzrMe8tYbF5cIFRXFXCEpCjnQOEri79RG8vYIf0mhdtAfCe5EJGijWM6d3lQPbdrKrxB+NC45z5ygscxIz8g1Xjnvze+eosZO8j0pYRKMyaujdkti9MWtI+d11Hci0yrKytnvCH1GWEl+lfG19ZJHS5hJflEiuZ8+K2gMc75/PE4y0vnuPaJfOCUkJvIvkAo7/yG/sZa0I79zQuj51O+8Zz2QQkFjX9i8pjGhthT33BF6FoXF8r6LX4tzzutJcVEqxjkPeZ/Ba0sateXPX5bk1w66rrj9+yv9EPf++xD4qQnCvw9u0aLiIkBSO3mDOXeyF/decZ1AQCAgEBAI/HUEBEH46xiKGgQCAgGBgEBAIPDTISAIwk83pKJDAgGBgEBAICAQ+OsICILw1zEUNQgEBAICAYGAQOCnQ0AQhJ9uSEWHBAICAYGAQEAg8NcREAThr2MoahAICAQEAgIBgcBPh4AgCD/dkIoOCQQEAgIBgYBA4K8jIAjCX8dQ1CAQEAgIBAQCAoGfDoGfhiDQIUTX7zylE0v4+OHy9tbFykRGpyMa6mvxiXhfW+ggoacv3/MJcnTsMp049zUHitAhK3T2e85DkApqAx00Q8e+0smJb9578RG5RRXq2+eQcDSp51jUpd/tezooh47upeQx5eyt+eja4h6gRI0o7uEtkoyVRTWc8j1QGlvKMlncQnkZKpQpmT2WlPWRTte8df95sXAv6Dl07DflIrG3teR+Oj1+zUc+S1IQ53cfHbxEhRKBFbfQ6Xld2jYoVgro4tYprhMICAR+PQR+GoJAyWXOXHZiQ0AJW+go1X7dWyIyOpbzBJgaURKarBzokhP06GxzMvCUoEZRXo4TIJHRpgQvlLCnqHL07E2YGOrCytKEjyUmYkIZ5+hENjqxjY5ppYyCaipK/Hd6Lh2pTIu+qZEepzq+cfcZendpyqmV6Ts6PpeOdc17UlxUTBxnAaQMa7HxiXzcMZGimJh4PmaV7qVjiilbpKRQvwkX6icdvUrGm46SJRLzyT8YqiqKnI2OSIS+rjbfHx+fBHU1ZU6pGxERzdkAJcl+isKDvqez+ykfPR1xS0dY04mPdao5MCZ0+BG1hY6XJoNH+RSo0NG8dKIfjRG18/LNR+jYsh70dDV5vIgcUb8kmNAxweev3uekP9R3ygBJp8lRzga6JiIqFrFx8fzv568/IDIyBk3qO/J1NA5FGdtdhy/x3JEQGzqXn3CjzJuUNZDS91I9dBw1Zeyjo4MpiVBRhU7ypBTH7VrUQUBgCOf/oEyAVD+dPEjJxWiOUA4JOq2SsKLDoujkvQY1K0FBQY6fRwnBKDNlXEIi0tPS+ax8I0NdPn1ST1uTs2QO6t2W5yDNC2o7ndRJaasprwedEEj//pbTQIvqo/heICAQ+HkQ+KkIwi2nF5yhjgz8rsOX0aVNfZz74z5n/qMjg+lUPjpjvWolezZEzRtURWR0HBMESvLTqkkN/pxyOHRp0yDXKEdFRUFTUzP7MzJIlD1t6cwh7KkRsaBjdE9evI2wyBjUcizHhjcpOZWT7FCSGWrXg6eunPmO0tVKQYpzvHdv14iJzFt3HzYQlESJMhvmLBKCQIlU3nv4snElz5YSQCEzEx+9A5GUkgKHMtacwZEKXecXGMzJZ16+8WBiUKmcHV65efLRrH6BoejZsTF2HLyIqaN6MuF4+PQNp4ilLI2GejpITExCz87NchGW1NRUxMfH58KDnkdH3I6dtZ6TFNGRxtQXIij3n7jyM6tVKoP09DR+bmJiMupWd4C2tjqTCkr2Q8SECMnlG4/Y+NMRsPcev4KqshLnkZBkCiR1gkgEYUy5FC5efwQtTVU+vrZW1XLcdkoIJS0lDRtrMzboGmoq8A0M4TkhUXkK6kdegnD60j10aFkXZ6/c44x4hGXbZrX5nHtSf3z8AtGveysmDZJCylBcXNwXGFGWSMpIScdDd2hVjxM3ERmjFL2dWtfDm/c+CAmNQHRsPKcqpv4TVpR6+/q9p9zHoOAwzmT4zvMTnrm85xTFlJ5YViZrHhIBGPp7e2zee5qTI1F+AEooRJhRDhBKsFW7WjmeF6IIBAQCAoGCEPipCMLmPWc4mx55im2a1uTkKORZKSnIsyc5oEcr7Dx4gVMtk9d6+4ELJ34hgvDJ7zNMjHTh/SkQZUpZsTcnKWToBg0ahJ07d2Z/RsRi3fbjmDspK7+8pBw4cRW1q5aHqYk+J0OpU92BvWAdTXVUr1IG7h6+nDHQP4iMVQNerCnhDGVXo9SqMtIy+Bwagd+7Ni+UIFASJTLIRCaovx5e/kxEQsKjOGd8ToJA58lTkqeK5W1R0tIEx8/fgrqqCmeEpKxvi9ceyEUQNNVV4O7lz96506NXnD5XknaW6nVxccGmTZty4UGfk2IxZ/lurJo3IlfbKXOhuYk+G2tKD0yJoVJS0rj9rZvW5JTC5Ol6+QZyspiLfzxEj05NsHDtPk6gQzkV3D/6YXCvNtnhmFMX77LRjktIgJu7D6f3pgQ0owZ0wvk/7qN65bLcN/LGKUWyva0FJ9Qhz1lS3r59izVr1nzRj4IIAmUm1NFW52Q+VHYcvMBJpWg8icSQrC8pHz9+xJIlS76om87ip8yONO8a1a2CddtPcNsoiRUZdsqgR4pC6VIlYG9jAZfXHyAlLYUSZkZYs/04GtapzKnGifSS4kMEgMbm2u2n+K1jY1YNKAXysH7tmYiEhkezUtH/t1aMD6ULpuRaRDgKy2cglkyBgEBAIPBTEYQ7D1xYSt5z5Ap6dmqMQyevo0Xj6lBWVOD0z5RhcfXWY2wMQ8KiOOMf5ZgngkCGg7LJkdTbomG1IvcvkFxPxnDC8O4s95JxDg6LwovX79G4bhWWh1dtOYZ+v7VkaZ9SEVNWQvKE1VSVON1v59b1cfHaQwzs1Rojpq7B7Il9OVFRZkYmy+tUyAMn9YMk+AfOrpyKlZQBIghk6mytzbBy81G0aFQNmupqTDgG92mbiyCQV01eKMW8KREOZVyMjUtkj7imYzlOTz1hWDdOtUwZ7KjtlA3P1soM8YlJMDbQLRIPeiARKUrLS5hQHdExcUxcyHiTISXSRN9PHN6dVRfC3N3LD/HxibCzNsPV287o2q4hzl+5j95dm2Hhmv3o36MVh3+obRTCkXj/Jy/c4dTZl2485GdReGLphoNYNXcE7+ug1NQ37z9Hq8Y14eLqwaGOXp2aMfZFlYIIAhl2Mt5EECgzJIU5GtWtzGSHkhtpa6oVVTV/T4oJpVImckfhAFJGJEmjaD8CKVE0JkQCVFWVkZmRwWEsSo/dt3sLTtZFpO/lW08Oo9A9tP+mW/uGnPBq676zTIau33Fm5erOQxe0blKLM0KamejD7YMPWjSsXqy2iosEAgKBXxeBn44gtGxcgz1SkmYp5eydhy/YOJNhprS9c1bsRuVyNoiMjkeTelXYuyeCQIvx5r1n2IOjBbs4xd3Tl1UIksYpDtymaS3cdHrGBMHIQJfjx8Gh4UhPz0TLxtXZWFK6X0qxTB4zKRqULpm86PS0DLz94E3RAt7wSCmhqXh6+zOZIGnZsWIp9upzEYSS5jh29hYSk5K4j/4BIV8QBNpn8PKtB9ftUNqapfa4+ATeb0B4kcHwCwhmgkFx6TrVy3POeSImtNehXfPaxd586RcQwlI2baYkgkAhH3dPPyYIlFOeSMpHH39kZAJ1q5dHckoa7j95xSQrNCIaA3u2xvYD53kjn4GuFp68eAsZGVkmQrUcy2a34+Cpaxz7pz+0GZNwuX73KSYN/41JA2UopDh+CQtjREXFwrakGS7feMwKRVEZEGcs3s4pmYmBkaF9/OwtqxXnrjpx+ObsVSd0b9+IlQmaP7S3gNQfCncUp+QkCDRPfXyD2OhT2mbam+D24ROHe2jvhpycDGivS6/OTfH8lTurNHQtzSdSVYggmBnr4dzV+6ws6GhrcJiM2nv07A0OE8UnJuK3Dk14jq7acgQjB3Ti+0QRCAgEBAKFIfDTEISCOkmeGS2otEmOvNCNO09izOCufLkkxbPEU999+BI6tKzHoYbiFtqoRjvTSebNL11zVipkSpmclWY4OYXSEMvnql6STpUMDXnIOdtFF5L0TBsXiFgUVGhXv6ycLKsK+ZWs1M1/ppqmdsnJUarirKvz+1VAYSl6C8OHFJOIyFhoaqrmuyGQnkV4SPpJqahJOcn5CxBJamOqi/6eNxUvPZ++o3oYYznZ7PABXU8KyNdsrizueOe9jtLlykjnn6q7uHVSHTQOks2TqanpoOlCBI0KETsaf8Ina9xyYyV5DvWZ8JDgSPOe6pXMvU/+n3H83C1MGtGjuE0T1wkEBAK/MAI/PUHIObZkUCgeS780yFto8SQPq4ydlYjN/sIvxM/cdRfXD7A0M+Jf64giEBAICASKQuCXIghFgSG+FwgIBAQCAgGBgEAgCwFBEMRMEAgIBAQCAgGBgEDgCwQEQRCTQiAgEBAICAQEAgIBQRDEHBAICAQEAgIBgYBAoGgEhIJQNEbiCoGAQEAgIBAQCPxyCAiC8MsNueiwQEAgIBAQCAgEikbgmwmCXIwijFQMikx8U3QTxBUCAYGAQEAgIBAQCPybEKDzeYLDI5CgGQPI8mEsuYpUiAKkvIL9MzP1k79sd6o0FCKUoaqkXOxT9v5NnRdtEQgIBAQCAgGBgEAgfwQor0u8UhygmpbvBYUTBLolXQpIkUJmhoC4OAhIxcoiUy1/sItzv7hGICAQEAgIBAQCPxwBKUBKLhOgPwWUognCD2/lz/UAqXB5ZOqk/FydEr0RCAgEBAICgV8OAUEQvvOQC4LwnQEV1QkEBAICAYHAP4KAIAjfGXZBEL4zoKI6gYBAQCAgEPhHEBAE4TvDLgjCdwZUVCcQEAgIBAQC/wgCgiB8Z9iLIgivXbw5ta9DpS+zTX7npojqCkHg5h8uqF2/LBQU5HJd5frSG2XKW+Sb1vufBPTsiYdo3KISVFUV/8lm/NLP9nAPgK9PCBo1q/ivxCE1JQ13br5G4+YVv+pXZw/vuUFbRw2lypgV2S/PD4EwMtaCimrBaemLrERc8J9B4JckCE8fueOh0zvQb0Br1i2NqjXsvtuAFUUQXjz1REpyKqrXtv9uz8xZEdWvpKwA+yJedqfbb0DXWpTQR9NWlUGY3LnxGhYlDNB3cJO/3Lb4+CQsmnkEdqVNUaGKNRwqWv3lOvNWcP7UI9jZm8KudNELW957L555jCYtKkNBMTdBWLngBCbO6sKXBwVE4MCuG4xJw6YOiIyIw7XLz/HhnT/W7xzx1f25ePox6jUpDzU15a+6NyMjEycO3UOLto5Q1/i6e4vzoMSEZNy75YpmrasU5/Jc14R8joL3x8+oVqtUofeScZWRloaVjdFXP+PimSf48N4fBoZa6NKzLuTlZb+6jsJuCA6KxOE9tzBueie+7Mi+2yjnYImyFXKT+LevP+GTdzBatquaXd2Vc86oVb8M1DVU+LPFs45g6JhW0NZV/6o2pqWmo0uLBTh0bhqUVRQKvZdIrJ6+BgyNtXNd9/L5R9y/8wYjJ7Qr8P5t6y+h94DGuZ5x76Yr1DWVUaGyNei9vXr+KZ4+/oChY1rD0sogV11L5x7DiPFtoKae/zx8/9YPCfFJqFTVptA+XDrzBNXrloaOTuFpyU8duQ9rWyNumyh/PwK/JEGgl3j89E6Ij0tC5+YLcP3JUsjKyhSK/ufACDaibTrVKPS6wggCLcJRkXEoU94S1jZGiIyIhYd7IMLDYqCtrQZVNUVYWBnC+eF7KCrKITU1DbXrlYOMrDTo+U533vCLYmNrgo8egXjr+gn1mzjg8pknqFbbHqmp6Tiy9za//OUrWqFeo3JQVJLP1d6MjAy8cPbEEn/nSAAAIABJREFU0f13UNbBkhfsajVLsaG8duk5fLyDMXhkS76H6rt51QUqqgqoVa8spKWlQB6Eq4s3bO1N2ViZWeh9gUdyUiobtEtnndF3SBPua3JyGi+u5SuWwK1rr9jLoQXu6WN3BPiFoWnLLGP98K4b5BRkUaacBS9SjZpWgJS0VL6Yb1p9Ho7V7FC1VhbBS4hP5vYammijSjUbxMYk4t1bX+4fPUNWTpZxJY+Jxpuwk5P7c9xpgSUj0LNfQyYBVy48RUpSGio6WqNyNVtoaavCzzcU86ccxI4j4/iZRDKfPHiH8LBY9vBJkQgLjcbdG66wL2uGlJS07MVty9qL6NanHo+1pOzcdAV1GpZjopNfoT7Qoi8rJ8OKh5KSPB7eewtFZQXo6WlwO2vUKY1PPiHQ0VXDkwfvuT5NTRVu20MnN4QERaFJy0pQUVGE82N3RITFwtxSD08ffUDzNlWYLNPYd+haE6XKmDNpzK+EhkQzQbK1M0GV6rbw9wtjvD3eBaBuo3JMEjS1VPHhfQBePvuIug3L8hi/e+uHqxeeMkEoX8kKVWvaMU5P7r9DaGgMmrSoCGWV/JWRF84eWLn4FF9jbKLDz7h36w23MTYmATHRCWywCfPb11+hVGkzlHUoAQ93fyQmpDAG5FkbmWrD1OzLuUr99PEKxqIZh7PHdN+O6/yO0jtH5NbUTBevX3jDx/szzCz1UbGyNcig09zds/UaGjWvAKuSxnCsYYtZE/ehZTtHRITHoWGzCvwOu7/1hWONUiD8wkNj2FMPDY7CtcsvmMiTMaV3rWWdGTh7Yy4+B0VARkaGjTMZ3FcvvJig6hlo8t8vnX0CQyMtfgfJuZH/vwq2e+sfaNWuKgyMtBjveo3Ks7NA9zhUssKDu28xZ/J+DBvXBiVtjOFQ2Qp3rr9iDKmf5pZ/jvvWdZfQtFUlWJX8k9DROF489QgTZ3WFlBRYTXlw5y2q17FHCWtDfseO7LuDuNhE1KxTGk1bV2b8XZ55IsA3nOcgrUc0ppvXXED9JhV4bahRx56vc37ozpgTUZWsW6sXn+a2Uf8l5dyJh6hUtSTMLPKfp3+/Gf15n/hLEoSFMw9j4IgWSIxPxqCea3DZaVGBXgl5byGfI+H3KRTPnT3Qqn016BtofuF5SqZIYQTh3Rtf3Lv5Gpo6aujWqx4bo1vXXODpHoiadcuAPOJFa/ph3OAtGDu1I9xef4JNKVOULm+OzasvoHWHarh4+glad6zGhn3ftuuQV5DlhYIWgLS0dPZ+aLF1rG6LSo4lsxcPSfuoP+5ufjiw6yYqVrFGSTtjXgzJK8tLEC6cfgw5eVlQu80t9NG4ZUUsnHEYnXvUwbVLL+BY3QbN2zh+8XaQUbx89gmOH3LC6EntYGKmCxkZadDCSySDSA4ZmFfPvdiwWZc0wqE9N7FwVV+MGrAJLdtXha93KBODkRPaQkMzyzvLW25dewlLK0NYlTQE9Yvaq6GpzMa5doMyvGiRx7Rs/UDc/OMlEydSMsioEtZEElXVsqTS9PQMDOyxBnOW9OQ6fb1D8MfFZ0hKTmWCQcaevKa8BIFCRkRCiHiQUZy1uBemj9uNZq2qwPtjEAL9wzFzUU9+Bi3GjjXt2FBLnrlg+kGeU44FqFhJiSlsJA7tuYVJs7vw3Bs7aAsvykQcKjqW5LHx8gyCmroSf7917UXsOjYBp444sdRsU8qEF99x0zqyMRw3ZAtad6iOknYmKFfBEi5PPUEhjF79G7FRyuuZSnBfPPsIGjRxQFBgJJq3roLY2AQ43XrDRLVZq8o8jxSV5HDm2AOYmuviyvlnWLDyd34mYUlzgOZk6fIWuH/7DRtMfUNNJjXT5/+W7xhT35fMPopWHaqyASOCSYZq16YraNC0Ao9x6XLmWLXoFCthd2+8ZkL3OSiSDdXzJx5MIOj9HTOlQ77PCAuN4feKyCwVmqdsNCtbY+u6i1i2fgDS0zPhdNsVfj6hmDa/O79r9F4Q6WvVvur/22GB8UO3suFLTkphQtyxe20QCVy8pj+vHy7Onhg4sgXmTzvI7Xr84D3adKwGY1NdJghjp2W996RCEMk4e+IBatUtg2MH72Lhyr5slElRMTbVYXWOwmFycrJMRJfPO4ZJs7sy+WpVbyb2HJvI+K5YcAKTZnVhojBx+Hb+u6W1IWxLmfAaRISDnIWcykhegkCOxYzxe9F7QCOULmcBUl1GD9zMapvzg/foO6Qpqw/kGERHxaNh0wqskpJDQYRWV08D504+wua9o0Bq0tqlp3nOZM3BEqzUpSSncZ9I0aB6eU26/ALmFnq5wh87Nl5m0uBY/fspvz+vif9rPfslCcLrF15YNv840tMy2IOiyV1QSUpKwYYV5+DpHoCoyHiYmOti5Pi2BUqlRYUY/rj4HFFRcUwQ3Fw/8cJFBKFZmyqYO+UA5q/ow0Z497EJ/CIRQyfP5M3rT3wPeUnUlkEjW+LgrpuoVrsUbOxMspt/9MAdaGiosBxdWNm46hwaNa+UKxSRlyDQgnLu5EP4eH6GY81SHI6h9gwf34YNLL3A+REEeq6XRxCWzz+BrQdGZzdj95arqFbLnhc1Knu2XUOjZhV44R/Sex1GTGiLdUvPYOzUDnj25ANUVJRQv6kD9PU1ipzltK+DPHnynD68D+RxrV2/TA6C4MLEqcb/QzsbVpxFv6HNsgkCLfbb1l/G2u1Ds59FxiY+Ppk9QknJSxCCAiNwcNcN+PuGgxbRVVsGY/KInVi+aRA83vszaZk6t3uB7c9Iz2AiRIa8sDJv6kEMG9c6myCMntwee7b9gY7dajMJCfAPZ/mdVI7+3VZh6rxu7C0uXTcQZha6bCSmzOnGj+jRdglWbRkCI5MsiZpCJ+uWncHcZb0LbcOBnTdw9cIzxqNr73psmNzd/HH/7hsMGNac7yXDSeqUy7OPCPANxdGLM/jz29deQVZWmtUNKmQgPn4IgoKSHLw+BOH09TkFPptII3m9pcua8zXkldP9k2Z15X9HhMfixGEnDBnVklUnaqOllT57v9SWmQt7sIEdPal9kfOILiCCQAoUEZ4V80+gQVMHJrSk7N28+pIJgqTMnrSPpXgy2FQIcxobGteZE/Ziytxu2LHpCpas6Y9nzh54+X+CQKQnZz2kIDSoPBFaOmrYdWQ8G3aaf/t33oCuvjq8PD5j5eZBHO4iMkfvvOQ9oudeOueM6Mh49OjbgNtBBGH3sYkwyEEQ6HMiIftPT4Gu3p8hkMN7b0NTS6VQgkBq0aZV57FkbX+uPzk5FVNH70JsbCLad66JFu0cmQDS+hYaEsVkk0pYWAz277jOxIrIzaGzU1kdmDF+D/oPawZrG2O+jsZYClJQUpEHKZALVvZlwptfIWeAXpei3pliDba4qFAEfkmCwBM3JJrZ/5Q5Xb/wsvNDjOQz8ti69a5fOKBFHJRUHIIwdcxu7Dw8jo0kLd4VKlvh9NEH7AHu2nQVhsZaaNelJhMEIhYUj5SUs8cfgEhN9z5ZC0VBpSiCQOGXAb+txtJ1/fHI6R2Tow7damHjynOYuagHG16Sxb+GINDCSwaaFA8q1CcjEy2O9Q7tvQ5L1w1gkvQtBIHk5jmTD2DqvK44cdAJahrKaNqyEuZPP4Q124YyGSGVpSCCQG2r06BsLkm1OARh+tjdaNi8AgyNtBmT1VuHYOKw7YwRGSvyGmf9X0HIbyxWLzmN1h2qwrZU/iGG/7F3FVBVbV13qkjaKNjd3d2K3dhgIBgoGCioqICCQQgqKthdYHd3d3crNooIiCD6j7mulw95IBflhf5nj/HGE7h3n33WjjVX7LnU30kKIDx58galy+QTF755uymYu2IopntsRBvTGmJt+UxaB0dXlZVu1m4KZswfCMNvcXJafK5jVoiFGj8kFXfMtPTzFjACgUKLNlVk3hiS2vBtbfKzBL0MO5j1aSRW8rS51tIF3dvMV+AaYgtYfkis5hKl84oLmiGnxFpCAIGyVsfaae0z3ETLmN4Leg4YkvkVgEBuuc5mdcVbM8yxA0qUypsgQCAgMLdsFAvS7QbMESDHEMRCv10CFiY4LofvgkHifo+JjhEPgvPIpXCeZI7DB1Thktx5s6F5bUc4T+khXsBJPhYC/LiGTLvVwYkj11G3YRnxDjB0p6+vLR4UNu73IX39xAOnPgu6tpoIp8k9kD6jHub57hDDg61dI2f4zLUWj4e6aQIQ6AGiJ0+dO8Xz4PKFexJaodeE4yZgYfIvQ5jDx5hKoi89nznzGIqXZ/SQhbEAwWXUMjRtUQk16paUYUwctwrVaxVH1ZrFcf7MHfGacA4TavSm0QBiYqXS/l4J/L8ECDGfY2BvMx89rBqhQuXCGkmYiVx0RSYUc4/bwY88CEP7+YnH4OuXr6hQtbB4BHgI0AVbv3FZeE1cB7sxphjW3x+Fi+YUV91E795ykNNNuXfnBbH4nSaZC3jwmbwBOjpa4pLv1ksFCBiHHzbAH2/fhGLeymESE06oLfLfhdoNSscebO7j1+DUsVsMqqNw8Zzilp83U/VMk+YVJZTR08oEBBYESrTmGPumWzehRvcqDwd3Xyv5M92itCRodXboVhumXWuLPHnAMhejVz8T1K5XWmK4/WybiztUX18XNeqVRFYNEr4YIvDz2YJjh68LEGBiU6fudUXxXbv0CPUal5HDh3kTro4rJH6tpaUFC+smaN66Krwnr4XdaNPvrBICo4iIT+LlUL/D4rm7Ef3pM7R10yJg2xhRfNMmr4dJy0piJbl49BB3+uK5eySckVY7TazlHl9OdAs3qzlaLDq65BNqjx++lpAFlR5lZzOijShgy4HNsGbZITRvWxUvn73D3TtBSJ9OD5vWnUCbjjVhbtEQoe/DMXLwApHzEId2EsaaM30rdm07h/Tp9WRuaPnSIqOlunntcbGGE5tTWuPbN55GVqOMmDTNArq6qvyW0UMW4PatZwIm6Q62tfITbwFzImgJshHojh2+CNFRMXDz7i1y5twzx6KnVSOYtEh4HfG7Y+0Wo2c/E3GJc94G9Z6Jjx8/IYthBnj59ZOQDV3bgSsPi+KjoqTnJl9+I7G2Ga7bvPaEyEyTxr4YEw9ccUS8dyPGdsQsny04uPuSeAbyFTSOBT7MZ5nhuVG8DeMmdgfDMO+Cw2SfEyQSAE12Xg16LTua1cHnqBh0t2iI9WuOYuWiAzJej5lWEuIyb+eOhQHDJfwSFRUtSbQergHipWFMn547Np4ZlB09YgzhPH38Ggf3XsLAYW1iX+/ooWsCCpkboqerjX6DW8rfmENCI6NmvZIY4tAeNhYz8SwoWP5Wp0EZATvcgwwh0CPQpmMNSWr0dA0QryU9VGy08ieOWyljK1Q0p3if6FF8F/wBY4YvQvDrD1izbQwunruP8aOWCfgmeJy5yFbCcZcv3If7+ADxHtIrwRwSJ/ulePUyBL37mqBl+2qJeggINCZPV3kylPb3SuD/JUD4O0WaVIghqWfThU332+IA+7+40ei+ZfJSEt5oeQRd7pp8Lqnx8ODiQcFGF7qv12YUKZZTLBpacEyI+pVGS42ALakkUU2fwbARkzrVjQc9/6M1k1jjOzIvgYf5zzTKJW7/9EYQiNy5GSRJZEyGTKgRGI61W4Ql6xxiZfwzz+d3/GdsRRfz+pKDEXcsHBvXgnoOf7Z/9fcIapjYGd+9SxmrfxdfHnGfGfdz/DfXNIFPSjTV/kidYq7nH71HYu+k/n3cfcPfxV+X/B1DJVz3SbnKKfOEbm6oZcnEPvZD4Ba3xR/D//ZE8s4GyoGKnp7M+PuIMk9o78adZ46DuUdJvSe/w2fxjPtRm+Ky+odhu5RYS0ofKgkoACGFV8KvAgQqy3fvwiSp57/YeOOCiU1MJuK1M6X9VQL0Olw6dw9G2TNLAmVSB2NKyJCWtUE63f8cf0NKvJvShyIBRQL/jgQUgJDCcv9VgJDCw1G6UySgSECRgCIBRQI/JQEFIPyU2BL/kgIQUligSneKBBQJKBJQJPCvSEABCCksdgUgpLBAle4UCSgSUCSgSOBfkcCPAQIT3T6lQZooLaT6+uN72v/K6P+LD41MDeh++S+OTBmTIgFFAooEFAkoEoiVQIxWDL7ofQZSM138r+2HACFVhBayfjWEro6OkFgoTZGAIgFFAooEFAkoEvgzJPD582e8/PAGMVk/ISEV/0OAoPNeHznSGymZ0X/GWlDeQpGAIgFFAooEFAl8J4E370IQmu4dkPavXgQNAIKx3GFVmiIBRQKKBBQJKBJQJPBnSeDt+/cI0XsLaCsA4c+aWeVtFAkoElAkoEhAkcAvSEABCL8gPOWrigQUCSgSUCSgSOBPlYACEP7UmVXeS5GAIgFFAooEFAn8ggT+foDwMRyYOQZo2AGoVDfRoZ69eBMZM6RDkYKqynUsEnPk5CXUqFIa2j/gY1+4chvq1iyPJWt2wMqsFfLl/l8lsl+Qi/B+8/lPn79G3RrlkSen0Q+7u/sgCE+CXqJB7Yq/8tgEv3vjziO8exeKyKhokU9iY3n2Mhhv371H6eIFY/u5cuMeShTJ/xdO9HuPnuHxkxffjdfddwX692yLTBm/L+L08MlzKSJVIJ+q/Oqf0jZsP4wWjapDR0dVWEiTdv/hM4RFRKBsSVUhr6jozzhw9DyaNqgqP4eFf8Spc9fQqG5lTbr7y2cuXL2DDOn0USj//8p0J7ejd+8/4OjJy2jdVFUd8XdrF67cRnZjQxw8egHNGlZD5kxKZb7fbQ6V8f4ZEvh7AUJEGDDbCThzAEiXARjgAlSqByRQHGe02xxERUdjkmM/ObC37jmONRv3YeYUO+jr6uDFq2CkS6ePzBlVh8Wr1++QRisNfPzXoGPr+giPiETZUoWkwp5hlgxy9fJDWAT09HSk8Enoh3BkyZQB0Z8/y+9zGBv+kAd/1Ya9SJM6NQoVyIWd+07JQVWpXDG8Dw1D5KdoZDPMKDc4Pn2Kwrv3YXj05AXuPHgC845Npf/IT1HImiXjd8/4GPkJ70I+IJthJlHYH8I/4uPHSAFGX75+RUREpHyHLSQ0TAoVGWbJiONnruD5y2D5e+XyxVGiaP4EVx8V1cadRzB5zADo6+lIqdeBI73gO3kYS2vAQF9XgA/75niv3ryPkkXz4+DxixjYuz3uP36GogXziJJLnSY1Pkd/RpbMGXDlxn0BbOVKFULwu1CRC0FE3DoCIe/DZP74btduPsCmnUcwtH9nGOjr4eXrdwLyMmYwwOkLNxD89j2a1K8q8nvzNgTp0+lDX09XZMviPKwnnyG9gfyN/9fT1UFMTAxeB4cgnYE+0hnoiSz4/dCwcBhlzSzrY8ykuZjmNgQGBnqyPvi+7FvdPrOPN6o++beps1fBvFNT6Uc9V5w3vgt/ZnGftyGhMMysmpPwiI+4ff+pzGGDWhVEFpTB+m2H0NdcVU2Pf+O7m7aqL8WG1MqN4/0QHoGshplEfupGWcd8+SIV+7JkSo89h87AMHMGVChTFG+CQ5A6TRr5WfX8SISFRyBb1sxInSoVuJ64rlVjTSN9UGYfI6OwZddR2Fp1jH0O10LIhzBky6Jatxw754TvyzlTzyWL4vAd2FdWQ9X65TPU65nFnT5FRSH6c4xU/eLalfd+/0GqDHIuuN8+RUUjNCwCOY0N8Sb4vSQzcy2fu3Qzdr2x4iPHoZWG6+l/IGD3wTMolD+nVNTkPuWzOf9cu9zDMqawcKkaqB5jePhH2U/G2TL/I/Ut/ozjX3kLRQI/lsDfCxCcLIA3z4Hgl0DGLEDUJ8DeByhV5S+jIkD4+vULrC3ayyEzZMx0ORzsrLsiYOM+OUhevXkH5xEWuHXvCabNWYMCeXPi9dsQUW4r1u7GoD4d4OW3CmOH9YJ22rRYvXEf6lQviyWrd8gBynrpVHqPn72GpVlLNKj1P2ufhy+VhrrNXLAOAy06yMFGUBEWFoGw8EgsXLVNDuzcOY3QvGE1ePuvESX64tVbOdSqVSwJejUyZ06PfLlzoEvbhtIllYCb92LkzZUdER8j0btrCzi5z0fxwnlBy58KMvjde/Ts3EwO2sDN+0W5VilfQkrWJgQQVBXOvsZW4yNAoILp26MNCuTNgbVbD+L8xVsYY9cT2/aegGnL+nLYu01bCnNTE9C7QLkcP30Ftn07Ye3mAxjQqx1GT/QXIPLy9Vu0a15HwAWfQ4VE65gKwrRVAxQuoLJyb997jJUb9orlW7RQXhn/zv0nYW3RAVdv3MfLV2+lL7OOTbDvyDlRtJZmrbF551GpKvn46UuMHtID0+YGipK88+ApShUrgEhRgBGwH9QN67cfEuD16k0I7AZ0wbqtB/HsxRtER8cIMOSzp80LhMMgM1y7eR+foqPxNOg1bPuaIqexqlyy/5KNMp/PX77FYKuO8Ji5ArlyGCHk/Qd0aFEXxsaGmDxjGfLnyYEnT1lNsRccJsyGn8cI+T4Ba9HCeUWB8vLOsdNXRH6cB45fDRBmL1qPtNppRTG2b1EHxQvng+fslciVIxu0tbRgadYq9nqwi+dCWU9v3r6HeccmePjkhfxMMHT+8m1ZK+1b1JPfcW3nzWUs4LePWUtMmbEc+fNkF8A6pG9HrN92GEEvXiM8PFKqKjrYmMmY2NfEaUtROH8uPA56ifEOluhn54Ha1cvi0dMXaNesDqpWLCmfvXP/KTbsOIy0WmlQo3Jped7iNTuQ3kAPxQrnRZkShbBq/V757JNnL9Gne0tRyKs37JU1TPDKMS1fu1v2Q7HC+WLXTMvGtQREq9cbQd35y7cQ8fETOrdpiKKF8ki/aoBw6vx1NG9YHV6zVyFfHmM8e/4GVj1aC4BctGobMmfKgIL5csrYPWeulH9zLob066Sc+4oEFAmkgAT+XoCwJxAoWBJwNAcsRgKfPgKV6wO5CiQIEKpWKKFy35YqjAuX74jC7NGpKcZ7LkKnNg1w/fYDIWZ6/yEMnVo3hLFRZvS1c8fQfp0xb9kW2Fl3wUSfJXAb3Q/a2mmxNGAnGtauKBZw2+a1MdxpJrxcbHD01GWxlm0tTWUcdx88FcVlZdY6Vtn6zl8HG8sO31kjTu4LJIyRI7shZi3cgM5tGuDMxRto26yOKGC69+8/eo5aVcsgY3oDbNl1DPY23cWKDQ0Nx/T5gWjZuKZYbLSm5i3fjMFWnTBnyUb069kGdC9fvHpHDvgqFUrIYUelZtG1Od6GfPiLB+H0+ety+Lc0qSnvQYBABUBF2rtrc0z0WSpej+aNqovy6N6hMUJCw8XS7t+zjVj6lcoXx95DZ2FrZQrHiXPE6rcfPxv+niOkn007jwroIUDYuvuYKBVaa1TilDvbmQs3xBtRqVxxeTcCicDNBzDS1gx37z8Vy5mKSEdbWw5xgoVSxQtg8eodqFujHC5cuSPyYj+uo/vi9r0nEt6xsTTF/OVb0L5lPXjOWon2Lerixu2HomjpAenZublYkqPd/OE9wRZDxkzDwumOGDdlPurVLI98uY0lHKOrqyPjnOC1CPVqVkCunNmQN5cRps5eLaCSoOPMhesCSGnhM0RDBcefF6/ahmX0ggGynsqULITg4PdYvGY75ng5yBzNXbZZQIsaIMxZugkjB5vLfE2evhQ5jLOK56tIodwyR/0YxvlmeTOsw3VL8Os5cxVamtQQMGBsZIi370IFfN19GIT0Bvro0LIeshtlAV3wF6/eFbBTslh+Wbvd25uAz3Wx7yNrYOOOIxhu3VXGtOvAKQGMBG+UOcNUE6YuwqalU2T8/Gy39o3ls4dPXpLQE9cNx7B11zFkzGggljvXwrABnbFy/V7YD+wmnij/xRth2b0Vnj5/JeEWzludamXx5PlrdGxVX4AtPUZcL9y/HVrWl/U20KI9+gydhL7mbUROfH96c+IChEMnLqFds9rwW7IRw/p3lnXBtUNjwThbFgEkXrNWYtRgc+w7ek7ABL1LvxKeSYEzVelCkcAfI4G/FyCoxdSlAtBvHNCoQ6KCowehW/tGmLNsM4oUyC2AgB4Asw5NxPqiVcwDMb2+Hpat3YUh/TpDRzstbB2nwbJ7y1iA4OazFG6jrORvtHwa160sysmkbhUMd5kp1uCh4xdx8dodDOmrsjR4SNKlGrd2+fR5gQIg6I6la/Nx0CvMmB+I0bY9xGPgu2CtWOQ37z6CSb0qOHb6Mu49fIbrtx+Ku5ljpXs4d/assTXM6YZlrsXp8zcwyNIUazbulZj/ssCdEpq4duuBWKUcS/NG1VRjAxD07LUcoPFDDAxL0M2rrsNO5UM3/6Vr98R6o5fjxctgNK5XGeu2HoKZqYkADSrQHwEEKtx5PqPw/n2YWM01q5YRgLB51xGZF4aA6KHJnSObjJHy4aG9c/8pBD1/jc5tGwpAGD6wKyyHTMbAPh2gp6MjFmfhArnlkKelScBRv1YFvoJ4S7z9VsPdyVqUIhUVARvnulnD6pg5fy16dW0uAqFy3b7vBLq2byzWp80ob8yaYhcLEBj2uXXvMQI2HUD3DiaiRNk+fvyE63ceikLs16ONeKbosWLY4fDJizDOZohSxfMjV/Zs2LH/FL5++YLl6/ZgpZ+TrBHmuZQrXQRv3oTAb8kGrF3gJq70xau3w7p3+1iAsHrj3tifx06eK2GRWtXKiLxSpUqN3DmzQetbXfsZ89ZiUJ/24ilxmDALnds2EoDAUEz50kXx5UsMDhw7L2EWW8uOEoJhI3CiBydfnuygG8YoSya4+izB5DH9xbOydsvBWEt6y+5jqFG5FLJmySShOypWynrrCg/xjvGzaoDAuWTeze4DpyWUwVBNmZIFxXXPNcCwwM59J8UDRJkQhDJkkytHVgG1m3YcRZUKxcXLQmA6f8VWAYOc5F0HT6NL20YCEKwt2qHHIFdMHN1PWNoM9PTkGQkBBHrt6PGhd+PBk+cSiipfuoiE0T7HfBEgyHXA9b997wn4e9rHAv0/5qRWXkSRwL8ggf+HAs9UAAAgAElEQVQUQLDo1hx3HzzD2Us3MNLWHHTzW5m3lhABlTJdwUwGe/LslbghSxVVWU+0etUeBB4QdGFnM8wsiqhF4xpJAoSE5L5j/0k8fxEsFhuTBJvWryox1Zt3HiFLlgwS329lUlNcnYXy5xalxngoXdb0SBhnzYyYr1/QpkktAQghoR+wbsshsX6pRDu2JgD6K0A4ceaqJAMyZMGQB8FCDuMs8rMmOQg88KkQffwDxJW87/BZAQiUFw9/KuO9h8/GAoSGdSuBVuyw/l0wd+kmkSUVbo/OzSQxMn/eHBIfpnJ4Rvd1RKSIi7kZFcsUlX/fuP1IABdBGcdJEOHkMR8De3cQRWZSv4rkNdBNzYM9YPMBdGnXENv3nBArnQq6fu2K8Fu0IUGAQBnSA2KUNZNYrY3rVcGeg6e/AwjzfUbC2t5LvA7nLt9G9mxZ8PzlG/EY0HXN8VORZzfOIqGHVk1qYtX6Pd8BhDrVy0vsnu988codDOjdDtPmBKBi2aICimgJ07tF5ceEVM5rOgNdef+4IQaCSypLgjPmIBQrlBf7j54T7wnj6a2b1o5NvB3l6o/a1cvgxat3KJAnu+SiECBcvfFA1llIyAfxCJjUr4qTZ64idy4jPHr6UjxjnFu+G8NG7ZrXxYr1u5E5YwZ8jIwUkKAOMdx7GIRte47LumLYgmEky6GTEwQI9E7Q2k+dSpVnQkudeQPcfwTQ5UoVxuyFG1CzSmkZR7FCecTDQcudXrHrNx8IoFQDhBXrdiNj+nTi9WO/BGbq9UZPHtcMw0zFiuRDmW/JteoQg9qDEB8gcM3QK5glY3rpt2aVMgIO+PtjZ64KmOA80qhQmiIBRQI/L4F/BiCYVQWsHIEG7RIdKRO6mBSmskhVcXUmldHSomKjhcUcAlpStFzozuTv02ppffdZ/i0s4iP0dXXFMmFCGH9HK5vKk59XKUo+I02i41E/g7FhKnu1d4HWKceqp6crXgKOkZYprRk+kM+JYhJXTIwkV6qtez6I1iaBBQ9Tvh+Vf9z/q3MKJO8h+rO8I609lSeB3gLmd6ZKNAmL78XGZ3KMHDN/p/KCfMWH8HDo6+oBqVTvzpsJfD6fpU5SY64EXfVM9uN3Ke+4jeEDggy+b9zENklci44RT4B6/Dz5efgzZqyroy3/lsTOqCjxQFAZUnaMlzP8oB5z3NwKtYw4FoIMrgF+Vv17jo3jp2XN71NOVG4EiRy7VlqtWBpx/p1rw0BPV/X5b+sr7vP4GSpxWspce5RH5MdPsWGKVEw++PpV3p1Wq1rBqdcSPT5fYr5I3+xX9fdUkpfBWyh8tnqdc+yzF21An24t8OUrvq3tL+IR4Hc/fIiQtcIX4FjoHYqO+gxdPR1Z11wfXI+cCz6fMiKAkzn79h313KnfS09XWz7L76pvB8WVJZ/LPjiHqn5SIToqWhIf06fTw/NXwTh47IIkYfK92AfXA9eFtraWyF61LlR7jmN6/yFcQiRsXJPq9UY58Fn8v2p9qFhZ+R3+m2uWfcR8UZ0DHBv/499U+457SVd+VidG6uvrSgIn34+yV5oiAUUCPy+BfwYgPHsEZDIE9L+/Pvfzw1a++XdJgAcvs/KZNKa0v18CDE3RAo57I+Tvf+rPP4HufXrImG+iNEUCigT+bAn8MwDhz5ah8naKBBQJKBJQJKBI4I+TgAIQ/rgpVV5IkYAiAUUCigQUCfy6BBSA8OsyVHpQJKBIQJGAIgFFAn+cBBSA8MdNqfJCigQUCSgSUCSgSODXJRAcEoL3Bu+AtMks95wqTAvZtYygo81s9l8fiNKDIgFFAooEFAkoElAk8N+QAOnNg4JfIcYoUm5FxW+pXukg1f2XT79+Nfr017/yNlaEFrRjtIX6VWkaSCAqNaCtuoqoNEUCigQUCSgSUCTwX5VAdKrPiNGPArT+6j3gmH8MEP6rb/UfHleqYG18NYz6D49QGZoiAUUCigQUCSgSSFoCCkBIWkbJ+oQCEJIlLuXDigQUCSgSUCTwH5WAAISHL4O+pjFS3OIpMUcxwamRxlCRZUrIUulDkYAiAUUCigT+PQnEvEqNVM9fvvma3cjw3xvFH/RkVl5ktUOlKRJQJKBIQJGAIoHfWQIs164AhBScQQUgpKAwla4UCSgSUCSgSOBfk4ACEFJY9ApASGGBKt0pElAkoEhAkcC/IgEFIKSw2BWAkMICVbpTJKBIQJGAIoF/RQIKQEhhsScFEK7ffiglnUsWy5/CT/717ji2yMhPqFi22K93pvSQohLYse8k6tYoDwN9VWnw/1q7dO0u8uY2RuaM6aXk+cYdR9C2aW0pqf1fbKfOX0PpYgVhwFLb/7H28MlzpDPQR9YsGVN8ZPcfBsn8lCia9Plz72GQlBnPYZw10XEcPnkRtaqUkfLiSvvzJPBbAIQPYRFYuGob3r4NRd2a5dGoTiWNZyI84iN27j+FiI+R6NGpmXzv8dOXWLFut9So79m5ObIbZdG4v6Q+mBRA2LD9MMLCI2LHklR/yf37rbuPoaOjjfx5sif4VR4Oc5dtRuSnKGTKkA5N61eVg51t9Ya9CAv/CCvz1rHf3bb3BPYdPosiBfOgr3lrfMVXuPksAeekWsWSKJAnBw4evwiWCM6UMR3KliyEpg2qJXfYsZ9/9eYdlgbslP7qVC8Hk3pVUrRM8qlz13Dr3hP07KxaCz9qwW/fY7LvcqRNq4X+5m2QP2+OpL6S7L+vXLcH1SqVRKH8uXD01GVs3X0MU8ZZf9dPTMwX2I+fhZG2ZjDOplqrQS9eIybmK/LmMpKfp88LRI9OTZElU4Zkj8Fj5kq0aVYbxQvn/eF3OSdXbtxH7Wplv/sc10LdtjbYt3YasmTOgDdv32Okqx8mj+kPo6yZE+3z0PELqFC2GDKk00/2mJP6QlR0NIaMmY6rNx9g6cyxKBBn7l68eot+IzywfuFEaGmlQdDz13D3XQFtbS2MtDVPVpLx8TNXUa5UIRjopwzQ+Pw5Bt0HjIeHk/Xfst427TyKL1++oH2LuiLC6OjPOH/ltuzluC0qKhp9hk6G+zhr5MqRLfZPgZsPoEDenKhcXmVETJi6SGSmo51Wfn73/gPGTpoLPV1dmHdsgvJlioBKxmv2ajmXBvRqizw5jcAS6KVLFELG9AZJTeV/7u+U2ZjJc+HhNPAvY+PZVad6WZHRn9B+C4CwdutBkXXVCiUwZcZyzHYfrpHsv3z9CttR3siRPSveBL/HNLfB8j0quHbN6+Dps9dYvnYXls920qg/TT70I4Bw/MwVvA8NF/ROBc4D98Hj53gbEopMGdLDwEAXeXIY4fzV29BJmxbRMTGoXrEkUqdODfbLw6h8qcLIlye7fO/W3UeoW708dh44hcrliiP682f4L9mI9On0UbtaOdSqUlo2ZdxGwDRwpDfcRvXFnftPRLHw/WktPH8VjML5cwkY4CY4c/GmgIlmDaqiYP6c8gwCHGePhXAfNwB5cxnLIcbx86BwsbdEOn096OikxeETF6WfO/efIp2Brozn4ePnuHjtLurVKI/MmdLLsK7dvI/7j56jcb3K0NPVwQiXWahYtijq16wgczPcuiv5vLD/6Hnpt271cvK9zzExOHLyErTTpkWNyqXAg/Xk+evQSpNaDqsnQa/QonENAYb8buECuVGmREEcPX0Z1289FCDD/iqWSdhbcvdBEDbvOopXr9+icd0qqFSumCjlp89eoUbl0iBwIrgyzJIRpy/cwNt3oWhYpxI+f/4sSpRKk7IMCQ1D+dJFEl06tqN90N20ibzD/iPnsGbTPlH0+vp6qFimqAC2E+euIm0aLVSvXAq6Otp48OgZ1m07JPNdp1o52RdefqvR3dQEN28/Qq2qZWQNnL14U947YwYD0DtUqlgBGQeBSOiHcDRtUFUsPyePBejSpiHy5DLCo6cvRU7se++hs+DtpgpligigDNi0H4Gb92PYgC4oV7KwvDvbtj3Hce3mAzjYmuHTpygcOHZe+q1XswK002rh/qNnSJ06FW7efYyCeXOgaKG8uHj1DhwmzEavLs1RrFBeVC5fXPo6c/GG7NXGdSsLMDtz4QaC372XtXTo+EW0aVoLV27eR7YsmfAo6AWa1Ksqn+NeOnzyEooXzociBXPHrpEeA13hOqovChfIFTsH2/edQGRkFDq0rCfrZPXGvXjy7BVaNKouoJTK/u6Dp7h++xGa1KsiXhAqVc4z54NrkHvywpXbmDxjGbq0bYSihfKgQpmioCeleJF8sn8ePH6GfLmzy/eMs2VG8NtQ6adB7YqyLvYdPofSJQp+B8xOnruGhSu2wd/LXmR2+/4TXL52V7xHarB1884j3L7/VPYR5/barQd49vwNChfMjavfABzX6ofwCBTJnwf3HwWhasWSuHD1Dl6+eosSRfPJuDjG3QdPY1ngTvTr2RaF8uWSs4WN+3blut1wtu8jPz949Bx3Hz7Fk6CXKFG0AEoUySfvRVCllgffaXngLuw+dAbWvdqhXOnCCAv7KN4k7of6NcvLPD968gLj3OejY+sGKF4kr5wrfG/u4by5s+PkuatoZVILWmnS4ODx88iQPp2A6NTf+P455vQG+qhRpXSi+4rvefjUJdlDBN9slMnp8zdQq2pZGGVV3TTjWDhn7Iu3z7iOnzx7KWvy4ImLaN6wGoyzGeLsxRt4+vy1GCza2mkxZMw0uI7si1MXrqNBrQrQ11N59vqN8IRV95Yib3XbsuuY7N3f8XbbbwEQKGgezJeu35NNOXZYL010Nb5+hVjrVKZL1uzA1PE28j1aY7ZWHcVSnb1oPe6fCZSDNyXajwACF/aeg2dQtDCt8TY4f/k2lqzZjpt3HqNWtbI4cPQc5vmMgqnFGAzq0wHnL99Cx1YN5BCxc5qBJvWrYdPOIxhr1wsZ0hnA23+1HNJUkrQIaDX5Ld4AfV1dUWjcgPFd0gQIto7TsHDaaHndAfaeooQ57k07jiKrYUbYD+ouB/2W3cexcv0e8dgQIPAw9p2/VkCDg013UYC1q5dDzJcvGDZ2BmZMGip9hkdEYtyUeaKEqHTKlCgkm5SHaZumtbHn0BlMcx0sljwP57IlCsnvlviOxYKVW0WZmbaqj5JF84ubdeaCdSDYC3n/QQCInXVXrN64Tyy/p89fyaZtVKcyuBFdvReLLAheTFvXx0CHqWhYpyIuXb2LEQO7iVKZt3wLalQqhVUb9mGqyyBUqVDiL1NP5bpm4z5ERkWjWsUSMKlXVQ6OUa7+AgRIPN69gwm27D6Ge4+eiYV6+94TDLbqiJGus2XtUVFs33sC5/YuQFotrQSXl4//GpjUr4rSxQsIQJg4fSnMOphg35FzGNqvM4oVziuyoXKe5jYEOYwNZQ/w/WnlVa9USqx/9vPly1dkyGCAgI37sCvAG1bD3DF8YFdUKF0EjpPmijU4Z+kmGScPSFr67k4D4eK5UJTNjn0nYNGtpcyrzWgfOeS4BukRIoCbtWA9du4/KUq9cb0qyP3NsnT2WCDrgYr1Y+QnWaOTpi3DwQ2+4lHg/FGpVypbTP42b+pIXL15X4B6S5OaKFW0AFo1qYlFq7bhxp1HKJgvJ56/DIbTCAuRidWwKbAyay2KmmPh/hgxqBuu33qAGpXLoGPr+pjqt1oU6KYdR8QQUHt7ug9wwYSR3wMEJ/cFsLHsIJ8nWKR3kmu1ZpXS6NCiHq7dfoDpcwPRvFF1rFi3B+sWugkY33XgjChtHvT0QBGYz1ywHs0aVpO1yv9bO3hhvIMV3r0PxexFGzDBwVIUJMFu9cqlUa5UYXmG/fiZoqg4t45De4pV/fXrV4z3WoTObRtKf/R0cj0T8B07fQV+niNw8NgFOcsIMgj0uI8ItHLnMMLl63fBojlU2PuPnkNWw0zSL88/7nda7QRZ9AhwDgn6Fq/eLkC4c5uGElokcGbj2UigRTD8/OUb9LXzkD1J8Gfduz2KFswt/96x/xRmTbGT8/Pl63eYMT9Q1if7I6ihR3DNxv1Sy4dnEkE1jQR33+WyZwlaOfeHT1ySs8UoW2YUK5QHvbu1xMKV2+T8IijhWiTgtxg8CVUrlpD1wXXdrnldkbW6Ebjp6eigaRc7GSeV/8jBZoiIiJR1TuDJvTPfZxT0dLUFqJQpXhAnzl3DjIlDQfDV08ZNwDO9dTxLuF841wSfNDioO/qP8BBZETDeuP0Iy2aPQ5rUqUFvHN+H86duFkMmyfrlPP5u7bcBCM9evJGFt37bYczzdhAEr2m7fP3edwCh2wAXvAv5ABf7PuhkNQ43j61MsdhuUiGGdVsP4W3IewEIF67cEVR+49ZDlTIb6Y05XvYYPNoHO9d44+rNezhw9Dzq1CgPusa54GnBUyGNsO4qBy83HTexus1dtgmZMqaXDZpQiw8Q6IYdaNFeFBEPMnoVCBDUbeyUeRjWvwsMM6tc1/S6mPZxxKmd82I/Ex8gqA8YWlBOwy0kRDBtboAoPVq0d+49EWV36MQFHDpxUdziVE771k1H9myGAhAY1jhz6aa4h63tvZAunT7Cwz/i1PnruHRgMRhKYZiIlk6jupVkA758/RZd+jph+yovQfS0XAlU6CGh4tLS0gJjz/TEjLQxg7f/GjlAO7VpkKCstu89KQCTBzYbrerethMxeazKe0KLp6PlWCyeMUbCK0PHTod5x6ZYu+0gchlnRZFCeeTA3xvok6gLmiEfurl5uFAZBm45AD+PETh68pJYLF3bN5ZnDxrlLcCYAIGNYDP84ye0b15HfqZnrVfX5sieLQsamQ7FzCnD4Dp18XcAYZJjf9iM9paDkOG14HehAsAcJvhh7+Ez6NejrbiAefj2sp0owJSeEVqp/A5lPnHaUpkTdWP4g2uE4YS4rWLjPtgbqAo5cJ0SuPTs1Excs5QRLdBu/Z1FmdL6ZmvRfYTMf8aM6fD8xRssmuGIqOjPKN+gN87umQ/DzBnBc6BBB1vcOLpCxkmPy9D+XWS97D18FsdPX8G44b3RpH5V6TM+QCCo5Dv4TqIMVHFzeoO4dvp0ayk/z1q4XpSpsZEhDh+/gMW+Y8UDMH/FVtx78BTZjQ0xcXQ/+SwB9ughPcQiZ4sPEKa7DcHjIJWi9/ewF7mz1Ws7CBXLFQdzAlo3qSVhvY8fP8nnJn2T5a4Dp/AxMgptm9WW84r7eoTLTJi2qifgYvL0ZejWwQTzl2+BrZWprIFypYuIl4DvQ8CT3Tgrjp26JGEANu4fKkECBDZa9pwTzq+60cvRY5ArZk62E08fAcTla/fEMFkSsBNFC+YRjxebk/t8AThqA4s5CWu3HPyuP4K2VKlTiXGgbn3tpsDOupusA3UbNHIqHGzNke9byLOz1TgYG2VB6IcIfP36Bd4TBqOSSR+0a15PPDFcl/16tBHwq25cI/RucvzpDPRg2rKeAD2GUSZ4LRYvy5nz1zFuuAVM6lXGolXbceXmPfFirvRzlu/UbNkfM6cMF+8DG0HJwD4dULlcMQGSenq6AhAIdGm4NOwwGLsDvOXM4X5Oq5XmO/1Eg4nglnv8d2u/BUDYsuuoHLZFCuTBwFFTMd7eUuO8ASovAoRlATvh6TxINujQcTPQv2dbfIn5gkGjvXFgg2+KlaJKLkC49ygoDkCYCn9Pe/S1c8fO1VNx+sJ1UYDc6AQGjkN6wn/pRvEYMB+ABy+tp7gkV7QIWHbDomuLBNciAQKtw9nuI/Dw8TM4uPph0XRHURQpDRDowrQ0ayXj4LjoOuZBeOfBU5Qqlh/b9pyQsALde0T6daqVFUuLYRN6LDhPnDMXzwWw6WMKKiMetkTitVoOEI9QyIdwcRNTHjwUif53rfGWZ9J6GThyKlbMdhL3Nq2s63ce4NylW2Kdz5i3VtaRGgDEF1hiAGGFn7N8VA5SGzeMHdpTLFY12ArYvB85jbOK4nPxXIQ9gd4axagJEPyWbMTyWU5Yv+0Q9PV10LaZCgDEBwhUhnzv3l2bCwCbNH2ZeHroiajf3hYB81zh5r0EZh2biFvXYfwsmXM7Z18M6dtJ8k+OnbmCFo1qYMykuahSsTgYX/Z0GiShF76Lj+tgORA/x3xGiSL5BTwyt4B9E9Sw0SNBL1bHVvW/E198gJAtayZxxdPb0LVdIwmz8RCnNcYQCZv5IFdR0uVLFcGDJ8/EQvwQ/lEAwoOzgfIZAoTGHYfi+tHlYrFyvXCN2bvMgotDH0ydvRpNG1ZF0/qqPJi4AIEW+rgp81G3RrlYAMHPxAcIXKsED7QEL165IxYr94lJ3SriKdqw4zBcRqhc7wMcvDCsf2dxSbPRY+U4tIeAO/FQug+XNTtjXiC8XFQeTDYbRx8J8wU9e40smdNLIiBDZkxQVOdKnTh7FdduPUSvzs3EWm9YuxImTV8qHpe2Lepg7OR5sLE0xZwlGzHYqhMmzVgmMqPFz3OoeqXSyJkjq4BNBxszeW58gEAAPNx5JnwnDRPXOdvWPcflvQkI2Oi12LTrKDydBsJ7zmrUqVb+lwECgRTfk2ebujG8yDwbtSueP/P92BguYb5TJRNLAZ4EHPQKqMFl3MUX8fETbtx5KArZ1XsJ3EZZCdDcdeC0AAr+jQbRiTPXsOfQaQHe9Cp5OFtLcigBwqo542NBn/2E2RJqYu4NQ2OVyhUXYEivDM+keu1s5MxJLIGYYTmGKdVh1e82yn/8h98CIPAgtLKbIuiMyoEbi4diUo0HQtf+LuKKJIqjW3XrCk9B7YPHTBe0OGuyHYoV+XFyVlLPifv3HwEEM+sJuHbrviwqHjY9OjdDQgChaz9nlC5RQA7DuV4OoticPOaL5Zs7pxH8PUfgwuXbctgza5xWJhc+2+s3IaCHJPLTJ2xa6h5r+avHSIBAmbBvuv+dR1igfOmiGO3mL8mcDFPQba0OQfyMB4E5Ca3MHCRMQQuHrv3QsAgMGOGBZy+DRSG4jrRCcEgobEb5IPRDGBrVroRRQ3rg7KVbGOHsK8icLkrG+Xhwjp7oLwh9zNCe4l4d77VQYrgm9asIQOrWvhGGjfPF3iNnJWSxaekUcdl6+63Gxh1Hkd04C+Z42ov7+GcBwrLAXZJrQRe86+i+EjvlgcGDjK5HemJqVy2Lucs3/zRAmLV4Az5FRolSXjjNUdzA/Ud4iuLImiUTXEZYoGnDanj09IVYq4zTMjRDRU33N3MT6B6lAmMIiwCJcV56aei1YciAa585HEP7dkbX9o1icxBoTW7ZfRRuo/sJoFu0eruERujGLlOykMTtrUd6SRhg9pTh0m/Vpn1xbKsfMmZIJ0uMHiauP+ZJMPl1zlQHHDp2AQkBBIZfaDEzR4NeE1q2w5x8BZQM6NVOktzoBSEopvt789IpYIJhfIDAcBw9I0HP3iB9Oj1YmrdCjUql0dLMQcJQfDYVZN1q5WDj6A0CPMpN3eIDBD6DYQ3Kg2t10tj+2LzzqHicaFXmyG4oYJ1t3ZaDmOq/WvaM9wRbsbAZtuQapNU4ytYc1g5TxVNIELFh8ST5HnN/mJBKoEYPBZVLa3MHTJ84VEIsohTDIjB4zDTcufcU9WtVgOsoKwFFAxw8ZZ+3bloLI6y7yV5ICiDY25jB0c0few6fldAUc6C4RxiW8pi1QoyDoX07oWObBugzZDKmutiIu5+NnjPLoVMkp4L5KT06NYeBvg7snGZKiI/rkiEmegg09SAwtELvA8OPc6c6CHBbv+2geAymjB2AqhVKilvfY+YKMYhoDDAcQeA8a9F6RH6MwvSJQ2JzV+KewTzDuO7pFchpbCieEALaUW5+ElKifGdOsZMQG71YBGfGWTNj8tj+ApIZiuBn5nmPktwVemQshk4SLw7BdYdW9ZMFELpbjwc9SUoOQnI0aTI/S2uUSp4HkQbYIMneiSi/xMRAV1cnyc8m5wNJeRCS6ovxQoKh3Wt8pD53XLcUARKTvjQFR5p8LqnxpOTfqbD5DvHzPXi1Mu488ACja5UuRHWjtU6lxsNC3fhz3IM+sbHSdcvD+u+SB71UX798jbWqf1VmDF3Q06XJeCnTuJ+LLxPuGybxxW1UCqwDH//38cdNxcBQXnzXqPqZzAs6duYqunwLwfzqe/P7BM+UJ9d5chrHFP2Z6yPx73G8DDsReGrSuFbV2fkqRRkj7uP4Mo//M4Fx/OTghJ7HsBetdso35H0YlgbsEI9K/Hkn+KSnTf17zp9qLyRPRj96Z/U7EJTQO6W+5RC7/75+xdcvX/7x64zcCzQW4r4rzwcq/B+FmeWs+RT9l2u2BNycU7Usud4IrNl+tN/4Oe6H5OaqUWcxHMGch+R+V5M1+nd/5rfwIPzdQkjJ/n8VIPBwefDkRZJXzlJyzEpfigQUCSgSUCSQ8hIgmCPAo7f6d2wKQEjhWftVgJDCw1G6UySgSECRgCIBRQI/JQEFIPyU2BL/kgIQUligSneKBBQJKBJQJPCvSEABCCksdgUgpLBAle4UCSgSUCSgSOBfkYACEFJY7P8FgMBMX7LEKQ3CVbB4zQ5JulJzOShyUSSgSECRgCKBpCXw2wAEUqFOnxMgPPXqO9hJvx7kPjCZ/1h0hIQ/bMxm9l+ySa75kWI06QuTmjxJ9Zl/EiDwip2enk7sHWw+n9n+gVsOJjuzfMb8tXKNh5nVbLxq9LONmcLT5gSAVyqZjW8/sHuCRXHIlFazapkUT8g8d/mWXNPj3W5moq9av0cY+NQkQ5q8F5noSGpFtj3egOhr1lpIfzRpJLMZa9dbrrCp52TBym1yB926dzthFEyqkcGPdRZI/as0RQKKBBQJ/BsS+G0AAu8gk1wnOYWAmEFKTgEy7ZEuU021TGIY1mII2HxAiqJocp1M08lJDCDwdsKaTfuFF4DXmkiCQk6HV6/fYeve4yhdrIBQ/vK6E+9lly1ZEPcePpPPkko3fiP504q1u6FvoIvKZYuJXB4/e4kTZ66KUiP9MBvfkXesSQtKNsYOLesLKxlJgCIiP6FDi7rfXbVqbf8AACAASURBVHcjmOIdaTLRUdGTuTK9gS6aN6ohwIzMhyQo4fU53sOm7FigZcO2QyhTsrCwjbHmxPkrd2BraSoMiqlTpRZFp6VF/vo7KF28oPDWz1m6UQq2PHr8HHVqlBN2QgIcPoPc72SQIwkPs4BJA81rj6SzZVu1YS9yGBkifToDnL9yS4ivSE27jxSzWTJh087Dwly3etM+udJHelvWJyD73pvgEOER4BUzUganQiocPXVJiJZ4J5q1B3gvnHfOSYKjbgRkqVKnFl52khLlz5NDruXtP3ZO7qVzTZGrgXewO7VugFfBIVI7gFfU2ChbFq+pWl5FDERARgIskkKR6piN3AUc29uQDyiUPyca1KqIsLAI+MwNFHpg8l4oTZGAIgFFAv+EBH4LgEDOAhLlkCCJ/ONq5aeJgGgRk40wbi0G3qMlcQ8ruP1TAIH3cs0GThAyEhaPolU7fGA34fvPlT0blgbulL8VKpBLCIvWbT0oFKEsbKNmmov7vrzPzT7oQahZpQyqlC8hRZNYZIZMfj4TVIWpKjayQK+uLYRsiBzsZLMjLS2fQ68K2QzJ3khLnwVTSAZE9kJyTfQePBFmpk0QEhIm4IMkRa3MHYSchWxrrPVQMF8OdBswHuPt+8jvSBvL4jGknqUyP3j8AlixkIQjJCbh7xas2Iqp421FOXJ+ShUvgCnTlwlD39qtBwQkkT56y55j8Bg3UHjlWQTp3OXb4gUg2x7fh9ztJErKnzenyGjo2BkwMzUREHL7/mMhmTp17rpQyZItkoVouH5Y74HvRcIVu/5dhAyINSc6t2sI33lrhayGz2SdBbI6UsF379AYnrNXyR1q1lhYu/kAFvuOkYJWV27cg56ONo6cuoyZk4fBfKCrMFwSLLJAFamZ4wMErocxk+dJgSAWtuI858yeFV6zVsLGylToakkBTYBAUqspvsuFnCclK49qsn+UzygSUCTw/1cCvwVAWLVhD8LCItHSpIYoeirW5JCExK/FwOmWQjX/IEDgM1mghrUVyBTH6oakfN265wS27TkmhVbGDustBUno7WBRm7g1ERJaogQRrFHAAihxm+OkOSDvPluVJlYCAFjlkfzpOYyyYvm6XdDRUVm1r4PfYqWfi1ju5N9nQRha5s9evsFgx2lYu8BNPkfWPvK1k/6YPPZUYARaRQvnRd9hU1CpfAl8+BAuSo3Wb/48xmjWsLoUhyEdLgu/sA4DcyNYH6FP91ZST4CeBRY26dbfReoGCBf96P4CGvg5Fuy5cv0+lgTswK17j4WhjmVWSeji7LkA3uNtZXxUorMXbxAQSaZEvyUbMN97lPytXa/RwmSmBgisGMhwE4td0WtBWlyCNI6drHT9e7YTgMB1Y27aRDwnrCbo5bdKqkyS0a3/cA+s8HcWa58Fsh49fYXo6Gis8ncRNkC30X1lnsnItzvAJ0GA0LbnKGQ1zCxMkvTalCpeUMhdWA+BQC13zmwCENhI0kNSqJQgCfv/e9wpb65IQJFAciTwWwAEHpZv3oYILSit3HF2vWOrjiX1skxSo/JlH1QsWmm1xOVMN7PnrFVCr0kLMqXCDEnlIIxy8xdudBZjIoMX6YFZnGWizxKpNKYGCORep9v8R41FUPg8ctHHHf+PAAKpmkkba2neWoAALXEqbbq/6cInXSqVEF3nLES0bJaTVEvzX7wRUyfYCvWr78T/AQTmEJBTf8tyd9y++0SqQdIDQC8Iy/9OmbFMlDDrIlDJMlmQFKusGrhr/ymkS6eH1k1ro02PkVgyYwx8F6wVq53eE1ap8xpvA7txvhg52Bx7DpzG9TsPYwGC1+xVGO9g+Q3ohAiV6jTXIeJ9YVnnxADC2Us3pRaDzxxVsSaGGlgLgoCMRWQ8nW0EIDDvZZBFB5EtvQhes1cKQCgZByBYDp2Mts3rSGiCFeoIEAi0yP/OEAOr/S2fPS5BgGDn5Atne0upicFwDsMULEVMyl7HiXMktESAQG55AUvDe8dSGie17pW/KxJQJKBI4Fcl8FsABPVLsrQmrVHytGvS6MbtPmC8FAdio9dh8zJ34dNnXQN1WzzdUSrXpURLCiBQqZGGlfF5AhUnjwVgaWHWYicPOnMFmDfBGH/JYvlFWahj2PHHR8uXdclZWniFnxP2Hzkv3OVqiliWX2ZBFwKQ5Wt3o1LZIsiV3Ui46anooz5FS3EUcvvXbj1QlBQbWb9Yqpeub/KS04ImnzkLo7A8KotlUZFxjFT481dskTAC+f5newyXODkLLO06eEbyLBjuYJVJFrphrgRL87LaJMEJF+D67YeklCytelrd/UZ4CKc/azgwrs+iN3OXbkLlCiUkv8JxSA90tnKSojTkbmdRIXoA6CXhZ1lkhx4GuuTJb6+mVx09tAeMDDMLYKQHg9X5yNXOMdFDoubtJ5BkjggLvbAxd2Gp71hs23tcOPcJdBwn+ksoYu+hM3D2XCjjZNiHMh83eZ7UnCBPPeVWMG9OtLdwFODEUA49K2OH9cS2PcfhMWul3K6Y4+WADOkNJH+B+Rf0lrGQDUMtTLoc77kQ6xZNTLRsdEqsXaUPRQKKBBQJxJXAbwUQfoepSwogxH8HKveYL5rVFEjs/dlHcl3PBE/0yKjLzybWN3nxU6dKlaSHhZ6a+LdLmF9A/vGkvDMMb8TlVSf3enzed/Kg09OTVNO0PkPcfpicOG1uoFRCZOU6ltxOTjlxyiihUq6J/T7us+mp4dypn8dKnKzroOaH52cJ7rhRCZiUpkhAkYAigX9KAgpASGFJJxcgpPDjle5+UgKslnj73lNUqVBcuSnwkzJUvqZIQJHAnyUBBSCk8HwqACGFBap0p0hAkYAiAUUC/4oEFICQwmJXAEIKC1TpTpGAIgFFAooE/hUJKAAhhcWuAIQUFqjSnSIBRQKKBBQJ/CsS+C0AArPlyVvAljatFrJmyZgsYUVGRiHy0ydk+sZCx8QwvjgTw5JDv6vJQ5MCCLyJ8STopVytK5Q/lyZdymeYVMhEQL7/r7aQ0DB8/KiiVGZiIeWZVCKh+pkPn7wQEiR1UiRvCNy480i+X75UYY2GxuuDvI1A0qFfafETI0kURR4BNt5YIQvjzzbeguBcMYmTtzOSQ++d2DPJbVG4YB6UKpr/u49wPsiWyCuomjYmcu46cEpuSBQrnFe+xnXNMfO66j/VuC6ZjEmOBnWj7Mhn4Ti0Zyzd9D81nr/rObyhwmvBJCZLyfYm+L0kpJLGmwm2vE5sZd5aknuT0zj3H8LCY884fpeMrE3qV9EouZc3n96+ey/XdX+1HTl5WW7m8BYWG5OQeW7wrOBNpsRuZWn63IQSohev2S4U5mVKFNK0m29j+yo3sooVyiO3k36l3br7WLhe1InfHCc5baKio1GiaH6NzjveTMuY3kBuTvGWV+ZM6YV59keNHCnrtx4UorWUpmb/LQAC7637Ld6I7MaGcqe+f482Gs/j46cvhLGO35vo2E++R6ZBkuCEhX1E3ZrlhIY3pVpSAIFX/KgcixfJK+yHmjYqVZJEjR3WS9OvJPo5N+8lCHrxWu7Uk5mPd/01BR62o30wbeKQ2Kx93tE/feG6sCMum6W6759UGzt5LqzM2wg50M82Ulf7LdkofAZsVFIjnGfKlU/WTmDfml6HTWgMc5duFm4EAgMebD6utkKj/Cvt3sMgkXl8gLtj/0kcP30VrqOsNO6eBE0jXGZhie9YYcRke/7iDZYE7sRIG/Nk32rR+MHxPkjmztMXbqB7B5PYv1DZcM+SApxXev+E1mfoZNgN6Co3XVKy8VouQQepuXmr6OrNeyhRJL/G+1E9lhev3goz6AQHy1iwP3/5FmTMkB6d2tRPcsikKV+9cS8cbMyS/OyPPkAq81Zm9tgTOC22dgn3UeDm/WjSoJoYEbzO+ytt1sL1GNSnw3ddXL/1EEZZMyGrYaZkdc09OWL8LKz0c/5l4NKi+wisnjM+9v3IAHzhym2p6TLIor0QtSXVnD0WCI173RrlwcRpy2FTsGnJFLl6nli7fvshPGetFAbc5BrPSY3ntwAIgZsPyHuwVgEVmqbomhtunPs8QWDkGlDXYli8ege6tm+E2/ceg3UZtiz3SEpOGv/9RwBh0artwpDIGgbZsmQSgiDy+7N2QaaM6YSwiOiaZFBnLtwQvoK2zeog9EMElgbsEPKh7qYmsoD4HCJU3pPfc+iMIEe+z879p1GiaD4pDNS+eV2UK1VYKI15la965dJSK2HYuBnobtoEVcoXj30v1jagorn3IEjGRzRN9Lv38BmpP9CxVX1kM8yE7gNchMyJwKBHp6YyXlqRZFgkWyGbup7C1RsPRFG3bFJT6g6s2bhX6iQcOXVJDltaE/EbuQg4XlrT5Ikgz0LQ8zdCe0xl3a5ZHWTIYCDFmEjtzL9XKF0E5UoVQU9bN3g6DRQkzUbiocAtB1CiSD6Rc97cxiLz3QdOC2cBmQpbmtQUPgJavdyEr4Pfo3HdSlKDgvTN9WtVQH97T1h2awlueFI1N65XGZt3HFVZerra2LTzqHhkGtapJAyQazbsQ7sWdaRGxf4j59CtfWMh6qKHg/TUJGdi23v4rNBSR0dFIzjkAyY59pM6FFdv3BdLrpVJDdC7QBro4oXzCWChVUYyK7JQPg56BSuzVrEipGfKd8E6uI9T1RfhMzl+ckSQw4E02GSc5IEFfEULkxrCv8FDcs+hs9DW1pI1k0YrDTbvOoqPEZECuFi7w6J7q7+wl968+wiBmw/i1t1HaFi7knA3pDfQx4r1u/H2XShsrToKQNi4/bBYydppteVZ7VvWRYZ0+ti44ygiPn5EozqVhWMjoUYuDnqoWI+DcqP8zl+5LfOgr6sj/Bk6Ommx68BpmZ+Xr4LRs3Nz2U8EKaw/wjVH0qmELFfuIa43yoV1MupWLyeWm3batDhz6aZ4DbjGetm6oV7NClKAjHUzWEvkwePnYqWnTgW0aFxT1joP9V37T4sVybHR07Nl11HxsJBhlOMy79gUW/ccEyKul6/eCvFW0wZVhb77/Yfw2Ous1289kHXKec5uZIgOLesK4VjApv0wzpZFQCBrplDhBj17DbfpSzFrip1cS2Yjc+ugUd44tHFmoucXwf3Jc9flPUlPPsq2R+waNM6WWeQWGhou9WJ4zZhXl3t1bg6ttGmw7/A53Ln/RPZbqya1ZH2whgnPWjKJspFPhDVoOKKKZYsKBwh5SLie6eEj1XyvLs2xcOVW5MuTQ1hQeabVrlYGdx8EYef+k7LvO7VpKGuI5HAbdx6RPUADi/uNdVoeB72QMRTOn0vODa4H8t/Q20nSNSo6ggha6Bwnz7+039Y5+Ul6dm4m4w1hXZnth+V8437m2bEsYCcyZkyHW3efoE71ssKFwoJ/W3Yfl7OPY+FZUqfNQAzo2S52n6u90zMXrkMrE64P1Xl3/vItHD9zDdkMM8K0dX05O1as2wV9PT2p88J6Ody3bDx7BvRsK+stscY9wv3q5WKjsZ7S9IO/BUAguRCFWqJYfkRHfcaEkZpbWjwAiLDi1mJQC2f63ABx83NhpVT7EUDgopo8YzlGDTaXRUpr0sl9AQb37SiHiLa2Nvp0ayGTTVcZSaEIEMj9T8DAw9/LZRCyZs6IgC37xZ3er0cbuPkswWCrjnIosR4BFysPISp0Wne08rhJWPCKSpwAgVTKhpkzygbgQW4+cIIwN9L6O3DsAiaO7isubCpqAhg+y8bSFO17O4o1zRoOBGpkcYwPEKgIffzXwNqiPbz91oiC3HXwtLibWzaugVET/YUKOiGA0KWfM7q3b4yypQqDaHrhtNGYOG2pgBEeyAQGS3zHSCErj1kr4DTcQg7IdPp6AhDYJ91ztSqXRrVKpeS5JHEiuRKtCwIQWkqD+3aCt99qqQ1Bumse+vbjZ0kVy1v3nsi7Va1QXMbR08ZNfs8N33+Ep1BbN6hdETmzZxO2R9ZT4BxxHijfGfPWonfX5mI9sCAWrUNaeCvX70b9WhXFFUqZ2Yz2kbWwbstBvHzzTubeYYIffCcPw+oNe4WKu3zpopg6e5WANXub7mIh0ANFORDEkYhK3RimuHT9Xuzv1PTVBFCOk+YKcKAHi/NQvXIpAR+1qpQBrWMSdzGMxwO0Z6emsmcG2HthmutgUQAELHG5GfhMhjOoAAj4+pq3kXHxMKfSa2lmj31rpyN9en3Q68S1tXL9XjTgwZcqlTCZcn2y7+nzAmWeE2oEWeERkSID697tJdzTtMswrJk3QdYDFSgpsoc7z4TziD4ityyZM8Lc1ATdBrhg+sQhQvfN2iO1q5b9yyMIXm7efSzri/uD80xLnPNPAi0Scq1b5IZRrv7yHFKGz160Qci5Bo2ciqH9O8uZ5D5rJZbOHINrNx8IELl47a7wWXRsUx9XbtzHKFc/OcD5zvr6OtLfmGG9hACMAIEAnNY3CcYWfJMFzwHWkSEJF99v6cxxcPVehLIlC4uiIisrqcYpQ84F64KQ6VMd/uN8shbL7ZOrEzSqqOwbdhiMuVMd5NlkH+1r1gbT5wVgSL/OcmZyP1UsU1TWD0nbVq3fK0XUCHxmL1ovHk33mStEgdepVlboznNkMxQQyKYq5HY4Fszw/af6r0HzhtVQMF9OoSIPmO8qdOhU0jRoXLwWYY7nCCEqo2eKYyObKz29NHQmz1iGUYN7yDomqGeYhkRstaqVlfcnCR7J28iyuixwJ5o1qCZU5TTOuA55RrrY95FnkVyNhqe6wiq9LlwrBNUd+ozB2d3z0dt2Itq3rIfypQtjztLN8B5vI+dxWm0tMai4vkiQVqNFf8x2H47nr4IF5Ku9MfEBAo0puwFdsHX3cfEkB78NxfXbD9C7a0sMd/aFTR/TWIDANVmuVCEB0Qk1vqvv/EA5zwisUrr9FgCB4QAePkRc1g5TMcvdTqO4mlpY8WsxEGES6fJgGD2kRyziTgnhJhViGDnBD+5O1vIoHnx9hk6SDc8NzsJHvbq0wOyF6xEWEYErNx5gxMCugpSJhif6LMXiGY7y3SUBOxEZ+UkWvOvUxRjSr5MoSjIkElTQy8A2c8E6XLh6BwXy5hTmQVoYBAhUcAQherraYp1Q8bnYWwhyJhCZ6mIjluujp8+lzgCtIxZrIuMg++CmYOyObq34AIGbmJ+rVK64bN52zWtL9UW6/MuXLoLRE+cIsFEDBDXzI/upZGKJzUvdBeRQYU8eMwC2jj4CVAj2aOmRyIiHG/uhAmNjDJYAgdYe459E6+yfG4iWGK19Nnpb6FmgJyZg0z4p2nXp2j1YdG2Odr1HY92CiQLQWCXy8MmL4rFqUq+qsFxy3fCwIOshDyaSN5n2GSsslrScSZ1MhX/l+j0Eh4RK3JWeB3UuBA+fCmWLymFE7xaLSE0e01/kyLgtwYqz+wIpQEWPBhUSP8s5pKfCykz1DmwEOVSWtCATa/T2DBvQFRXLqGROhkha4x6+K5ApU3oBNix8VrFxH7QyqQWaeQXyZBcabMrZztkXK2Y7f0empWalVOescG9RpsOtu343DPa5N3CaAAT78bNl7VDhSNXRoBdiZb4PjZAYKz0fVFLqeYxLHEVv1OqN+8TKIhil14I1QljfgqybXKssoT1jbiBcHCyxbhs9Gk9EsZj2cRRrjNVHKVMqDzbWEGEOENukaUuFRZVWIENvw6y7YN6yzeIRIaspKcC5xrn3HGy7i1Lj8wkQhjnNiKXz7mDhiEUzxuD46SvCfPkk6JVUZB3UxxSPg17Ca9YqASuU2807j6SWyVi7Xli8Zoco767tGskaJjPqzCl2Mratu49JnlSzRtUFwHs5D8LQsdMxaewAsZQdxs8WgKL2mMVfB5xDWrW3TqyKzRGhPLnP0qRJI+dB6x6jcHrXPJkDAmkqQs4nAePOA6fEm9mlTUOwHLyfxwhZd3lzZZe4OoulVSxbTLxFBA10i7MQGj0NaoucY6LVnyp1KpExG40kKm2ed1bD3BG4QAUQKFPuWQJTT+eBQsnuOqqvVKPlmNVkYgTRLLIXt82YHyjnKOeYY2Ql1iF9O4mXkYCN+5XeK64LnpEEZBwvgTbnlP9mY+4M54EhV+4V0soPGjVVGGeLFconTLJ8Nj14BAkE9sHvQiVEYdJpqLCdvnodIpVquW7kDI7nQWhkOkTOX4a4WR+H4V5WtaX3ipTqBANqDwKNDv5ePb74c/zi9VtMnxMgBQBpJKZ0+y0AAgvvGBlmEde2tb0nFk53/Is1k5hguJB5iC0P3A13pwHiOqS7et+Rc3JocfHQ4kyplhyAwMOWlgEtu3OXbkqSUuECedDLxg2blk4Gayr07tpCAAI3O2l4V81xkTFz4R87fUX4+XsOcsOCaaNiAQIrNqotS1ZTpMKigqRrku48AgS6Dqms06ROI+8/wJ4AoY8oXh4GRN8tuo1A4HxXYfKjMqS8mnQehvWLJmHRqm3Q19eFZfcEPAjvQsWanjLOWspAVyxXFAEb98vne3RqJrUbiLR5GGzZfVTc+ayCaKCvJyEMhgEqlS2KkW7+CJznKnTP/Xq0xqeoz+LVoCeDshvoMFW8GfTEqAFC3BAD55QAgXkoXds3limmnOct34rpEwfDZjQPinriQUgIIFQuX0xqIaiVIWVAgLDCz1n6ovudhwfdh7RCqDjmejuIQqKM6WEgAFDnd8QFCDzwaLnz0GVNCIaR+pq3Rl87d2xcMlkAQ9FCqgJXBAj0HKjfQf1e+46clbokibUhY6bLQVO1YknJz+Da2bz7GArlyyllxlkhctcab5kPzi3ZIJ88fyXKkettpKvfd3kldJGbDxwv8d+WjWvKY2nFz1pIz9b37s2kAAKtJr4T5cbaGep8EcqIHi+uHbaDx85j54HTElunUmeoqkbL/ji8aZaEEKiICaToteH6Xb/tkAB/0na37z1axs8iXwzpMZmTnhjW7GCdDiYGEgxyf9BQoOLwnjBYLOP4AIHerM5tGqBKxZJw8VgoRc1YpIyJmJ+iokSxsOiZ9UgvjB7cQ/YmwwVUtAQIM+YFxsqIxgC9R/Sa0ANVuXzxHwIEev9YCZYynj5nDXLnMhZPHM8D9pEYQGAJ87nLtwhNuLpxjdItL97CT1Go2coaa+e74eK1O7I3+PtJ05dhmtsQAUXFCucRDwJrpMx2J0DYJ/lcPDNYP4Zn8dotB+QdWHSN7m56WFbPHR/7zPgAgedLkQK5xXvbf4QHDmzwFYBAsJ8/bw5Y23vBw3kgxk9dhMGWprh17ynu3HuMgd/yDgY40LNlC91vBef4oLgA4cS5a6B3mPk5nBeGzXi2qgECQRjDP1S6rHnDM4Lrn23e8i3iKWSFXMb1eQ72tnXDSFtzFCuUF+M85ksosN9wDzgPt8CxM1ckzESAUKlxH6z0d8GDJ89x4fJtWVMJAQQ1AGJp90wZDQTQnjh3Fc7D+6Btr1FCZc99yzOitflIAU70XCXW6CWm54wenpRuvwVAoKXMRRv87r1YBGrrOClhUMD8Ht3KbIw5TRjVF8sDd0nsV92orFKqJQUQOJFxD3rGO2n1ZMqQXtxO3HhE5jyg6d5mvIsIl40Fla7dvI9+PduKe9l16iJJzmM8j4ckY9SrN+xD2rRp0K55XQEJtHppZfGQ4qFHZcbQhboWBV1pDjbdxRVH2RJQMX5HlytzP46dviyVJ9knPRNUZozTU5a0gPi+tI7UVMjMo2ANAcbx6LJkDNDWsqO4s6f6qepQMPOe1jLdjQRvh45fkHfirQa6Y5lvQY/F/UfPxdvy6MkLUZIEdwQ63CycW1o6BEp8Jxa68l+yCd06NI5lQqR7kxYirXWGACy6thA5Llu7C9yczNXoZ94GK9btQb0a5eA9Z40kPdICJAij3HnoqRvLZG/edQwGBroC3IoWzCOKdsaCtWLxM6yjzuvgAcUbCzzIabHSbRoWHoHUqVKLUmRZarq3dx86I65Ouku7tGuEjTsO49CJS1Ijgi519stwDee5Xs3ysVbY+1DWrHCHp9Mgya1IqHEN8ZBjme+cxlnFa8Lwif+SDQIGGKunlczsa1pSbARfXINMCub3M2VKJwcWG71LnrNWoH2Let8VS+OaePj4Beysu8JAT0f2HL1CnK9Blh0kDMHcESoPrungt+9lXVDpEBip1wyfwSJZdI2zVgcb54Z5BPRuUN4cH/sL2HwA6Q30xHNGC5wgwrRlPbBS5/MXwQKACY6ZX8K9xRLazA7nel24ahts+nQQQMp15Dt/He49fIrG9aqIJ4UglBU78+QykpAMS31v2H5E5oD5FiwVTncu4+9cc7RsWYGTCo85J1yTXKMEJLRqmVRHYMP8A4IYNnpTGBIoWTSfWOHMr/DyW43P0Z8FUNKjwP8TnHJ90HVP65ceObrPmR9AcETLlh7AhBoBIJWj+pYLP8O9nz1bFnlXNnoCCdAY4zbMkkH2Er2rDDNy/VNOzHvYffAMLLq1EI8CQ5OF8ueUkBFj5mrrlXuGoKOT1TgBeOq9w7wCeoX4nmxBL95IWXMCG74fKcTpSueZwzNh4cptIvMHj19g7vJNMr8jbcxib2hQvrsPnBJvR51q5eS7DN8yBEYPHXMklq7ZIfuY+Wc0iiTf4/U7OZuYU8A9yDOBZwQLrrFSLb2U1DHT5gRKrgllwTwEzh/zdwgc6PnhGcO1xfOReUoEfATNBJFMOOUc2Vl3gYGenoTPWGiQ+43P5BxyH2zadRRZMmaQAnEEmAyjMwxCmdE44q0HrqV12w7J2H5Eic+6NSPd/MSLRzCXku23AAh8YU1rB6SkcH6mr6QAQkJ98t3Y4l415G9UqUaJN35P0+uJ8esdaPpuiT1Dk2dTMcePWyf1XGZ10zKmSzCbYWY4j7CIfUdNnplU/+q/p2hfqgWq8VzEHWNC49BUbkyuYoLej66NJdR/gustgTWoqSx/5XOavmv8Z2g6f5r2r+nn4j9XJbbv517TsWn6ubjvTo8HQ/+/ugAAEQtJREFUFVzOHNnA69uMfSd2XZgJd+qr3ck9RzQdW0Kf+xAeAa3UaX54JTQ5/cc/GzVdb5o+gyBBT0cburr/u8KqyXd/9Wzk2R23hk78/hhCI0jU5FooQRw/y0J5Kdl+G4CQki/9d/b1MwDh7xzP79g3XYG0RGj5MFaqNEUCigT+JwFeSQwNCxfPYUrwcyiyVSSQmAQUgJDCa0MBCCksUKU7RQKKBBQJKBL4VySgAIQUFrsCEFJYoEp3igQUCSgSUCTwr0hAAQgpLHYFIKSwQJXuFAkoElAkoEjgX5HAbwUQeJ+dbFu8F5ucxiQUJnTF3rv/FC3XeshuRnYvTRP9NHnmPwkQWKOCY48bh2QyIq8YkkAoOY23OtR1DJj0xKtQv9K4sEjywmt6idW74DNJwJMlU8om1jBhh33ziuLHyCiMnugv182SU/uCmfaPnr4UETCDuHjhvBrTBh8+cQnVKpWMTR5T3+XnbQZe1SWnR1KNd+V5m4A3EP7pJqQ7F27IXe24jayU4eEfhXshsat16s8zeY/X7Jgd/yOa2H/63ZTnKRJQJKC5BH4bgEAmRd5T3hs4XUhjNG0kViFPQIUyRYTghs3bf7Xc3+ZVMV4hik/yomnfCX3unwQIvPNNCtBGtVWkSOoWlwhG03eZMHWRXC8j6QmVwIYlkzX96l8+9z40DGTxq1iuGA4ePY/1iyclqBTJYla3evnYoi4//cB4X+S9YDKr8a47G7kdNMkEjtvNqvV7sHDVdrkKyRoMXCO8gqVJI70tmSjjZpCTXZI3NGpWLYOqGtTg4LVDcrcT5PzTjVfGeGVLzeinfj6BNsl5zDs1FebJHzVmZHO/8v547n8B5PzTMlOep0jgT5TAbwEQSIJjO8YHrZvUFjpPTS0SHlK8b5wta2a5U6quxUDriJbN+Su3hGBl+WynFJvbfwogHD55Sa478ZpbedYh6NL8G6f+GbkSShYxNh7S5G2ncrt9/wkcBnWX+8AEF2lSp5J7viQFYaOcye7Hu7q8H8/aD6zpQE9F57YN5XfOngtgZJgZT5+/guOQnnKXnOxpvOdN8iLemz5+9qpwmpMXYMW63bh7/6mw1b0KDpHPaaVJLdSgi1dtR2RUlNyvJzc/7xKTVpX90btDLwbnnHev9xw8LfSuvIvNO+MkY+F4ya8Q8yVGPCZL1+yU+9DaOmmFbMfPfQT8Fm8Q4hzeP6flTgrhg8cuCAvlo6CXQhVLS93dd7kwE3J8pJ5mASXKaVh/VTEoNhLCkDKZzyRPA9+PDJfk1aCXgDTK5OjoZTtR7iO/efce7ZvXib3/TR4L8v2rAQLlS758ckiQoIbvTNpajoNslCTISQggkISHG1fdeL88Idpqvsvc5ZuFe4GeMtIccwzkAyDfRJmShYQGm2Qx5BYgUyUZLvl/FrAhKx3lqOZL4PNsRnsLrS4BAuebBEDkARDSL+uusvY8Zq4UEiTyVMxyHy4AgTdTWKRrhZ9Lsq++ptjmVDpSJKBIIFkS+C0AAusUkHCCiozFUJbMHJckR0BcKcSnWubfyDLHAj7kdCedbkq1fwogcLwkOEmXTl9qA8RtZGBkrQO2yiaW8Ha1FYXKA79gvlxSzdJ1pJUU5+nS1xnbV3lJbQgSlJBQiZz29AK06zUKO9d4CyUoi16RAtbceoKw05HqmaEBFg/qP9wTuwN9ZDykbmZxGV7BYqlZKjMqpVLF8suVRSoRsrkNH9gN2/eeQMH8OdGwVkWYdBqGed4jMW1OANq3qCNELmqWybsPnqBg/lzYvvekFOohqx4JhLr2c8aiGY6i+BlWYF0Lf88RQmrzf+2de3BV5RXFt2MHCMHwMDwjAYm0QqnMaFSkpdRaGCjWFlurYC0IRjIMUJ4JYAaCkCBBEiC85CFQpCJQizSIDTiCvAqKYGXKFB07yMMODwkVCxNC0vltetM0hOTG3km4c9c3kz+YnJx7zu8c7lnf3t9Za9PWXaUVBFzayEhgRk7IDxbSmGPhj889heU1M3wECg/AtFED3bBn5rzfWfNmTfzd4qU5qZbz0lo3O8EcZdj4bHdUxCwnql49f5/ZrYkXTrZBv5numRk85Kfl/NZe+4+rXFmBwIM0ZepCy5zwrDuxIRQwScHAir+d8uJyz2KoSCAQNnXs5NX2B+N7999l37qjzTW3MP752LRisIQbZcABDktizGfIS3j3jQVuX9wuvqWbv3CNOndMsKQxWZb3ygzPFCAvYNHMcd7OKisQMPn6w+YdNiMt2RNTsW5GFFGBwpRp8MgXLPO5IS4QuF6YbhHWoyECIhAeBMJCIODFT4obrll4keN3X1UPtDKBwBc3M9+/Hz1pTw2bZrvyFvi/QzFuNIFwb89n/Mudcj6+3/T8yUVgdooVEzNpvsxxm8yat9rtXKnQEDhCGA22yozklJmWmzHKUxtzM0e6oxitjDu/2cZSpiy0pKcescLCQrdvRpAxS8XNbvPbf3ZnOq4X7nK48OFnPqhfH09VJGCFCN1fJk2y8cN/ZRmzV1r62EE+u017YYkbJa1a+ycrLik23v9mpkqmAA8cXBKnpyX78eH6R8hOxoRnvX/+UpkWQ3mBgPvbyCGPuwNbfFwzP1dMmXCvo7SOgyECgSAgZtTMkMl3wJWQRD9c9oaMybLViyYbrQiil1u2aOqBW68uSndGHMf5Ly94xsVba2b5MZYXCES59uh+nzupxTaOcU/3C/+66PHbJI62ad28QoGAiyDOf4HR+4ddnHv5gZUza0CoLlBt6df3Ibf4xd6ZqlDXPsm2bcM8t6UlL4KKyXc6tHM3SCpFy3ImuCvcmPRce3n2RF+LUVYgUAGhqvLQ9+91l0jECCKDNSc4z5VtMVCVwDde7YZQfMtoHyJQMwTCQiCQBYAFJl/gY9Pn24q5z1VqPVkWHTaXPLDWb9xmk8Y+7Znh+J9j7VtQcMHtat/LX+bWwaEYNSkQmFHv//CwDU96zB/IlKoJtXk+e4VNGj3QoqOj7IHeQ/5HIBC0wsMPG2YidvFWJ+lw1KRcn/F3aH+73XzzTW7fyoOVWSfWqNjdEpwybGKOB5gEBEKPH9xnvZ4YbRtXzbDd+w65BSuMCWSh7E/loX/fHu6bjz00YUqEsBAIxAOG64qtLnkAm1ZneZ8eO2bS4DJnr/KZPzNzvNKZ+SMEEAikUdIe4tgRNKwnISCKmFkEEA/tJbNS3Q+foBtCn/CV3/fBYT8WLJWxCKZdwc+KtZstbeQAe2b0DFs+Z6IzYqEg4Vm4QfJgY3uqMKTvBQTCwBGZHh1efKXYLXwRCIgdrGE5RhYs4qWOsc3KNW9ap44J1uXujr4mggoJVqsHDh3xBzaVCixXCcPid6RhVlRBIFviy68ult6uWN02qcBBjYoQD+ZHf9LdE/VIiyRZcQECoajIuv442X3wH34yxZZkp7h9MVUMBALVmYVZ465aH58rsKmpSR6OROsB22Rsu2mvTMxY5H78y9ds8nbQ+fMXbGP+Tk+kGzgiw38HO9b8kMq5NDs1FP/NtA8REIEaIBAWAoHZD6E+9H/xQGdhYbADa1J6sQxmgqR40Qunp82/8fC/npd9sJ9RdruaFAjMore++35pJjkPxb37/+o9eUKYftQ90bPtCSVhVT8e7LQk6kfV9dl74eUiX9Nxe5tWtnp9vgeaMLDsZB0CXu/MCHlLgrx6euPsj5I2s2uuCyKDDAjaNaRJsh0PeEr5hODghghjtmkYE+2pkiwixAf9+IlT7nnOugBaFYRS4eFP64EWByIGUUH5nbUQbW9r4YFP3AP4xfO3VH7o+yMSSK088NHH1qF9vJ/bA/d0svV52zyPgtlvl8ROnhVw6kyBr6cglz66fn2LbUJozy4vu2/fc8AyJyZ7e4CYawYhQX16dPU+elyLWH+Qb99z0M+Llte2XQc9Npu1CT26JxrrQ3gTgPuOSg05C2RTUP2gTI/HPZ7w7I+ye1RUPc9sqFunjldbWAzIece1jPXY2a87uD55W3Z5ZYLPI2xmx96/+EyfNRMc0yO9utnBj454iBHtHloqrDEhbfGri5d8LQnnwLVn3QoVDtY00DKiasH9wL1Am4dkSDj/MX+3Xbx0yWIaRHt7g2v0zs4PfC0IyYsaIiAC4UEgLARCeKC8epQ1KRDCicuNfKw8QEmVoxyP6GIGrxFaAq++vtXaJ7S2xM5XA3s0REAEbnwCEgghvkYSCCEGWkO7o3x+7vwFa9G0cdB+BzV0aPoYERABEagVAhIIIcYugRBioNqdCIiACIhArRCQQAgxdgmEEAPV7kRABERABGqFgARCiLFXJhB4355R1iqa1ev8sPhOQwREQAREQARuFAJhIRDITThx8nQpM9z/qmOdizsfJ4p7YmBcLrpiZDtU542IYC5aZQKB1/p4G2NW+vBSu2i2T31+gc3NHBW0Q2Qwx6FtREAEREAEROD/IRAWAuHtHfvtyCef2ZXiYnvjrZ22btlUf3UsmMFrY3OXrrf4uOZuEBMYcxavs9hbG9qTP+8ZzG6C3qaqFgNmOwT2YLYTGNOyV1qXxG/7a3OM4uISFzSxtzZyh0MNERABERABEahpAmEhEAJQ8Nlf8dpm988PZmBnu+e9Q3alpNg2vLmjNIsB18BfD5tma5dOdYOhsmmIwey3sm2qEghYRie0ibOHe3Yt3c3fPvnM8rbsLg2NIjTp6REZNmzwL9xXQEMEREAEREAEappA2AgEHOGGpr7oDoiJne+sFqfyWQyIDF5nO/PFP+2OtnE+ew/VqEogcCyjJ+W67z+uggxMeRau2OCBQgwMixA2BOyEygI6VOen/YiACIiACEQGgbARCNt3H/RkxsXZKZ56V51RXiA8NjjNWrVsakeP/cPd/9JTBlm7+FbV2eV1t61KIMx/+XWLa9nUA5aiour6fgjL2bRlT2kFAZc7nO1axzWTQAjJVdFOREAEREAEqksgLAQCPflxU+bb2KH9PAimOgOr4EOHPzUExoAnenuf//jJ0x40hA0zNss/693N6keF5i2CqgTC9Dmr7Ke9u7nnfWBMy1lpXe757xoELHr7J6d7C4QoYg0REAEREAERqGkCYSEQWEvAmwjVSXAMgCQkhrQ8Bj749P8Daw7wmcdnP1TigM+oTCDMXrzO9rx/yFbNS/PPZXz86XFLn7nMlmSP94wExrGTpwwhQSSxhgiIgAiIgAjUBoGwEAi1AaY2P5M1CQQP9Xrw/to8DH22CIiACIhABBOQQIjgi69TFwEREAEREIHrEZBA0L0hAiIgAiIgAiJwDQEJBN0UIiACIiACIiACFQuEE5+fLmncKEZ4REAEREAEREAERMAJnDlbYDcdO3Gq5JZbooVEBERABERABERABJzAWQkE3QkiIAIiIAIiIALlCUgg6J4QAREQAREQARG4hoAEgm4KERABERABERABCQTdAyIgAiIgAiIgAlUTUAWhakbaQgREQAREQAQijoAEQsRdcp2wCFRM4PGkNBsyoK89+N277czZ8zY0dabNmjLc4m9rIWQiIAIRSEACIQIvuk5ZBCoikLt0na3+fb71f7Sn5W/bZw1jGtj8GWOsUUwDARMBEYhAAhIIEXjRdcoiUBGBoqIrNnXWcluf944ltI2zVxZMthj5o+hmEYGIJSCBELGXXicuAtcSKCy8bDv2fmh3dUiwprGNhUgERCCCCUggRPDF16mLgAiIgAiIwPUISCDo3hABERABERABEbiGgASCbgoREAEREAEREAEJBN0DIiACIiACIiACVRNQBaFqRtpCBERABERABCKOgAuEo8c+L6lb5xsRd/I6YREQAREQAREQgYoJfHGuwP4NZnIbcOYlKdcAAAAASUVORK5CYII=;" vertex="1" parent="1">
          <mxGeometry x="265.51" y="300" width="408.99" height="280" as="geometry" />
        </mxCell>
        <mxCell id="pJZJWKOZTuTM_C-RBt05-24" style="edgeStyle=orthogonalEdgeStyle;rounded=0;orthogonalLoop=1;jettySize=auto;html=1;entryX=0.5;entryY=0;entryDx=0;entryDy=0;" edge="1" parent="1" source="pJZJWKOZTuTM_C-RBt05-22" target="pJZJWKOZTuTM_C-RBt05-23">
          <mxGeometry relative="1" as="geometry" />
        </mxCell>
        <mxCell id="pJZJWKOZTuTM_C-RBt05-22" value="" style="shape=image;verticalLabelPosition=bottom;labelBackgroundColor=#ffffff;verticalAlign=top;aspect=fixed;imageAspect=0;image=data:image/png,iVBORw0KGgoAAAANSUhEUgAAAGQAAAAgCAYAAADkK90uAAAEpElEQVRoBe2Z32saWRTH+7cN++CL+zApCIFFAt2HSrnYPiiSJWRAWCQYFgQJCSWwyNK1XTBCQtbSFCQwEAxbWgvpj7hUpCXJUh+M4tt3OXPv1dHMmDvjbjttJzCo17k/zvmc8z3HyY3+YIjwCo4PboQwggODWIRAAqYQIZAQSLAkImiSHWbI15Qh1f1D/PTzFmI/ruC7m0nrovc0Rt8FLfq+hPP4ypDqn4cWBE1nmHURHLr3S3BEUM7oGcj6xu8zITgBojlBMTjo5/AExA8MCSiEotbMKAMh6ZHO9fsaytf1UJSBUD3wC0LOozX8SsbJw1Vr/0ix4XsNv3t/ynlKQKhjkk6d99Vf9/UK27cZEqkstFgRjz9eH2mf0on/5V5KQKiNVQXx/Q9pvGl1rMtpDq3l2YC/Sojqeey9q8PQGYynl97XCNjvDTcfKAFRlSsJAwCeNd84QvQjW8dbaWgrNXQGl3i8xqAZBzgfObiBPLXfvxzA/DWLaIxBi91DYstEp8czqVXJQtOzKB3WYNy5x6XvThHll10BVq6xg73cMiJ6FuV3Q/T/eYVKIYeFRd7eR5ZyKJjv+ZznFCQMqdrFODjEmFHnAdMxS0guif2Wctho2O4dnX8y25WA0I8+p2h/+zfPBAJhh0Hj9NlpDq3lFh2O4x9NGDGG5D435ryWh6bnUPkgDRHO1NPIm+IecxMLOkOi0rb24kAYIpkdnBCk3ilKGQYtvgnTkr+ra/R7bZQzNOcRXpzRnEuc/JFDhPZpkMNPUWKTwXF8Pw0tXsJxb4jzIzqDPJOcK0C7wCD75wZC2SAlit7PgkGAvALp1ovjiCVDzg6Qsjm7PxDOnMiaNkp3GbTMLjqDITiQNArPJcQh+uamFTD5Bo05rNHYRkRnyB/Z5gyaKMQZtLU6uoMheKMhaxr/Lrr1DP3Bewsmz2oxX567KjLMBYoSEDfJoiwgAPLvOhgExJtkXWDPcHkawB7hxDJKOHOi+2qjnGLQUrtojYBMReeRAGI5/OoanWrOkjlLukbOm1y3/6GGpKxpllytovTWBtjhSYbMWkc1UM2QWUVdQlGBQUA8FXVhcPzh6YTMdfbJWcvYfm0zXkQtN5R3ZbLW8AyR9/OI7T4tQtNl1lwF0p+RIePW+wKVFYbIugmT5Mqqc7S+yJCJM/F93UDIcaUM+Vxt76TjbQYJUNH7zbHcxHLYfkk1ROo1gyyusoYsrNfRohpyZiJ/i0GblWW9Jgq3nGuIXfossLEsEnfHdY6c26ryemM8aaNr1a0LHP+2C3OUbTZ7bGNKQGgDN9lyKtxuY97kasiL5m0pTXYDeGTyAiqie30HlTXqkBi0xWUY++Os4kBWsVF9gATVAJ0hmnkAk4q1q+wRuCbKa6u8c6M5jDqzqU5JNB1Xfx918aJSRFzspy2mkSyYloTKbHB6VQYS3EcnDnJjizgymgOZqiFT9zg553OMKQOhwwXz4eI3DMQvlP/3Se83DoSgkHyp1BS6J3zCK+uU2qsnyZrWVOq+qI0lx4f/wlVz+LQPpz/PBWR6sfDz/FBCIAHrtkIgIZD50/prlsYwQ8IMCTNkVob/Cx2YF/wPVu/SAAAAAElFTkSuQmCC;" vertex="1" parent="1">
          <mxGeometry x="420" y="650" width="100" height="32" as="geometry" />
        </mxCell>
        <mxCell id="pJZJWKOZTuTM_C-RBt05-23" value="" style="shape=image;verticalLabelPosition=bottom;labelBackgroundColor=#ffffff;verticalAlign=top;aspect=fixed;imageAspect=0;image=data:image/png,iVBORw0KGgoAAAANSUhEUgAAAD4AAAAYCAYAAACiNE5vAAACnElEQVRYCe2WwWvacBTH+7fllEsv6aHMixQ8SfkhPShSGA14kRIZCDIcoxcpwzpQQRlKO7ZLQCwttAUZq6NFlCrUg0Zy+473S6KJtWpFi6iHIPKS98vnfb/vvWxpPR3reG2tIzQxb8DXTfmN4hvF12TKv83qpTgEiUGQAohejViDDzl4eZxBKY2IL1FRZwRnEGPlF/u/cnZkFmZFwb3+EITdGIrPNlU714i6GfyywuFXUnHlRwE+icFfaA1UL8UhUjF+Gu1gB6+pCfj2DnhBxL0wPpet58pQqDU+ZZAPH0KUQkg+6NBqKqLBA4gUcx1C/hqHR2Lwph/7572e0ybGmNaayepKqYtihEH4WECNJzf+b3+5hmbOAQu8WYpjRwpAUQm2i8r38ACwZ4L34zq0zi2iHgYxmMLNE/2vIx8J8KJZ4ONzLhRch3aVwLZ0hMRfHVqDHGAOPAd4HcmgvUA6tKcL+Em9bB2aBS5foGmpUz7hSluF42v2X8am+KSciwY3e9p9do9qOgSBpVChl3eAW4rSJnBehnpm3DYoa9kwBMvyVjHMbeF4Zigf5bccMc03yYxWN6rKp7g7DC+zHeoAN9U5/o22BeH4fQmuqTQjhtblnxQ+9MEm5Vy04gTALU5KhpFumAc6wHVUs9TTAcjnj2h3qGdbuDzNQeUFGAH+rELepR7PoMLvv0eC2qUPPinne4D3WsjLDGJEHSg6BK712rhJx+B2m1Z3BeCLqqi+Bt7T0bzLQd43t8B+DMnzb/zDyJgLBDYu5yLAHTad7oBp+m3iPXyQMijl+Z35th5/F/A6iqc5XDa6fGe3G7c4IavT8CTrz+kdlhC8hV+xEHZcg9bwHOeMnT4naCreEoLPT9Vx7tiAj6vOKsbWVvH/iKBz5y05TT8AAAAASUVORK5CYII=;" vertex="1" parent="1">
          <mxGeometry x="439" y="730" width="62" height="24" as="geometry" />
        </mxCell>
      </root>
    </mxGraphModel>
  </diagram>
</mxfile>
